<?xml version="1.0" encoding="UTF-8"?>
<svg width="156px" height="296px" viewBox="0 0 156 296" version="1.1" xmlns="http://www.w3.org/2000/svg" xmlns:xlink="http://www.w3.org/1999/xlink">
    <!-- Generator: Sketch 46.2 (44496) - http://www.bohemiancoding.com/sketch -->
    <title>car2</title>
    <desc>Created with Sketch.</desc>
    <defs>
        <path d="M0.0799513528,36.1192315 C0.0799551307,45.1822665 0.521684607,54.2540756 1.564,63.38 C4.125,65.772 7.461,67.436 10.905,68.27 C11.11,46.594 11.51,24.768 7.947,3.217 C5.962,2.404 3.823,1.95 1.957,0.858 C0.820601673,12.6626621 0.079946461,24.3835909 0.0799513528,36.1192315 L0.0799513528,36.1192315 L0.0799513528,36.1192315 Z" id="path-1"></path>
    </defs>
    <g id="Page-1" stroke="none" stroke-width="1" fill="none" fill-rule="evenodd">
        <g id="car2">
            <path d="M141.729,27.559 C140.8,18.583 133.372,12.392 133.372,12.392 C133.372,12.392 127.182,8.369 116.039,4.655 C106.644,1.523 85.01,0.686 78.457,0.5 C71.904,0.686 49.896,1.523 40.501,4.655 C29.358,8.369 23.168,12.392 23.168,12.392 C23.168,12.392 15.74,18.583 14.811,27.559 C14.704,28.596 14.592,29.808 14.479,31.146 C17.256,28 21.149,26.069 25.394,25.361 C43.304,22.506 60.955,23.449 78.457,23.044 C95.958,23.449 113.236,22.506 131.146,25.361 C135.391,26.069 139.284,28 142.061,31.146 C141.948,29.808 141.836,28.596 141.729,27.559" id="Fill-116" fill="#1A75B8"></path>
            <path d="M141.729,27.559 C140.8,18.583 133.372,12.392 133.372,12.392 C133.372,12.392 127.182,8.369 116.039,4.655 C106.644,1.523 85.01,0.686 78.457,0.5 C71.904,0.686 49.896,1.523 40.501,4.655 C29.358,8.369 23.168,12.392 23.168,12.392 C23.168,12.392 15.74,18.583 14.811,27.559 C14.704,28.596 14.592,29.808 14.479,31.146 C17.256,28 21.149,26.069 25.394,25.361 C43.304,22.506 60.955,23.449 78.457,23.044 C95.958,23.449 113.236,22.506 131.146,25.361 C135.391,26.069 139.284,28 142.061,31.146 C141.948,29.808 141.836,28.596 141.729,27.559 Z" id="Stroke-117" stroke="#333333"></path>
            <path d="M20.603,168.839 C20.444,168.096 20.604,168.74 20.604,168.74 C18.05,146.706 19.008,124.992 21.243,102.958 C21.889,97.793 21.518,92.772 21.013,87.799 C18.436,87.238 15.951,86.404 13.652,85.01 C13.6,93.188 13.188,107.377 12.954,119.795 C12.644,136.199 13.573,173.96 13.573,173.96 C13.573,173.96 13.577,174.134 13.585,174.452 C13.689,174.474 13.793,174.488 13.898,174.488 C15.655,174.864 17.412,175.189 19.168,175.447 C19.287,173.752 19.442,172.05 19.646,170.336 C19.646,169.698 20.126,169.422 20.603,168.839" id="Fill-119" fill="#1A75B8"></path>
            <path d="M20.603,168.839 C20.444,168.096 20.604,168.74 20.604,168.74 C18.05,146.706 19.008,124.992 21.243,102.958 C21.889,97.793 21.518,92.772 21.013,87.799 C18.436,87.238 15.951,86.404 13.652,85.01 C13.6,93.188 13.188,107.377 12.954,119.795 C12.644,136.199 13.573,173.96 13.573,173.96 C13.573,173.96 13.577,174.134 13.585,174.452 C13.689,174.474 13.793,174.488 13.898,174.488 C15.655,174.864 17.412,175.189 19.168,175.447 C19.287,173.752 19.442,172.05 19.646,170.336 C19.646,169.698 20.126,169.422 20.603,168.839 Z" id="Stroke-120" stroke="#333333"></path>
            <path d="M18.7,87.202 C19.279,77.221 21.165,45.376 21.882,41.434 C22.679,37.049 22.543,29.865 24.794,25.473 C20.784,26.257 17.124,28.149 14.479,31.146 C13.613,41.387 12.644,59.083 12.644,63.463 C12.644,68.415 13.263,74.605 13.573,79.248 C13.648,80.376 13.668,82.384 13.652,85.01 C15.254,85.982 16.949,86.677 18.7,87.202" id="Fill-121" fill="#1A75B8"></path>
            <path d="M18.7,87.202 C19.279,77.221 21.165,45.376 21.882,41.434 C22.679,37.049 22.543,29.865 24.794,25.473 C20.784,26.257 17.124,28.149 14.479,31.146 C13.613,41.387 12.644,59.083 12.644,63.463 C12.644,68.415 13.263,74.605 13.573,79.248 C13.648,80.376 13.668,82.384 13.652,85.01 C15.254,85.982 16.949,86.677 18.7,87.202 Z" id="Stroke-122" stroke="#333333"></path>
            <path d="M22.84,89.866 C22.665,89.268 22.514,88.669 22.373,88.068 C21.917,87.985 21.463,87.897 21.013,87.799 C21.518,92.772 21.889,97.793 21.243,102.958 C21.145,103.925 21.05,104.892 20.957,105.858 C22.823,106.95 24.962,107.404 26.947,108.217 C25.932,102.074 24.596,95.954 22.84,89.866" id="Fill-123" fill="#1A1A1A"></path>
            <g id="Group-126" transform="translate(19.000000, 105.000000)">
                <mask id="mask-2" fill="white">
                    <use xlink:href="#path-1"></use>
                </mask>
                <g id="Clip-125"></g>
                <path d="M7.947,3.217 C5.962,2.404 3.823,1.95 1.957,0.858 C-0.057,21.779 -0.828,42.437 1.564,63.38 C4.125,65.772 7.461,67.436 10.905,68.27 C11.11,46.594 11.51,24.768 7.947,3.217" id="Fill-124" mask="url(#mask-2)"></path>
            </g>
            <path d="M19.168,175.447 C17.412,175.189 15.655,174.864 13.898,174.488 C13.793,174.488 13.689,174.474 13.585,174.452 C13.669,178.051 14.192,200.437 14.192,205.84 C14.192,210.217 14.021,214.077 13.933,215.767 C14.612,216.286 15.213,216.839 15.814,216.639 C17.879,216.025 19.945,215.434 22.01,214.866 C19.852,201.724 18.23,188.854 19.168,175.447" id="Fill-127" fill="#1A75B8"></path>
            <path d="M19.168,175.447 C17.412,175.189 15.655,174.864 13.898,174.488 C13.793,174.488 13.689,174.474 13.585,174.452 C13.669,178.051 14.192,200.437 14.192,205.84 C14.192,210.217 14.021,214.077 13.933,215.767 C14.612,216.286 15.213,216.839 15.814,216.639 C17.879,216.025 19.945,215.434 22.01,214.866 C19.852,201.724 18.23,188.854 19.168,175.447 Z" id="Stroke-128" stroke="#333333"></path>
            <path d="M37.996,176.034 C35.291,176.058 32.586,176.071 29.88,176.078 C29.84,180.987 29.818,185.887 29.865,190.773 C29.865,197.994 31.064,205.215 31.511,212.435 C34.176,211.805 36.842,211.218 39.511,210.683 C39.196,199.122 38.637,187.579 37.996,176.034" id="Fill-129" fill="#0066B0"></path>
            <path d="M37.996,176.034 C35.291,176.058 32.586,176.071 29.88,176.078 C29.84,180.987 29.818,185.887 29.865,190.773 C29.865,197.994 31.064,205.215 31.511,212.435 C34.176,211.805 36.842,211.218 39.511,210.683 C39.196,199.122 38.637,187.579 37.996,176.034 Z" id="Stroke-130" stroke="#333333"></path>
            <path d="M22.01,214.866 C25.176,213.996 28.342,213.185 31.511,212.435 C31.064,205.215 29.865,197.994 29.865,190.773 C29.843,188.502 29.837,186.228 29.84,183.951 C25.958,182.434 22.224,180.317 19.042,177.603 C18.409,190.237 19.968,202.43 22.01,214.866" id="Fill-131"></path>
            <path d="M20.564,168.38 C20.578,168.5 20.59,168.62 20.604,168.74 C20.604,168.74 20.603,168.839 20.444,169.104 C19.806,170.062 19.646,169.698 19.646,170.336 C19.442,172.05 19.287,173.752 19.168,175.447 C19.118,176.167 19.078,176.885 19.042,177.603 C22.224,180.317 25.958,182.434 29.84,183.951 C29.843,181.33 29.858,178.705 29.88,176.078 C29.888,175.142 29.897,174.206 29.905,173.27 C26.461,172.436 23.125,170.772 20.564,168.38" id="Fill-133" fill="#000000"></path>
            <path d="M31.461,271.883 C26.671,260.706 26.991,245.378 25.075,232.925 C24.069,226.799 22.985,220.805 22.01,214.866 C19.945,215.434 17.879,216.025 15.814,216.639 C15.213,216.839 14.612,216.286 13.933,215.767 C13.903,216.348 13.882,216.673 13.882,216.673 C13.882,216.673 13.263,235.244 13.263,243.292 C13.263,251.339 13.882,260.006 15.12,265.268 C16.359,270.529 18.867,275.675 21.311,278.886 C22.521,280.476 24.985,283.329 24.985,283.329 L25.587,283.329 C29.722,279.624 33.798,277.725 31.461,271.883" id="Fill-134" fill="#1A75B8"></path>
            <path d="M31.461,271.883 C26.671,260.706 26.991,245.378 25.075,232.925 C24.069,226.799 22.985,220.805 22.01,214.866 C19.945,215.434 17.879,216.025 15.814,216.639 C15.213,216.839 14.612,216.286 13.933,215.767 C13.903,216.348 13.882,216.673 13.882,216.673 C13.882,216.673 13.263,235.244 13.263,243.292 C13.263,251.339 13.882,260.006 15.12,265.268 C16.359,270.529 18.867,275.675 21.311,278.886 C22.521,280.476 24.985,283.329 24.985,283.329 L25.587,283.329 C29.722,279.624 33.798,277.725 31.461,271.883 Z" id="Stroke-135" stroke="#333333"></path>
            <path d="M31.461,222.387 C30.823,226.219 30.184,230.051 30.503,233.883 C31.781,242.824 33.058,251.126 34.974,260.068 C35.218,261.776 36.582,263.109 38.352,263.786 C40.978,254.63 39.555,243.692 39.764,234.521 C39.831,226.563 39.728,218.619 39.511,210.683 C36.842,211.218 34.176,211.805 31.511,212.435 C31.716,215.752 31.763,219.07 31.461,222.387" id="Fill-136" fill="#0066B0"></path>
            <path d="M31.461,222.387 C30.823,226.219 30.184,230.051 30.503,233.883 C31.781,242.824 33.058,251.126 34.974,260.068 C35.218,261.776 36.582,263.109 38.352,263.786 C40.978,254.63 39.555,243.692 39.764,234.521 C39.831,226.563 39.728,218.619 39.511,210.683 C36.842,211.218 34.176,211.805 31.511,212.435 C31.716,215.752 31.763,219.07 31.461,222.387 Z" id="Stroke-137" stroke="#333333"></path>
            <path d="M31.511,212.435 C28.342,213.185 25.176,213.996 22.01,214.866 C22.331,216.821 22.666,218.786 23.004,220.755 L31.67,218.018 C31.688,216.157 31.626,214.296 31.511,212.435" id="Fill-138" fill="#000000"></path>
            <path d="M30.503,233.883 C30.184,230.051 30.823,226.219 31.461,222.387 C31.594,220.931 31.656,219.475 31.67,218.018 L23.004,220.755 C23.692,224.769 24.4,228.816 25.075,232.925 C26.667,243.274 26.718,255.605 29.438,265.892 L33.094,250.43 C32.123,244.954 31.312,239.546 30.503,233.883" id="Fill-139"></path>
            <path d="M34.974,260.068 C34.272,256.79 33.656,253.599 33.094,250.43 L29.438,265.892 C29.991,267.984 30.652,269.994 31.461,271.883 C31.846,272.844 32.054,273.696 32.119,274.469 C35.286,271.446 37.205,267.786 38.352,263.786 C36.582,263.109 35.218,261.776 34.974,260.068" id="Fill-141" fill="#333333"></path>
            <path d="M29.88,176.078 C32.586,176.071 35.291,176.058 37.996,176.034 C36.981,157.762 35.763,139.487 34.987,121.138 C32.777,121.183 30.658,121.496 28.791,122.744 C30.425,140.479 30.027,158.335 29.88,176.078" id="Fill-142" fill="#0066B0"></path>
            <path d="M29.88,176.078 C32.586,176.071 35.291,176.058 37.996,176.034 C36.981,157.762 35.763,139.487 34.987,121.138 C32.777,121.183 30.658,121.496 28.791,122.744 C30.425,140.479 30.027,158.335 29.88,176.078 Z" id="Stroke-143" stroke="#333333"></path>
            <path d="M32.419,106.79 C31.476,100.727 30.477,94.836 29.492,88.97 C28.158,81.029 26.853,73.134 25.754,64.933 C23.982,65.706 22.232,66.412 20.285,66.235 C21.168,73.596 20.699,80.957 22.373,88.068 C22.514,88.669 22.665,89.268 22.84,89.866 C25.977,100.741 27.775,111.719 28.791,122.744 C30.658,121.496 32.777,121.183 34.987,121.138 C34.983,121.039 34.978,120.94 34.974,120.84 C34.655,116.051 33.058,111.58 32.419,106.79" id="Fill-144" fill="#0066B0"></path>
            <path d="M39.425,5.02 C29.938,8.291 24.292,11.69 23.32,12.296 C23.56,13.692 23.641,15.114 23.553,16.528 C28.973,12.875 34.266,9.034 39.425,5.02" id="Fill-145" fill="#000000"></path>
            <path d="M14.041,151.197 C11.692,153.643 11.479,157.376 11.401,160.766 C11.386,161.425 11.376,162.113 11.66,162.709 C11.843,163.093 12.138,163.414 12.342,163.788 C12.898,164.811 12.7,166.057 12.804,167.217 C12.849,167.724 12.968,168.252 13.311,168.628 C13.654,169.005 14.277,169.163 14.685,168.857 C14.689,166.662 14.693,164.467 14.697,162.272 C13.875,162.404 13.089,161.76 12.772,160.99 C12.455,160.221 12.497,159.357 12.544,158.527 C12.65,156.658 12.952,154.463 14.601,153.577 C14.767,153.488 14.957,153.402 15.034,153.229 C15.113,153.051 15.044,152.846 14.973,152.665 C14.82,152.27 14.661,151.877 14.496,151.486 C14.443,151.36 14.346,151.21 14.213,151.239 C14.08,151.269 14.231,151.529 14.277,151.401" id="Fill-146" fill="#333333"></path>
            <path d="M21.44,92.019 C20.83,91.447 20.18,91.057 19.685,90.76 C19.113,90.417 18.693,90.188 18.693,90.188 C18.858,92.324 17.63,94.662 15.822,95.812 C13.69,97.168 11.259,97.962 8.921,98.921 C6.582,99.88 4.249,101.067 2.612,102.993 C1.16,104.702 0.372,107.114 0.944,109.244 L16.699,104.616 C16.874,104.225 16.971,103.695 16.932,102.958 C17.33,102.808 17.9,102.544 18.298,102.394 C19.258,103.918 19.456,104.039 21.021,104.993 C21.86,99.841 21.784,96.598 21.44,92.019" id="Fill-147" fill="#333333"></path>
            <path d="M1.225,110.039 C5.505,108.725 8.128,107.945 12.408,106.63 C13.204,106.386 14.545,105.989 15.335,105.726 C15.843,105.556 16.392,105.299 16.699,104.616 L0.944,109.244 C1.016,109.514 1.107,109.78 1.225,110.039" id="Fill-148" fill="#000000"></path>
            <path d="M135.937,168.839 C136.096,168.096 135.936,168.74 135.936,168.74 C138.49,146.706 137.532,124.992 135.297,102.958 C134.651,97.793 135.022,92.772 135.527,87.799 C138.104,87.238 140.589,86.404 142.888,85.01 C142.94,93.188 143.352,107.377 143.586,119.795 C143.896,136.199 142.967,173.96 142.967,173.96 C142.967,173.96 142.963,174.134 142.955,174.452 C142.851,174.474 142.747,174.488 142.642,174.488 C140.885,174.864 139.128,175.189 137.372,175.447 C137.253,173.752 137.098,172.05 136.894,170.336 C136.894,169.698 136.414,169.422 135.937,168.839" id="Fill-149" fill="#1A75B8"></path>
            <path d="M135.937,168.839 C136.096,168.096 135.936,168.74 135.936,168.74 C138.49,146.706 137.532,124.992 135.297,102.958 C134.651,97.793 135.022,92.772 135.527,87.799 C138.104,87.238 140.589,86.404 142.888,85.01 C142.94,93.188 143.352,107.377 143.586,119.795 C143.896,136.199 142.967,173.96 142.967,173.96 C142.967,173.96 142.963,174.134 142.955,174.452 C142.851,174.474 142.747,174.488 142.642,174.488 C140.885,174.864 139.128,175.189 137.372,175.447 C137.253,173.752 137.098,172.05 136.894,170.336 C136.894,169.698 136.414,169.422 135.937,168.839 Z" id="Stroke-150" stroke="#333333"></path>
            <path d="M137.84,87.202 C137.261,77.221 135.375,45.376 134.658,41.434 C133.861,37.049 133.997,29.865 131.746,25.473 C135.756,26.257 139.416,28.149 142.061,31.146 C142.927,41.387 143.896,59.083 143.896,63.463 C143.896,68.415 143.277,74.605 142.967,79.248 C142.892,80.376 142.872,82.384 142.888,85.01 C141.286,85.982 139.591,86.677 137.84,87.202" id="Fill-151" fill="#1A75B8"></path>
            <path d="M137.84,87.202 C137.261,77.221 135.375,45.376 134.658,41.434 C133.861,37.049 133.997,29.865 131.746,25.473 C135.756,26.257 139.416,28.149 142.061,31.146 C142.927,41.387 143.896,59.083 143.896,63.463 C143.896,68.415 143.277,74.605 142.967,79.248 C142.892,80.376 142.872,82.384 142.888,85.01 C141.286,85.982 139.591,86.677 137.84,87.202 Z" id="Stroke-152" stroke="#333333"></path>
            <path d="M135.616,52.504 C134.339,38.454 133.618,30.37 127.953,23.445 C125.079,19.933 119.378,16.735 106.877,10.992 C97.69,6.771 84.065,6.218 78.457,6.181 C72.848,6.218 58.85,6.771 49.663,10.992 C37.162,16.735 31.461,19.933 28.587,23.445 C22.922,30.37 22.201,38.454 20.924,52.504 C19.646,66.555 20.285,91.143 20.285,91.143 L23.797,93.698 L21.882,77.731 L21.562,66.555 C21.562,66.555 26.671,34.622 31.461,28.874 C36.251,23.126 46.15,14.504 50.94,13.227 C54.732,12.216 71.705,10.804 78.457,10.26 C85.209,10.804 101.808,12.216 105.6,13.227 C110.39,14.504 120.289,23.126 125.079,28.874 C129.869,34.622 134.978,66.555 134.978,66.555 L134.659,77.731 L132.743,93.698 L136.255,91.143 C136.255,91.143 136.894,66.555 135.616,52.504" id="Fill-153" fill="#000000"></path>
            <path d="M133.701,89.866 C133.875,89.268 134.026,88.669 134.167,88.068 C134.623,87.985 135.077,87.897 135.527,87.799 C135.022,92.772 134.651,97.793 135.297,102.958 C135.395,103.925 135.49,104.892 135.583,105.858 C133.717,106.95 131.578,107.404 129.593,108.217 C130.608,102.074 131.944,95.954 133.701,89.866" id="Fill-154" fill="#1A1A1A"></path>
            <path d="M129.593,108.217 C131.578,107.404 133.717,106.95 135.583,105.858 C137.597,126.779 138.368,147.437 135.976,168.38 C133.415,170.772 130.079,172.436 126.635,173.27 C126.43,151.594 126.03,129.768 129.593,108.217" id="Fill-155"></path>
            <path d="M137.372,175.447 C139.128,175.189 140.885,174.864 142.642,174.488 C142.747,174.488 142.851,174.474 142.955,174.452 C142.871,178.051 142.348,200.437 142.348,205.84 C142.348,210.217 142.519,214.077 142.607,215.767 C141.928,216.286 141.327,216.839 140.726,216.639 C138.661,216.025 136.595,215.434 134.53,214.866 C136.688,201.724 138.31,188.854 137.372,175.447" id="Fill-157" fill="#1A75B8"></path>
            <path d="M137.372,175.447 C139.128,175.189 140.885,174.864 142.642,174.488 C142.747,174.488 142.851,174.474 142.955,174.452 C142.871,178.051 142.348,200.437 142.348,205.84 C142.348,210.217 142.519,214.077 142.607,215.767 C141.928,216.286 141.327,216.839 140.726,216.639 C138.661,216.025 136.595,215.434 134.53,214.866 C136.688,201.724 138.31,188.854 137.372,175.447 Z" id="Stroke-158" stroke="#333333"></path>
            <path d="M118.544,176.034 C121.249,176.058 123.954,176.071 126.66,176.078 C126.7,180.987 126.722,185.887 126.675,190.773 C126.675,197.994 125.476,205.215 125.029,212.435 C122.364,211.805 119.698,211.218 117.029,210.683 C117.344,199.122 117.903,187.579 118.544,176.034" id="Fill-159" fill="#0066B0"></path>
            <path d="M118.544,176.034 C121.249,176.058 123.954,176.071 126.66,176.078 C126.7,180.987 126.722,185.887 126.675,190.773 C126.675,197.994 125.476,205.215 125.029,212.435 C122.364,211.805 119.698,211.218 117.029,210.683 C117.344,199.122 117.903,187.579 118.544,176.034 Z" id="Stroke-160" stroke="#333333"></path>
            <path d="M134.53,214.866 C131.364,213.996 128.198,213.185 125.029,212.435 C125.476,205.215 126.675,197.994 126.675,190.773 C126.697,188.502 126.703,186.228 126.7,183.951 C130.582,182.434 134.316,180.317 137.498,177.603 C138.131,190.237 136.572,202.43 134.53,214.866" id="Fill-161"></path>
            <path d="M135.976,168.38 C135.962,168.5 135.95,168.62 135.936,168.74 C135.936,168.74 135.937,168.839 136.096,169.104 C136.734,170.062 136.894,169.698 136.894,170.336 C137.098,172.05 137.253,173.752 137.372,175.447 C137.422,176.167 137.462,176.885 137.498,177.603 C134.316,180.317 130.582,182.434 126.7,183.951 C126.697,181.33 126.682,178.705 126.66,176.078 C126.652,175.142 126.643,174.206 126.635,173.27 C130.079,172.436 133.415,170.772 135.976,168.38" id="Fill-163" fill="#000000"></path>
            <path d="M125.079,271.883 C129.869,260.706 129.549,245.378 131.465,232.925 C132.471,226.799 133.555,220.805 134.53,214.866 C136.595,215.434 138.661,216.025 140.726,216.639 C141.327,216.839 141.928,216.286 142.607,215.767 C142.637,216.348 142.658,216.673 142.658,216.673 C142.658,216.673 143.277,235.244 143.277,243.292 C143.277,251.339 142.658,260.006 141.42,265.268 C140.181,270.529 137.673,275.675 135.229,278.886 C134.019,280.476 131.555,283.329 131.555,283.329 L130.953,283.329 C126.818,279.624 122.742,277.725 125.079,271.883" id="Fill-164" fill="#1A75B8"></path>
            <path d="M125.079,271.883 C129.869,260.706 129.549,245.378 131.465,232.925 C132.471,226.799 133.555,220.805 134.53,214.866 C136.595,215.434 138.661,216.025 140.726,216.639 C141.327,216.839 141.928,216.286 142.607,215.767 C142.637,216.348 142.658,216.673 142.658,216.673 C142.658,216.673 143.277,235.244 143.277,243.292 C143.277,251.339 142.658,260.006 141.42,265.268 C140.181,270.529 137.673,275.675 135.229,278.886 C134.019,280.476 131.555,283.329 131.555,283.329 L130.953,283.329 C126.818,279.624 122.742,277.725 125.079,271.883 Z" id="Stroke-165" stroke="#333333"></path>
            <path d="M125.079,222.387 C125.717,226.219 126.356,230.051 126.037,233.883 C124.759,242.824 123.482,251.126 121.566,260.068 C121.322,261.776 119.958,263.109 118.188,263.786 C115.562,254.63 116.985,243.692 116.776,234.521 C116.709,226.563 116.812,218.619 117.029,210.683 C119.698,211.218 122.364,211.805 125.029,212.435 C124.824,215.752 124.777,219.07 125.079,222.387" id="Fill-166" fill="#0066B0"></path>
            <path d="M125.079,222.387 C125.717,226.219 126.356,230.051 126.037,233.883 C124.759,242.824 123.482,251.126 121.566,260.068 C121.322,261.776 119.958,263.109 118.188,263.786 C115.562,254.63 116.985,243.692 116.776,234.521 C116.709,226.563 116.812,218.619 117.029,210.683 C119.698,211.218 122.364,211.805 125.029,212.435 C124.824,215.752 124.777,219.07 125.079,222.387 Z" id="Stroke-167" stroke="#333333"></path>
            <path d="M125.029,212.435 C128.198,213.185 131.364,213.996 134.53,214.866 C134.209,216.821 133.874,218.786 133.536,220.755 L124.87,218.018 C124.852,216.157 124.914,214.296 125.029,212.435" id="Fill-168" fill="#000000"></path>
            <path d="M126.037,233.883 C126.356,230.051 125.717,226.219 125.079,222.387 C124.946,220.931 124.884,219.475 124.87,218.018 L133.536,220.755 C132.848,224.769 132.14,228.816 131.465,232.925 C129.873,243.274 129.822,255.605 127.102,265.892 L123.446,250.43 C124.417,244.954 125.228,239.546 126.037,233.883" id="Fill-169"></path>
            <path d="M121.566,260.068 C122.268,256.79 122.884,253.599 123.446,250.43 L127.102,265.892 C126.549,267.984 125.888,269.994 125.079,271.883 C124.694,272.844 124.486,273.696 124.421,274.469 C121.254,271.446 119.335,267.786 118.188,263.786 C119.958,263.109 121.322,261.776 121.566,260.068" id="Fill-171" fill="#333333"></path>
            <path d="M118.186,263.775 C116.64,266.065 113.679,267.213 111.348,267.731 C100.384,270.722 89.42,271.961 78.457,271.3 C67.493,271.961 56.156,270.722 45.192,267.731 C42.861,267.213 39.9,266.065 38.354,263.775 C37.221,267.73 35.334,271.353 32.233,274.358 C40.977,290.489 61.113,290.002 78.457,290.126 C95.8,290.002 115.563,290.489 124.307,274.358 C121.206,271.353 119.32,267.73 118.186,263.775" id="Fill-172"></path>
            <path d="M78.457,119.386 C64.09,119.193 49.349,120.074 34.982,121.013 C35.757,139.404 36.978,157.72 37.996,176.034 C38.637,187.579 39.196,199.122 39.511,210.683 C39.728,218.619 39.831,226.563 39.764,234.521 C39.676,238.408 39.88,242.612 39.944,246.863 C51.703,252.087 65.637,251.448 78.457,251.765 C91.276,251.448 104.837,252.087 116.596,246.863 C116.66,242.612 116.865,238.408 116.776,234.521 C116.709,226.563 116.812,218.619 117.029,210.683 C117.344,199.122 117.903,187.579 118.544,176.034 C119.562,157.72 120.783,139.404 121.558,121.013 C107.191,120.074 92.824,119.193 78.457,119.386" id="Fill-174" fill="#4D94C8"></path>
            <path d="M78.457,119.386 C64.09,119.193 49.349,120.074 34.982,121.013 C35.757,139.404 36.978,157.72 37.996,176.034 C38.637,187.579 39.196,199.122 39.511,210.683 C39.728,218.619 39.831,226.563 39.764,234.521 C39.676,238.408 39.88,242.612 39.944,246.863 C51.703,252.087 65.637,251.448 78.457,251.765 C91.276,251.448 104.837,252.087 116.596,246.863 C116.66,242.612 116.865,238.408 116.776,234.521 C116.709,226.563 116.812,218.619 117.029,210.683 C117.344,199.122 117.903,187.579 118.544,176.034 C119.562,157.72 120.783,139.404 121.558,121.013 C107.191,120.074 92.824,119.193 78.457,119.386 Z" id="Stroke-175" stroke="#333333"></path>
            <path d="M116.596,246.863 C104.837,252.087 91.276,251.288 78.457,251.605 C65.637,251.288 51.703,252.087 39.944,246.863 C40.009,251.127 39.934,255.438 39.282,259.525 C40.723,261.904 42.459,264.104 44.873,265.177 C55.559,269.184 67.064,268.945 78.457,269.321 C89.849,268.945 100.982,269.184 111.667,265.177 C114.081,264.104 115.817,261.904 117.258,259.525 C116.606,255.438 116.531,251.127 116.596,246.863" id="Fill-176" fill="#0066B0"></path>
            <path d="M116.596,246.863 C104.837,252.087 91.276,251.288 78.457,251.605 C65.637,251.288 51.703,252.087 39.944,246.863 C40.009,251.127 39.934,255.438 39.282,259.525 C40.723,261.904 42.459,264.104 44.873,265.177 C55.559,269.184 67.064,268.945 78.457,269.321 C89.849,268.945 100.982,269.184 111.667,265.177 C114.081,264.104 115.817,261.904 117.258,259.525 C116.606,255.438 116.531,251.127 116.596,246.863 Z" id="Stroke-177" stroke="#333333"></path>
            <path d="M117.258,259.525 C115.817,261.904 114.081,264.104 111.667,265.177 C100.982,269.184 89.849,268.945 78.457,269.321 C67.064,268.945 55.559,269.184 44.873,265.177 C42.459,264.104 40.723,261.904 39.282,259.525 C39.051,260.974 38.749,262.395 38.354,263.775 C39.9,266.065 42.861,267.213 45.192,267.731 C56.156,270.722 67.473,271.775 78.457,271.775 C89.44,271.775 100.384,270.722 111.348,267.731 C113.679,267.213 116.64,266.065 118.186,263.775 C117.791,262.395 117.489,260.974 117.258,259.525" id="Fill-178" fill="#000000"></path>
            <path d="M124.421,274.469 C124.382,274.432 124.346,274.395 124.307,274.358 C115.563,290.489 95.8,290.002 78.457,290.126 C61.113,290.002 40.977,290.489 32.233,274.358 C32.194,274.395 32.158,274.432 32.119,274.469 C32.453,278.397 29.042,280.233 25.587,283.329 L26.281,283.329 L29.913,288.646 C29.913,288.646 34.452,290.851 39.51,291.629 C44.567,292.407 56.888,294.352 62.853,294.612 C66.765,294.782 74.116,294.952 78.457,295.049 C82.798,294.952 89.775,294.782 93.687,294.612 C99.652,294.352 111.973,292.407 117.03,291.629 C122.088,290.851 126.627,288.646 126.627,288.646 L130.259,283.329 L130.953,283.329 C127.498,280.233 124.087,278.397 124.421,274.469" id="Fill-179" fill="#1A75B8"></path>
            <path d="M124.421,274.469 C124.382,274.432 124.346,274.395 124.307,274.358 C115.563,290.489 95.8,290.002 78.457,290.126 C61.113,290.002 40.977,290.489 32.233,274.358 C32.194,274.395 32.158,274.432 32.119,274.469 C32.453,278.397 29.042,280.233 25.587,283.329 L26.281,283.329 L29.913,288.646 C29.913,288.646 34.452,290.851 39.51,291.629 C44.567,292.407 56.888,294.352 62.853,294.612 C66.765,294.782 74.116,294.952 78.457,295.049 C82.798,294.952 89.775,294.782 93.687,294.612 C99.652,294.352 111.973,292.407 117.03,291.629 C122.088,290.851 126.627,288.646 126.627,288.646 L130.259,283.329 L130.953,283.329 C127.498,280.233 124.087,278.397 124.421,274.469 Z" id="Stroke-180" stroke="#333333"></path>
            <path d="M126.66,176.078 C123.954,176.071 121.249,176.058 118.544,176.034 C119.559,157.762 120.777,139.487 121.553,121.138 C123.763,121.183 125.882,121.496 127.749,122.744 C126.115,140.479 126.513,158.335 126.66,176.078" id="Fill-181" fill="#0066B0"></path>
            <path d="M126.66,176.078 C123.954,176.071 121.249,176.058 118.544,176.034 C119.559,157.762 120.777,139.487 121.553,121.138 C123.763,121.183 125.882,121.496 127.749,122.744 C126.115,140.479 126.513,158.335 126.66,176.078 Z" id="Stroke-182" stroke="#333333"></path>
            <path d="M124.121,106.79 C125.064,100.727 126.063,94.836 127.048,88.97 C128.382,81.029 129.687,73.134 130.786,64.933 C132.558,65.706 134.308,66.412 136.255,66.235 C135.372,73.596 135.841,80.957 134.167,88.068 C134.026,88.669 133.875,89.268 133.701,89.866 C130.563,100.741 128.765,111.719 127.749,122.744 C125.882,121.496 123.763,121.183 121.553,121.138 C121.557,121.039 121.562,120.94 121.566,120.84 C121.885,116.051 123.482,111.58 124.121,106.79" id="Fill-183" fill="#0066B0"></path>
            <path d="M128.272,55.698 C127.314,53.782 123.801,50.588 120.608,49.311 C117.415,48.034 102.726,42.605 89.314,41.966 C84.275,41.726 80.815,41.622 78.457,41.585 C76.099,41.622 72.265,41.726 67.226,41.966 C53.814,42.605 39.125,48.034 35.932,49.311 C32.739,50.588 29.226,53.782 28.268,55.698 C27.31,57.614 25.075,64.958 25.075,64.958 L34.016,121.16 C34.016,121.16 45.512,120.202 59.882,119.882 C67.912,119.704 74.518,119.725 78.457,119.778 C82.395,119.725 88.628,119.704 96.658,119.882 C111.028,120.202 122.524,121.16 122.524,121.16 L131.465,64.958 C131.465,64.958 129.23,57.614 128.272,55.698" id="Fill-184" fill="#595959"></path>
            <path d="M125.079,63.042 C121.566,59.849 110.07,55.378 99.852,53.462 C92.606,52.104 83.274,52.03 78.457,52.101 C73.64,52.03 63.934,52.104 56.688,53.462 C46.47,55.378 34.974,59.849 31.461,63.042 C27.949,66.235 27.31,68.151 27.629,71.983 C27.949,75.815 34.974,112.219 35.293,113.815 C35.613,115.412 35.293,117.647 40.722,117.009 C46.15,116.37 57.327,115.412 62.436,115.412 C67.545,115.412 72.655,115.731 72.655,115.731 C72.655,115.731 74.251,115.412 74.251,113.815 C74.251,112.506 74.681,106.476 74.835,104.345 C74.866,103.922 75.218,103.597 75.642,103.597 L80.898,103.597 C81.322,103.597 81.674,103.922 81.705,104.345 C81.859,106.476 82.289,112.506 82.289,113.815 C82.289,115.412 83.885,115.731 83.885,115.731 C83.885,115.731 88.995,115.412 94.104,115.412 C99.213,115.412 110.39,116.37 115.818,117.009 C121.247,117.647 120.927,115.412 121.247,113.815 C121.566,112.219 128.591,75.815 128.911,71.983 C129.23,68.151 128.591,66.235 125.079,63.042" id="Fill-185"></path>
            <path d="M117.115,5.02 C126.602,8.291 132.248,11.69 133.22,12.296 C132.98,13.692 132.899,15.114 132.987,16.528 C127.567,12.875 122.274,9.034 117.115,5.02" id="Fill-187" fill="#000000"></path>
            <path d="M142.499,151.197 C144.848,153.643 145.061,157.376 145.139,160.766 C145.154,161.425 145.164,162.113 144.88,162.709 C144.697,163.093 144.402,163.414 144.198,163.788 C143.642,164.811 143.84,166.057 143.736,167.217 C143.691,167.724 143.572,168.252 143.229,168.628 C142.886,169.005 142.263,169.163 141.855,168.857 C141.851,166.662 141.847,164.467 141.843,162.272 C142.665,162.404 143.451,161.76 143.768,160.99 C144.085,160.221 144.043,159.357 143.996,158.527 C143.89,156.658 143.588,154.463 141.939,153.577 C141.773,153.488 141.583,153.402 141.506,153.229 C141.427,153.051 141.496,152.846 141.567,152.665 C141.72,152.27 141.879,151.877 142.044,151.486 C142.097,151.36 142.194,151.21 142.327,151.239 C142.46,151.269 142.309,151.529 142.263,151.401" id="Fill-188" fill="#333333"></path>
            <path d="M135.1,92.019 C135.71,91.447 136.36,91.057 136.855,90.76 C137.427,90.417 137.847,90.188 137.847,90.188 C137.682,92.324 138.91,94.662 140.718,95.812 C142.85,97.168 145.281,97.962 147.619,98.921 C149.958,99.88 152.291,101.067 153.928,102.993 C155.38,104.702 156.168,107.114 155.596,109.244 L139.841,104.616 C139.666,104.225 139.569,103.695 139.608,102.958 C139.21,102.808 138.64,102.544 138.242,102.394 C137.282,103.918 137.084,104.039 135.519,104.993 C134.68,99.841 134.756,96.598 135.1,92.019" id="Fill-189" fill="#333333"></path>
            <path d="M155.315,110.039 C151.035,108.725 148.412,107.945 144.132,106.63 C143.336,106.386 141.995,105.989 141.205,105.726 C140.697,105.556 140.148,105.299 139.841,104.616 L155.596,109.244 C155.524,109.514 155.433,109.78 155.315,110.039" id="Fill-190" fill="#000000"></path>
            <path d="M134.659,41.434 C133.807,36.751 134.02,28.874 131.252,24.616 C128.485,20.359 122.311,14.398 115.286,11.417 C108.261,8.437 99.532,7.16 93.997,6.734 C90.4,6.457 83.116,6.09 78.457,5.868 C73.798,6.09 66.14,6.457 62.543,6.734 C57.008,7.16 48.279,8.437 41.254,11.417 C34.229,14.398 28.055,20.359 25.288,24.616 C22.52,28.874 22.733,36.751 21.882,41.434 C21.03,46.118 18.529,90.185 18.529,90.185 L23.797,93.698 L27.904,93.705 C22.295,79.067 18.175,60.806 31.142,49.95 C44.13,38.817 61.673,37.145 78.457,36.351 C95.24,37.145 112.41,38.817 125.398,49.95 C138.365,60.806 134.245,79.067 128.636,93.705 L132.743,93.698 L138.011,90.185 C138.011,90.185 135.51,46.118 134.659,41.434" id="Fill-191" fill="#0066B0"></path>
            <path d="M133.971,66.555 C133.971,66.555 129.264,36.159 127.314,30.79 C123.609,20.591 106.877,10.992 106.877,10.992 C106.877,10.992 106.558,11.95 102.726,11.63 C98.894,11.311 84.524,9.395 84.524,9.395 C84.524,9.395 81.969,9.076 81.331,8.118 C80.692,7.16 80.271,6.682 80.271,6.682 L76.269,6.682 C76.269,6.682 75.848,7.16 75.209,8.118 C74.571,9.076 72.016,9.395 72.016,9.395 C72.016,9.395 57.646,11.311 53.814,11.63 C49.982,11.95 49.663,10.992 49.663,10.992 C49.663,10.992 32.931,20.591 29.226,30.79 C27.276,36.159 22.569,66.555 22.569,66.555 L25.185,65.649 L25.075,64.958 C25.075,64.958 27.31,57.614 28.268,55.698 C29.226,53.782 32.739,50.588 35.932,49.311 C39.125,48.034 53.814,42.605 67.226,41.966 C72.265,41.726 76.099,41.622 78.457,41.585 C80.815,41.622 84.275,41.726 89.314,41.966 C102.726,42.605 117.415,48.034 120.608,49.311 C123.801,50.588 127.314,53.782 128.272,55.698 C129.23,57.614 131.465,64.958 131.465,64.958 L131.355,65.649 L133.971,66.555" id="Fill-192" fill="#3384C0"></path>
            <path d="M81.101,13.271 C81.101,14.969 79.724,16.345 78.026,16.345 C76.328,16.345 74.952,14.969 74.952,13.271 C74.952,11.573 76.328,10.196 78.026,10.196 C79.724,10.196 81.101,11.573 81.101,13.271" id="Fill-193" fill="#0066B0"></path>
        </g>
    </g>
</svg>