<?xml version="1.0" encoding="UTF-8"?>
<svg width="151px" height="304px" viewBox="0 0 151 304" version="1.1" xmlns="http://www.w3.org/2000/svg" xmlns:xlink="http://www.w3.org/1999/xlink">
    <!-- Generator: Sketch 46.2 (44496) - http://www.bohemiancoding.com/sketch -->
    <title>car3</title>
    <desc>Created with Sketch.</desc>
    <defs>
        <path d="M6.23769988,0.351244898 C6.12434702,0.351244866 6.045,0.383 6.045,0.383 L0.988,0.577 C0.988,0.577 0.016,1.55 2.155,16.331 C2.695,20.061 4.605,28.938 5.61,33.52 C5.65581954,33.7294608 5.82361765,33.8291845 5.99166765,33.8291874 L5.99168261,33.8291874 C6.18305726,33.829184 6.37475389,33.6998574 6.387,33.456 C6.518,30.859 6.706,27.079 6.823,24.5 C7.017,20.221 7.017,3.884 7.017,1.939 C7.017,0.549714581 6.52108184,0.351244982 6.23769989,0.351244898 L6.23769979,0.351244898 L6.23769988,0.351244898 Z" id="path-1"></path>
    </defs>
    <g id="Page-1" stroke="none" stroke-width="1" fill="none" fill-rule="evenodd">
        <g id="car3" transform="translate(1.000000, 0.000000)">
            <g id="Group-303" transform="translate(7.000000, 0.000000)">
                <path d="M67.905,302.929 C67.862,302.929 67.819,302.928 67.905,302.928 C67.991,302.928 67.948,302.929 67.905,302.929 Z M133.929,187.992 C133.929,178.05 131.821,127.031 131.401,110.973 C131.082,98.776 130.845,90.607 130.845,90.607 C130.845,90.607 133.384,89.084 133.892,86.544 C134.4,84.004 134.908,75.369 134.908,71.813 C134.908,69.773 134.407,58.368 133.979,49.016 C125.612,32.176 110.408,20.94 98.341,5.938 C97.569,4.909 96.699,3.929 95.806,2.96 C94.673,2.695 93.488,2.447 92.241,2.225 C82.889,0.555 73.364,0.422 67.905,0.527 C62.446,0.422 52.386,0.555 43.035,2.225 C41.788,2.447 40.602,2.695 39.469,2.96 C38.576,3.929 37.706,4.909 36.934,5.938 C24.868,20.94 9.663,32.176 1.296,49.016 C0.869,58.368 0.367,69.773 0.367,71.813 C0.367,75.369 0.875,84.004 1.383,86.544 C1.891,89.084 4.431,90.607 4.431,90.607 C4.431,90.607 4.194,98.776 3.874,110.973 C3.454,127.031 1.346,178.05 1.346,187.992 C1.346,194.605 4.431,206.419 4.431,206.419 L0.367,223.182 L0.875,264.833 C0.875,264.833 4.431,274.992 11.034,284.643 C17.637,294.294 28.701,297.075 38.494,299.63 C47.424,301.96 61.25,302.926 67.867,302.929 C67.852,302.929 67.853,302.929 67.905,302.929 C67.957,302.929 67.958,302.929 67.943,302.929 C74.558,302.926 87.851,301.96 96.781,299.63 C106.574,297.075 117.638,294.294 124.241,284.643 C130.845,274.992 134.4,264.833 134.4,264.833 L134.908,223.182 L130.845,206.419 C130.845,206.419 133.929,194.605 133.929,187.992 L133.929,187.992 Z" id="Fill-300" fill="#FEF673"></path>
                <path d="M67.905,302.929 C67.862,302.929 67.819,302.928 67.905,302.928 C67.991,302.928 67.948,302.929 67.905,302.929 Z M133.929,187.992 C133.929,178.05 131.821,127.031 131.401,110.973 C131.082,98.776 130.845,90.607 130.845,90.607 C130.845,90.607 133.384,89.084 133.892,86.544 C134.4,84.004 134.908,75.369 134.908,71.813 C134.908,69.773 134.407,58.368 133.979,49.016 C125.612,32.176 110.408,20.94 98.341,5.938 C97.569,4.909 96.699,3.929 95.806,2.96 C94.673,2.695 93.488,2.447 92.241,2.225 C82.889,0.555 73.364,0.422 67.905,0.527 C62.446,0.422 52.386,0.555 43.035,2.225 C41.788,2.447 40.602,2.695 39.469,2.96 C38.576,3.929 37.706,4.909 36.934,5.938 C24.868,20.94 9.663,32.176 1.296,49.016 C0.869,58.368 0.367,69.773 0.367,71.813 C0.367,75.369 0.875,84.004 1.383,86.544 C1.891,89.084 4.431,90.607 4.431,90.607 C4.431,90.607 4.194,98.776 3.874,110.973 C3.454,127.031 1.346,178.05 1.346,187.992 C1.346,194.605 4.431,206.419 4.431,206.419 L0.367,223.182 L0.875,264.833 C0.875,264.833 4.431,274.992 11.034,284.643 C17.637,294.294 28.701,297.075 38.494,299.63 C47.424,301.96 61.25,302.926 67.867,302.929 C67.852,302.929 67.853,302.929 67.905,302.929 C67.957,302.929 67.958,302.929 67.943,302.929 C74.558,302.926 87.851,301.96 96.781,299.63 C106.574,297.075 117.638,294.294 124.241,284.643 C130.845,274.992 134.4,264.833 134.4,264.833 L134.908,223.182 L130.845,206.419 C130.845,206.419 133.929,194.605 133.929,187.992 Z" id="Stroke-302" stroke="#000000" stroke-width="0.25"></path>
            </g>
            <path d="M74.905,302.929 C74.862,302.929 74.819,302.928 74.905,302.928 C74.991,302.928 74.948,302.929 74.905,302.929 Z M140.929,187.992 C140.929,178.05 138.821,127.031 138.401,110.973 C138.082,98.776 137.845,90.607 137.845,90.607 C137.845,90.607 140.384,89.084 140.892,86.544 C141.4,84.004 141.908,75.369 141.908,71.813 C141.908,69.773 141.407,58.368 140.979,49.016 C132.612,32.176 117.408,20.94 105.341,5.938 C104.569,4.909 103.699,3.929 102.806,2.96 C101.673,2.695 100.488,2.447 99.241,2.225 C89.889,0.555 80.364,0.422 74.905,0.527 C69.446,0.422 59.386,0.555 50.035,2.225 C48.788,2.447 47.602,2.695 46.469,2.96 C45.576,3.929 44.706,4.909 43.934,5.938 C31.868,20.94 16.663,32.176 8.296,49.016 C7.869,58.368 7.367,69.773 7.367,71.813 C7.367,75.369 7.875,84.004 8.383,86.544 C8.891,89.084 11.431,90.607 11.431,90.607 C11.431,90.607 11.194,98.776 10.874,110.973 C10.454,127.031 8.346,178.05 8.346,187.992 C8.346,194.605 11.431,206.419 11.431,206.419 L7.367,223.182 L7.875,264.833 C7.875,264.833 11.431,274.992 18.034,284.643 C24.637,294.294 35.701,297.075 45.494,299.63 C54.424,301.96 68.25,302.926 74.867,302.929 C74.852,302.929 74.853,302.929 74.905,302.929 C74.957,302.929 74.958,302.929 74.943,302.929 C81.558,302.926 94.851,301.96 103.781,299.63 C113.574,297.075 124.638,294.294 131.241,284.643 C137.845,274.992 141.4,264.833 141.4,264.833 L141.908,223.182 L137.845,206.419 C137.845,206.419 140.929,194.605 140.929,187.992 L140.929,187.992 Z" id="Fill-304" fill="#78AD2C"></path>
            <path d="M74.905,302.929 C74.862,302.929 74.819,302.928 74.905,302.928 C74.991,302.928 74.948,302.929 74.905,302.929 Z M140.929,187.992 C140.929,178.05 138.821,127.031 138.401,110.973 C138.082,98.776 137.845,90.607 137.845,90.607 C137.845,90.607 140.384,89.084 140.892,86.544 C141.4,84.004 141.908,75.369 141.908,71.813 C141.908,69.773 141.407,58.368 140.979,49.016 C132.612,32.176 117.408,20.94 105.341,5.938 C104.569,4.909 103.699,3.929 102.806,2.96 C101.673,2.695 100.488,2.447 99.241,2.225 C89.889,0.555 80.364,0.422 74.905,0.527 C69.446,0.422 59.386,0.555 50.035,2.225 C48.788,2.447 47.602,2.695 46.469,2.96 C45.576,3.929 44.706,4.909 43.934,5.938 C31.868,20.94 16.663,32.176 8.296,49.016 C7.869,58.368 7.367,69.773 7.367,71.813 C7.367,75.369 7.875,84.004 8.383,86.544 C8.891,89.084 11.431,90.607 11.431,90.607 C11.431,90.607 11.194,98.776 10.874,110.973 C10.454,127.031 8.346,178.05 8.346,187.992 C8.346,194.605 11.431,206.419 11.431,206.419 L7.367,223.182 L7.875,264.833 C7.875,264.833 11.431,274.992 18.034,284.643 C24.637,294.294 35.701,297.075 45.494,299.63 C54.424,301.96 68.25,302.926 74.867,302.929 C74.852,302.929 74.853,302.929 74.905,302.929 C74.957,302.929 74.958,302.929 74.943,302.929 C81.558,302.926 94.851,301.96 103.781,299.63 C113.574,297.075 124.638,294.294 131.241,284.643 C137.845,274.992 141.4,264.833 141.4,264.833 L141.908,223.182 L137.845,206.419 C137.845,206.419 140.929,194.605 140.929,187.992 Z M18.849,197.717 C18.849,197.717 18.92,198.709 19.045,200.383 C18.999,199.48 18.963,198.605 18.935,197.771 L18.849,197.717 Z" id="Stroke-305" stroke="#000000" stroke-width="0.25"></path>
            <path d="M18.036,182.652 C18.407,187.083 18.849,190.326 18.849,190.326 L27.99,190.909 C27.99,190.909 28.06,187.967 28.155,183.792 L18.036,182.652" id="Fill-307" fill="#333333"></path>
            <path d="M18.036,182.652 C18.407,187.083 18.849,190.326 18.849,190.326 L27.99,190.909 C27.99,190.909 28.06,187.967 28.155,183.792 L18.036,182.652 Z" id="Stroke-308" stroke="#000000"></path>
            <path d="M11.153,189.148 C10.15,166.392 12.035,143.646 10.559,121.037 C9.868,141.316 8.48,176.266 8.355,186.67" id="Fill-309" fill="#78AD2C"></path>
            <path d="M11.153,189.148 C10.15,166.392 12.035,143.646 10.559,121.037 C9.868,141.316 8.48,176.266 8.355,186.67" id="Stroke-310" stroke="#000000" stroke-width="0.25"></path>
            <path d="M18.036,182.652 C17.98,181.992 17.927,181.307 17.876,180.601 C17.487,175.156 17.098,90.357 17.098,90.357 L17.279,86.39 C17.274,86.37 17.269,86.349 17.265,86.329 C16.816,84.45 16.022,82.24 14.132,81.837 C13.077,81.611 12.005,82.055 11.017,82.488 C10.018,82.926 8.986,83.4 8.04,83.971 C8.15,85.058 8.267,85.962 8.383,86.544 C8.891,89.084 11.431,90.607 11.431,90.607 C11.431,90.607 11.194,98.776 10.874,110.973 C10.807,113.538 10.697,116.998 10.559,121.037 C12.035,143.646 10.15,166.392 11.153,189.148 C11.655,189.393 12.182,189.587 12.722,189.711 C14.699,190.165 16.773,189.876 18.712,189.248 C18.552,187.944 18.279,185.557 18.036,182.652" id="Fill-311" fill="#78AD2C"></path>
            <path d="M18.036,182.652 C17.98,181.992 17.927,181.307 17.876,180.601 C17.487,175.156 17.098,90.357 17.098,90.357 L17.279,86.39 C17.274,86.37 17.269,86.349 17.265,86.329 C16.816,84.45 16.022,82.24 14.132,81.837 C13.077,81.611 12.005,82.055 11.017,82.488 C10.018,82.926 8.986,83.4 8.04,83.971 C8.15,85.058 8.267,85.962 8.383,86.544 C8.891,89.084 11.431,90.607 11.431,90.607 C11.431,90.607 11.194,98.776 10.874,110.973 C10.807,113.538 10.697,116.998 10.559,121.037 C12.035,143.646 10.15,166.392 11.153,189.148 C11.655,189.393 12.182,189.587 12.722,189.711 C14.699,190.165 16.773,189.876 18.712,189.248 C18.552,187.944 18.279,185.557 18.036,182.652 Z" id="Stroke-312" stroke="#000000" stroke-width="0.25"></path>
            <path d="M46.469,2.96 C34.677,5.726 28.724,10.455 25.145,13.4 C24.094,14.264 23.053,15.269 22.035,16.364 C17.388,23.053 13.835,29.814 14.472,37.771 C14.628,37.927 14.858,38.01 15.126,38.055 C23.573,26.745 34.676,17.449 43.934,5.938 C44.706,4.909 45.576,3.929 46.469,2.96" id="Fill-313"></path>
            <path d="M46.469,2.96 C34.677,5.726 28.724,10.455 25.145,13.4 C24.094,14.264 23.053,15.269 22.035,16.364 C17.388,23.053 13.835,29.814 14.472,37.771 C14.628,37.927 14.858,38.01 15.126,38.055 C23.573,26.745 34.676,17.449 43.934,5.938 C44.706,4.909 45.576,3.929 46.469,2.96 Z" id="Stroke-315" stroke="#000000"></path>
            <path d="M22.035,16.364 C14.882,24.06 8.891,36.257 8.891,36.257 C8.891,36.257 8.614,42.07 8.296,49.016 C10.243,45.098 12.564,41.485 15.126,38.055 C14.858,38.01 14.628,37.927 14.472,37.771 C13.835,29.814 17.388,23.053 22.035,16.364" id="Fill-317" fill="#9AC261"></path>
            <path d="M22.035,16.364 C14.882,24.06 8.891,36.257 8.891,36.257 C8.891,36.257 8.614,42.07 8.296,49.016 C10.243,45.098 12.564,41.485 15.126,38.055 C14.858,38.01 14.628,37.927 14.472,37.771 C13.835,29.814 17.388,23.053 22.035,16.364 Z" id="Stroke-318" stroke="#000000" stroke-width="0.25"></path>
            <path d="M24.1,92.691 C24.1,92.691 22.933,87.829 22.933,84.717 C22.933,81.605 22.738,78.104 22.738,78.104 L21.572,77.715 C21.572,77.715 19.627,75.771 18.849,67.796 C18.213,61.278 19.396,39.815 19.849,32.196 C15.402,37.354 11.383,42.803 8.296,49.016 C7.869,58.368 7.367,69.773 7.367,71.813 C7.367,75.369 7.875,84.004 8.383,86.544 C8.891,89.084 11.431,90.607 11.431,90.607 C11.431,90.607 11.416,90.839 11.39,91.273 C12.067,90.841 12.823,90.44 13.403,90.357 C14.764,90.163 17.098,90.357 17.098,90.357 L17.293,86.079 C17.293,86.079 17.682,83.745 18.46,85.106 C19.238,86.468 20.599,95.22 20.599,95.22 L24.1,92.691" id="Fill-319" fill="#86B541"></path>
            <path d="M24.1,92.691 C24.1,92.691 22.933,87.829 22.933,84.717 C22.933,81.605 22.738,78.104 22.738,78.104 L21.572,77.715 C21.572,77.715 19.627,75.771 18.849,67.796 C18.213,61.278 19.396,39.815 19.849,32.196 C15.402,37.354 11.383,42.803 8.296,49.016 C7.869,58.368 7.367,69.773 7.367,71.813 C7.367,75.369 7.875,84.004 8.383,86.544 C8.891,89.084 11.431,90.607 11.431,90.607 C11.431,90.607 11.416,90.839 11.39,91.273 C12.067,90.841 12.823,90.44 13.403,90.357 C14.764,90.163 17.098,90.357 17.098,90.357 L17.293,86.079 C17.293,86.079 17.682,83.745 18.46,85.106 C19.238,86.468 20.599,95.22 20.599,95.22 L24.1,92.691 Z" id="Stroke-320" stroke="#000000" stroke-width="0.25"></path>
            <path d="M30.258,73.473 C25.759,76.003 22.738,78.104 22.738,78.104 C22.738,78.104 22.933,81.605 22.933,84.717 C22.933,87.829 24.1,92.691 24.1,92.691 L24.106,92.724 C24.369,92.668 24.651,92.632 24.97,92.632 C24.673,85.801 27.502,79.491 30.258,73.473" id="Fill-321" fill="#000000"></path>
            <path d="M30.258,73.473 C25.759,76.003 22.738,78.104 22.738,78.104 C22.738,78.104 22.933,81.605 22.933,84.717 C22.933,87.829 24.1,92.691 24.1,92.691 L24.106,92.724 C24.369,92.668 24.651,92.632 24.97,92.632 C24.673,85.801 27.502,79.491 30.258,73.473 Z" id="Stroke-322" stroke="#000000"></path>
            <path d="M28.573,164.264 C28.768,153.956 28.184,140.731 27.601,135.09 C27.017,129.45 20.599,95.22 20.599,95.22 C20.599,95.22 19.238,86.468 18.46,85.106 C17.682,83.745 17.293,86.079 17.293,86.079 L17.098,90.357 C17.098,90.357 17.487,175.156 17.876,180.601 C17.927,181.307 17.98,181.992 18.036,182.652 L28.155,183.792 C28.285,178.129 28.461,170.198 28.573,164.264" id="Fill-323" fill="#000000"></path>
            <path d="M28.573,164.264 C28.768,153.956 28.184,140.731 27.601,135.09 C27.017,129.45 20.599,95.22 20.599,95.22 C20.599,95.22 19.238,86.468 18.46,85.106 C17.682,83.745 17.293,86.079 17.293,86.079 L17.098,90.357 C17.098,90.357 17.487,175.156 17.876,180.601 C17.927,181.307 17.98,181.992 18.036,182.652 L28.155,183.792 C28.285,178.129 28.461,170.198 28.573,164.264 Z" id="Stroke-324" stroke="#000000"></path>
            <path d="M27.051,183.668 C27.115,178.942 27.261,168.872 27.406,163.486 C27.601,156.29 26.434,137.619 26.045,133.534 C25.656,129.45 21.961,108.251 21.961,108.251 L18.654,108.64 L19.216,182.785 L27.051,183.668" id="Fill-325"></path>
            <path d="M27.051,183.668 C27.115,178.942 27.261,168.872 27.406,163.486 C27.601,156.29 26.434,137.619 26.045,133.534 C25.656,129.45 21.961,108.251 21.961,108.251 L18.654,108.64 L19.216,182.785 L27.051,183.668 Z" id="Stroke-327" stroke="#000000"></path>
            <path d="M10.799,209.024 L7.367,223.182 L7.82,260.304 C8.869,262.981 10.38,265.393 12.116,267.715 C11.35,239.222 10.965,220.827 10.799,209.024" id="Fill-328" fill="#86B541"></path>
            <path d="M10.799,209.024 L7.367,223.182 L7.82,260.304 C8.869,262.981 10.38,265.393 12.116,267.715 C11.35,239.222 10.965,220.827 10.799,209.024 Z" id="Stroke-329" stroke="#000000" stroke-width="0.25"></path>
            <path d="M7.82,260.304 L7.875,264.833 C7.875,264.833 9.402,269.195 12.312,274.917 C12.244,272.444 12.179,270.05 12.116,267.715 C10.38,265.393 8.869,262.981 7.82,260.304" id="Fill-330" fill="#86B541"></path>
            <path d="M7.82,260.304 L7.875,264.833 C7.875,264.833 9.402,269.195 12.312,274.917 C12.244,272.444 12.179,270.05 12.116,267.715 C10.38,265.393 8.869,262.981 7.82,260.304 Z" id="Stroke-331" stroke="#000000" stroke-width="0.25"></path>
            <path d="M10.872,188.833 L11.153,189.148 C11.153,189.148 11.001,187.78 10.872,188.833" id="Fill-332" fill="#FEF566"></path>
            <path d="M10.872,188.833 L11.153,189.148 C11.153,189.148 11.001,187.78 10.872,188.833 Z" id="Stroke-333" stroke="#000000" stroke-width="0.25"></path>
            <path d="M8.346,187.992 C8.346,192.569 9.823,199.634 10.733,203.553 C10.633,193.483 10.741,189.904 10.872,188.833 L8.364,186.017 C8.353,186.786 8.346,187.453 8.346,187.992" id="Fill-334" fill="#78AD2C"></path>
            <path d="M8.346,187.992 C8.346,192.569 9.823,199.634 10.733,203.553 C10.633,193.483 10.741,189.904 10.872,188.833 L8.364,186.017 C8.353,186.786 8.346,187.453 8.346,187.992 Z" id="Stroke-335" stroke="#000000" stroke-width="0.25"></path>
            <path d="M18.849,190.326 C18.849,190.326 18.654,200.634 19.821,209.192 C20.988,217.749 27.017,241.088 27.017,241.088 L27.99,190.909 L18.849,190.326" id="Fill-336" fill="#000000"></path>
            <path d="M18.849,190.326 C18.849,190.326 18.654,200.634 19.821,209.192 C20.988,217.749 27.017,241.088 27.017,241.088 L27.99,190.909 L18.849,190.326 Z" id="Stroke-337" stroke="#000000"></path>
            <path d="M18.935,197.771 L18.849,197.717 C18.849,197.717 18.92,198.709 19.045,200.383 C18.999,199.48 18.963,198.605 18.935,197.771 Z" id="Stroke-338" stroke="#000000" stroke-width="0.25"></path>
            <g id="Group-341" transform="translate(20.000000, 195.000000)">
                <mask id="mask-2" fill="white">
                    <use xlink:href="#path-1"></use>
                </mask>
                <g id="Clip-340"></g>
                <path d="M0.988,0.577 L6.045,0.383 C6.045,0.383 7.017,-0.006 7.017,1.939 C7.017,3.884 7.017,20.221 6.823,24.5 C6.706,27.079 6.518,30.859 6.387,33.456 C6.364,33.914 5.708,33.968 5.61,33.52 C4.605,28.938 2.695,20.061 2.155,16.331 C0.016,1.55 0.988,0.577 0.988,0.577" id="Fill-339" mask="url(#mask-2)"></path>
            </g>
            <path d="M20.988,195.577 L26.045,195.383 C26.045,195.383 27.017,194.994 27.017,196.939 C27.017,198.884 27.017,215.221 26.823,219.5 C26.706,222.079 26.518,225.859 26.387,228.456 C26.364,228.914 25.708,228.968 25.61,228.52 C24.605,223.938 22.695,215.061 22.155,211.331 C20.016,196.55 20.988,195.577 20.988,195.577 Z" id="Stroke-342" stroke="#000000"></path>
            <path d="M14.641,263.48 C14.641,263.48 16.335,261.279 17.181,261.787 C18.028,262.295 19.044,265.004 21.414,268.729 C23.785,272.454 36.315,289.725 36.315,289.725 C36.315,289.725 27.341,287.016 23.108,283.46 C18.874,279.905 16.165,273.978 15.657,269.915 C15.149,265.851 14.641,263.48 14.641,263.48" id="Fill-343" fill="#BF0411"></path>
            <path d="M14.641,263.48 C14.641,263.48 16.335,261.279 17.181,261.787 C18.028,262.295 19.044,265.004 21.414,268.729 C23.785,272.454 36.315,289.725 36.315,289.725 C36.315,289.725 27.341,287.016 23.108,283.46 C18.874,279.905 16.165,273.978 15.657,269.915 C15.149,265.851 14.641,263.48 14.641,263.48 Z" id="Stroke-344" stroke="#000000"></path>
            <path d="M124.305,92.632 C124.602,85.801 121.773,79.491 119.017,73.473 C114.603,70.991 108.765,68.095 102.954,66.364 C91.221,62.869 74.905,63.618 74.905,63.618 C74.905,63.618 58.054,62.869 46.321,66.364 C40.51,68.095 34.673,70.991 30.258,73.473 C27.502,79.491 24.673,85.801 24.97,92.632 C24.651,92.632 24.369,92.668 24.106,92.724 L31.343,132.266 C31.343,132.266 47.07,130.02 57.305,129.77 C67.54,129.52 74.905,129.77 74.905,129.77 C74.905,129.77 81.736,129.52 91.97,129.77 C102.205,130.02 117.932,132.266 117.932,132.266 L125.169,92.724 C124.907,92.668 124.624,92.632 124.305,92.632" id="Fill-345" fill="#333333"></path>
            <path d="M124.305,92.632 C124.602,85.801 121.773,79.491 119.017,73.473 C114.603,70.991 108.765,68.095 102.954,66.364 C91.221,62.869 74.905,63.618 74.905,63.618 C74.905,63.618 58.054,62.869 46.321,66.364 C40.51,68.095 34.673,70.991 30.258,73.473 C27.502,79.491 24.673,85.801 24.97,92.632 C24.651,92.632 24.369,92.668 24.106,92.724 L31.343,132.266 C31.343,132.266 47.07,130.02 57.305,129.77 C67.54,129.52 74.905,129.77 74.905,129.77 C74.905,129.77 81.736,129.52 91.97,129.77 C102.205,130.02 117.932,132.266 117.932,132.266 L125.169,92.724 C124.907,92.668 124.624,92.632 124.305,92.632 Z" id="Stroke-346" stroke="#000000"></path>
            <path d="M37.669,291.419 L36.315,289.725 C36.315,289.725 37.977,288.174 39.024,287.524 C40.013,286.911 40.23,286.802 40.23,286.802 M27.341,277.083 L34.791,276.97" id="Stroke-347" stroke="#000000" stroke-width="0.25"></path>
            <path d="M0.078,111.151 L14.653,105.818 L14.653,103.916 L0.316,109.115 C0.078,110.333 0.078,111.151 0.078,111.151" id="Fill-348" fill="#000000"></path>
            <path d="M0.078,111.151 L14.653,105.818 L14.653,103.916 L0.316,109.115 C0.078,110.333 0.078,111.151 0.078,111.151 Z" id="Stroke-349" stroke="#000000"></path>
            <path d="M23.185,108.662 L20.599,95.22 L12.876,97.997 C12.876,97.997 5.766,99.775 2.922,103.33 C1.323,105.328 0.623,107.552 0.316,109.115 L14.653,103.916 L14.653,103.33 L17.142,103.33 L17.142,109.373 L23.185,108.662" id="Fill-350" fill="#333333"></path>
            <path d="M23.185,108.662 L20.599,95.22 L12.876,97.997 C12.876,97.997 5.766,99.775 2.922,103.33 C1.323,105.328 0.623,107.552 0.316,109.115 L14.653,103.916 L14.653,103.33 L17.142,103.33 L17.142,109.373 L23.185,108.662 Z" id="Stroke-351" stroke="#000000"></path>
            <path d="M130.427,197.717 C130.427,197.717 130.355,198.709 130.231,200.383 C130.276,199.48 130.312,198.605 130.341,197.771 L130.427,197.717 Z" id="Stroke-352" stroke="#000000" stroke-width="0.25"></path>
            <path d="M131.24,182.652 C130.869,187.083 130.427,190.326 130.427,190.326 L121.286,190.909 C121.286,190.909 121.216,187.967 121.12,183.792 L131.24,182.652" id="Fill-353" fill="#333333"></path>
            <path d="M131.24,182.652 C130.869,187.083 130.427,190.326 130.427,190.326 L121.286,190.909 C121.286,190.909 121.216,187.967 121.12,183.792 L131.24,182.652 Z" id="Stroke-354" stroke="#000000"></path>
            <path d="M138.122,189.148 C139.125,166.392 137.24,143.646 138.716,121.037 C139.408,141.316 140.795,176.266 140.92,186.67" id="Fill-355" fill="#78AD2C"></path>
            <path d="M138.122,189.148 C139.125,166.392 137.24,143.646 138.716,121.037 C139.408,141.316 140.795,176.266 140.92,186.67" id="Stroke-356" stroke="#000000" stroke-width="0.25"></path>
            <path d="M131.24,182.652 C131.295,181.992 131.349,181.307 131.399,180.601 C131.788,175.156 132.177,90.357 132.177,90.357 L131.997,86.39 C132.001,86.37 132.006,86.349 132.011,86.329 C132.459,84.45 133.253,82.24 135.143,81.837 C136.199,81.611 137.27,82.055 138.259,82.488 C139.257,82.926 140.289,83.4 141.235,83.971 C141.125,85.058 141.009,85.962 140.892,86.544 C140.384,89.084 137.845,90.607 137.845,90.607 C137.845,90.607 138.082,98.776 138.401,110.973 C138.468,113.538 138.578,116.998 138.716,121.037 C137.24,143.646 139.125,166.392 138.122,189.148 C137.62,189.393 137.093,189.587 136.553,189.711 C134.577,190.165 132.502,189.876 130.564,189.248 C130.724,187.944 130.997,185.557 131.24,182.652" id="Fill-357" fill="#78AD2C"></path>
            <path d="M131.24,182.652 C131.295,181.992 131.349,181.307 131.399,180.601 C131.788,175.156 132.177,90.357 132.177,90.357 L131.997,86.39 C132.001,86.37 132.006,86.349 132.011,86.329 C132.459,84.45 133.253,82.24 135.143,81.837 C136.199,81.611 137.27,82.055 138.259,82.488 C139.257,82.926 140.289,83.4 141.235,83.971 C141.125,85.058 141.009,85.962 140.892,86.544 C140.384,89.084 137.845,90.607 137.845,90.607 C137.845,90.607 138.082,98.776 138.401,110.973 C138.468,113.538 138.578,116.998 138.716,121.037 C137.24,143.646 139.125,166.392 138.122,189.148 C137.62,189.393 137.093,189.587 136.553,189.711 C134.577,190.165 132.502,189.876 130.564,189.248 C130.724,187.944 130.997,185.557 131.24,182.652 Z" id="Stroke-358" stroke="#000000" stroke-width="0.25"></path>
            <path d="M102.806,2.96 C114.598,5.726 120.552,10.455 124.13,13.4 C125.181,14.264 126.223,15.269 127.241,16.364 C131.888,23.053 135.44,29.814 134.803,37.771 C134.647,37.927 134.417,38.01 134.15,38.055 C125.703,26.745 114.6,17.449 105.341,5.938 C104.569,4.909 103.699,3.929 102.806,2.96" id="Fill-359"></path>
            <path d="M102.806,2.96 C114.598,5.726 120.552,10.455 124.13,13.4 C125.181,14.264 126.223,15.269 127.241,16.364 C131.888,23.053 135.44,29.814 134.803,37.771 C134.647,37.927 134.417,38.01 134.15,38.055 C125.703,26.745 114.6,17.449 105.341,5.938 C104.569,4.909 103.699,3.929 102.806,2.96 Z" id="Stroke-361" stroke="#000000"></path>
            <path d="M127.241,16.364 C134.393,24.06 140.384,36.257 140.384,36.257 C140.384,36.257 140.661,42.07 140.979,49.016 C139.032,45.098 136.711,41.485 134.15,38.055 C134.417,38.01 134.647,37.927 134.803,37.771 C135.44,29.814 131.888,23.053 127.241,16.364" id="Fill-363" fill="#9AC261"></path>
            <path d="M127.241,16.364 C134.393,24.06 140.384,36.257 140.384,36.257 C140.384,36.257 140.661,42.07 140.979,49.016 C139.032,45.098 136.711,41.485 134.15,38.055 C134.417,38.01 134.647,37.927 134.803,37.771 C135.44,29.814 131.888,23.053 127.241,16.364 Z" id="Stroke-364" stroke="#000000" stroke-width="0.25"></path>
            <path d="M125.175,92.691 C125.175,92.691 126.342,87.829 126.342,84.717 C126.342,81.605 126.537,78.104 126.537,78.104 L127.704,77.715 C127.704,77.715 129.649,75.771 130.427,67.796 C131.063,61.278 129.879,39.815 129.426,32.196 C133.873,37.354 137.892,42.803 140.979,49.016 C141.407,58.368 141.908,69.773 141.908,71.813 C141.908,75.369 141.4,84.004 140.892,86.544 C140.384,89.084 137.845,90.607 137.845,90.607 C137.845,90.607 137.859,90.839 137.885,91.273 C137.208,90.841 136.452,90.44 135.872,90.357 C134.511,90.163 132.177,90.357 132.177,90.357 L131.983,86.079 C131.983,86.079 131.594,83.745 130.816,85.106 C130.038,86.468 128.676,95.22 128.676,95.22 L125.175,92.691" id="Fill-365" fill="#86B541"></path>
            <path d="M125.175,92.691 C125.175,92.691 126.342,87.829 126.342,84.717 C126.342,81.605 126.537,78.104 126.537,78.104 L127.704,77.715 C127.704,77.715 129.649,75.771 130.427,67.796 C131.063,61.278 129.879,39.815 129.426,32.196 C133.873,37.354 137.892,42.803 140.979,49.016 C141.407,58.368 141.908,69.773 141.908,71.813 C141.908,75.369 141.4,84.004 140.892,86.544 C140.384,89.084 137.845,90.607 137.845,90.607 C137.845,90.607 137.859,90.839 137.885,91.273 C137.208,90.841 136.452,90.44 135.872,90.357 C134.511,90.163 132.177,90.357 132.177,90.357 L131.983,86.079 C131.983,86.079 131.594,83.745 130.816,85.106 C130.038,86.468 128.676,95.22 128.676,95.22 L125.175,92.691 Z" id="Stroke-366" stroke="#000000" stroke-width="0.25"></path>
            <path d="M119.017,73.473 C123.516,76.003 126.537,78.104 126.537,78.104 C126.537,78.104 126.342,81.605 126.342,84.717 C126.342,87.829 125.175,92.691 125.175,92.691 L125.169,92.724 C124.907,92.668 124.624,92.632 124.305,92.632 C124.602,85.801 121.773,79.491 119.017,73.473" id="Fill-367" fill="#000000"></path>
            <path d="M119.017,73.473 C123.516,76.003 126.537,78.104 126.537,78.104 C126.537,78.104 126.342,81.605 126.342,84.717 C126.342,87.829 125.175,92.691 125.175,92.691 L125.169,92.724 C124.907,92.668 124.624,92.632 124.305,92.632 C124.602,85.801 121.773,79.491 119.017,73.473 Z" id="Stroke-368" stroke="#000000"></path>
            <path d="M120.702,164.264 C120.508,153.956 121.091,140.731 121.674,135.09 C122.258,129.45 128.676,95.22 128.676,95.22 C128.676,95.22 130.038,86.468 130.816,85.106 C131.594,83.745 131.983,86.079 131.983,86.079 L132.177,90.357 C132.177,90.357 131.788,175.156 131.399,180.601 C131.349,181.307 131.295,181.992 131.24,182.652 L121.12,183.792 C120.99,178.129 120.814,170.198 120.702,164.264" id="Fill-369" fill="#000000"></path>
            <path d="M120.702,164.264 C120.508,153.956 121.091,140.731 121.674,135.09 C122.258,129.45 128.676,95.22 128.676,95.22 C128.676,95.22 130.038,86.468 130.816,85.106 C131.594,83.745 131.983,86.079 131.983,86.079 L132.177,90.357 C132.177,90.357 131.788,175.156 131.399,180.601 C131.349,181.307 131.295,181.992 131.24,182.652 L121.12,183.792 C120.99,178.129 120.814,170.198 120.702,164.264 Z" id="Stroke-370" stroke="#000000"></path>
            <path d="M122.224,183.668 C122.16,178.942 122.015,168.872 121.869,163.486 C121.674,156.29 122.841,137.619 123.23,133.534 C123.619,129.45 127.315,108.251 127.315,108.251 L130.621,108.64 L130.059,182.785 L122.224,183.668 Z" id="Stroke-374" stroke="#000000"></path>
            <path d="M138.476,209.024 L141.908,223.182 L141.456,260.304 C140.406,262.981 138.896,265.393 137.159,267.715 C137.925,239.222 138.31,220.827 138.476,209.024" id="Fill-375" fill="#86B541"></path>
            <path d="M138.476,209.024 L141.908,223.182 L141.456,260.304 C140.406,262.981 138.896,265.393 137.159,267.715 C137.925,239.222 138.31,220.827 138.476,209.024 Z" id="Stroke-376" stroke="#000000" stroke-width="0.25"></path>
            <path d="M141.456,260.304 L141.4,264.833 C141.4,264.833 139.874,269.195 136.964,274.917 C137.032,272.444 137.097,270.05 137.159,267.715 C138.896,265.393 140.406,262.981 141.456,260.304" id="Fill-377" fill="#86B541"></path>
            <path d="M141.456,260.304 L141.4,264.833 C141.4,264.833 139.874,269.195 136.964,274.917 C137.032,272.444 137.097,270.05 137.159,267.715 C138.896,265.393 140.406,262.981 141.456,260.304 Z" id="Stroke-378" stroke="#000000" stroke-width="0.25"></path>
            <path d="M138.403,188.833 L138.122,189.148 C138.122,189.148 138.274,187.78 138.403,188.833" id="Fill-379" fill="#FEF566"></path>
            <path d="M138.403,188.833 L138.122,189.148 C138.122,189.148 138.274,187.78 138.403,188.833 Z" id="Stroke-380" stroke="#000000" stroke-width="0.25"></path>
            <path d="M140.929,187.992 C140.929,192.569 139.452,199.634 138.542,203.553 C138.642,193.483 138.535,189.904 138.403,188.833 L140.911,186.017 C140.923,186.786 140.929,187.453 140.929,187.992" id="Fill-381" fill="#78AD2C"></path>
            <path d="M140.929,187.992 C140.929,192.569 139.452,199.634 138.542,203.553 C138.642,193.483 138.535,189.904 138.403,188.833 L140.911,186.017 C140.923,186.786 140.929,187.453 140.929,187.992 Z" id="Stroke-382" stroke="#000000" stroke-width="0.25"></path>
            <path d="M130.427,190.326 C130.427,190.326 130.621,200.634 129.454,209.192 C128.287,217.749 122.258,241.088 122.258,241.088 L121.286,190.909 L130.427,190.326" id="Fill-383" fill="#000000"></path>
            <path d="M130.427,190.326 C130.427,190.326 130.621,200.634 129.454,209.192 C128.287,217.749 122.258,241.088 122.258,241.088 L121.286,190.909 L130.427,190.326 Z" id="Stroke-384" stroke="#000000"></path>
            <path d="M130.341,197.771 L130.427,197.717 C130.427,197.717 130.355,198.709 130.231,200.383 C130.276,199.48 130.312,198.605 130.341,197.771 Z" id="Stroke-385" stroke="#000000" stroke-width="0.25"></path>
            <path d="M128.287,195.577 L123.23,195.383 C123.23,195.383 122.258,194.994 122.258,196.939 C122.258,198.884 122.258,215.221 122.453,219.5 C122.57,222.079 122.758,225.859 122.888,228.456 C122.911,228.914 123.567,228.968 123.665,228.52 C124.671,223.938 126.58,215.061 127.12,211.331 C129.26,196.55 128.287,195.577 128.287,195.577" id="Fill-386"></path>
            <path d="M128.287,195.577 L123.23,195.383 C123.23,195.383 122.258,194.994 122.258,196.939 C122.258,198.884 122.258,215.221 122.453,219.5 C122.57,222.079 122.758,225.859 122.888,228.456 C122.911,228.914 123.567,228.968 123.665,228.52 C124.671,223.938 126.58,215.061 127.12,211.331 C129.26,196.55 128.287,195.577 128.287,195.577 Z" id="Stroke-388" stroke="#000000"></path>
            <path d="M129.454,209.192 C128.287,217.749 122.258,241.088 122.258,241.088 C122.258,241.088 118.563,242.644 115.84,243.228 C113.117,243.811 102.809,244.589 96.002,245.367 C90.761,245.966 79.745,245.988 74.905,245.967 C70.065,245.988 58.514,245.966 53.274,245.367 C46.466,244.589 36.158,243.811 33.436,243.228 C30.713,242.644 27.017,241.088 27.017,241.088 C27.017,241.088 20.988,217.749 19.821,209.192 C19.716,208.422 19.623,207.638 19.539,206.849 C20.228,215.674 21.305,228.625 22.155,235.059 C23.516,245.367 25.656,265.983 30.713,274.735 C35.769,283.487 44.91,294.184 59.886,295.157 C67.223,295.633 72.186,295.829 74.905,295.906 C77.624,295.829 82.052,295.633 89.389,295.157 C104.365,294.184 113.506,283.487 118.563,274.735 C123.62,265.983 125.759,245.367 127.12,235.059 C127.97,228.625 129.047,215.674 129.737,206.849 C129.653,207.638 129.559,208.422 129.454,209.192" id="Fill-389" fill="#78AD2C"></path>
            <path d="M129.454,209.192 C128.287,217.749 122.258,241.088 122.258,241.088 C122.258,241.088 118.563,242.644 115.84,243.228 C113.117,243.811 102.809,244.589 96.002,245.367 C90.761,245.966 79.745,245.988 74.905,245.967 C70.065,245.988 58.514,245.966 53.274,245.367 C46.466,244.589 36.158,243.811 33.436,243.228 C30.713,242.644 27.017,241.088 27.017,241.088 C27.017,241.088 20.988,217.749 19.821,209.192 C19.716,208.422 19.623,207.638 19.539,206.849 C20.228,215.674 21.305,228.625 22.155,235.059 C23.516,245.367 25.656,265.983 30.713,274.735 C35.769,283.487 44.91,294.184 59.886,295.157 C67.223,295.633 72.186,295.829 74.905,295.906 C77.624,295.829 82.052,295.633 89.389,295.157 C104.365,294.184 113.506,283.487 118.563,274.735 C123.62,265.983 125.759,245.367 127.12,235.059 C127.97,228.625 129.047,215.674 129.737,206.849 C129.653,207.638 129.559,208.422 129.454,209.192 Z" id="Stroke-390" stroke="#000000" stroke-width="0.25" stroke-linejoin="bevel"></path>
            <path d="M104.365,265.983 C94.592,268.459 82.134,268.752 74.905,268.676 C67.676,268.752 54.683,268.459 44.91,265.983 C30.324,262.288 27.99,251.98 27.99,251.98 C27.99,252.758 31.102,271.429 34.991,277.458 C38.881,283.487 45.299,293.017 58.719,293.99 C67.089,294.596 72.41,294.9 74.905,295.043 C77.4,294.9 82.186,294.596 90.556,293.99 C103.976,293.017 110.394,283.487 114.284,277.458 C118.174,271.429 121.286,252.758 121.286,251.98 C121.286,251.98 118.952,262.288 104.365,265.983" id="Fill-391"></path>
            <path d="M104.365,265.983 C94.592,268.459 82.134,268.752 74.905,268.676 C67.676,268.752 54.683,268.459 44.91,265.983 C30.324,262.288 27.99,251.98 27.99,251.98 C27.99,252.758 31.102,271.429 34.991,277.458 C38.881,283.487 45.299,293.017 58.719,293.99 C67.089,294.596 72.41,294.9 74.905,295.043 C77.4,294.9 82.186,294.596 90.556,293.99 C103.976,293.017 110.394,283.487 114.284,277.458 C118.174,271.429 121.286,252.758 121.286,251.98 C121.286,251.98 118.952,262.288 104.365,265.983 Z" id="Stroke-393" stroke="#000000"></path>
            <path d="M134.634,263.48 C134.634,263.48 132.941,261.279 132.094,261.787 C131.247,262.295 130.232,265.004 127.861,268.729 C125.49,272.454 112.96,289.725 112.96,289.725 C112.96,289.725 121.935,287.016 126.168,283.46 C130.401,279.905 133.11,273.978 133.618,269.915 C134.126,265.851 134.634,263.48 134.634,263.48" id="Fill-394" fill="#BF0411"></path>
            <path d="M134.634,263.48 C134.634,263.48 132.941,261.279 132.094,261.787 C131.247,262.295 130.232,265.004 127.861,268.729 C125.49,272.454 112.96,289.725 112.96,289.725 C112.96,289.725 121.935,287.016 126.168,283.46 C130.401,279.905 133.11,273.978 133.618,269.915 C134.126,265.851 134.634,263.48 134.634,263.48 Z" id="Stroke-395" stroke="#000000"></path>
            <path d="M74.905,302.929 C74.862,302.929 74.819,302.928 74.905,302.928 C74.991,302.928 74.948,302.929 74.905,302.929 Z M133.787,272.793 C133.787,272.793 132.602,277.703 129.554,281.429 C126.506,285.154 121.596,287.524 118.209,289.217 C114.823,290.911 111.606,291.419 111.606,291.419 C111.606,291.419 99.414,297.684 93.996,298.022 C89.907,298.278 79.694,298.823 74.905,299.075 C70.116,298.823 59.368,298.278 55.279,298.022 C49.861,297.684 37.669,291.419 37.669,291.419 C37.669,291.419 34.452,290.911 31.066,289.217 C27.679,287.524 22.769,285.154 19.721,281.429 C16.673,277.703 15.488,272.793 15.488,272.793 L12.134,267.741 L12.267,274.827 C13.806,277.861 15.734,281.282 18.034,284.643 C24.637,294.294 35.701,297.075 45.494,299.63 C54.424,301.96 68.25,302.926 74.867,302.929 C74.852,302.929 74.853,302.929 74.905,302.929 C74.957,302.929 74.958,302.929 74.943,302.929 C81.558,302.926 94.851,301.96 103.781,299.63 C113.574,297.075 124.638,294.294 131.241,284.643 C133.541,281.282 135.47,277.861 137.009,274.827 L137.142,267.741 L133.787,272.793 L133.787,272.793 Z" id="Fill-396" fill="#86B541"></path>
            <path d="M74.905,302.929 C74.862,302.929 74.819,302.928 74.905,302.928 C74.991,302.928 74.948,302.929 74.905,302.929 Z M133.787,272.793 C133.787,272.793 132.602,277.703 129.554,281.429 C126.506,285.154 121.596,287.524 118.209,289.217 C114.823,290.911 111.606,291.419 111.606,291.419 C111.606,291.419 99.414,297.684 93.996,298.022 C89.907,298.278 79.694,298.823 74.905,299.075 C70.116,298.823 59.368,298.278 55.279,298.022 C49.861,297.684 37.669,291.419 37.669,291.419 C37.669,291.419 34.452,290.911 31.066,289.217 C27.679,287.524 22.769,285.154 19.721,281.429 C16.673,277.703 15.488,272.793 15.488,272.793 L12.134,267.741 L12.267,274.827 C13.806,277.861 15.734,281.282 18.034,284.643 C24.637,294.294 35.701,297.075 45.494,299.63 C54.424,301.96 68.25,302.926 74.867,302.929 C74.852,302.929 74.853,302.929 74.905,302.929 C74.957,302.929 74.958,302.929 74.943,302.929 C81.558,302.926 94.851,301.96 103.781,299.63 C113.574,297.075 124.638,294.294 131.241,284.643 C133.541,281.282 135.47,277.861 137.009,274.827 L137.142,267.741 L133.787,272.793 Z M111.606,291.419 L112.96,289.725 C112.96,289.725 111.299,288.174 110.251,287.524 C109.262,286.911 109.045,286.802 109.045,286.802 L111.606,291.419 Z M121.935,277.083 L114.484,276.97 L121.935,277.083 Z" id="Stroke-397" stroke="#000000" stroke-width="0.25"></path>
            <path d="M118.681,78.097 C118.681,78.097 107.947,74.851 99.709,73.853 C91.604,72.871 75.439,72.13 74.918,72.106 C74.914,72.102 74.91,72.101 74.905,72.106 C74.9,72.101 74.896,72.102 74.892,72.106 C74.36,72.13 57.672,72.87 49.566,73.853 C41.329,74.851 30.595,78.097 30.595,78.097 L26.85,86.834 L32.841,127.523 C32.841,127.523 48.318,124.278 56.057,124.029 C63.795,123.779 74.905,123.779 74.905,123.779 C74.905,123.779 85.48,123.779 93.219,124.029 C100.957,124.278 116.434,127.523 116.434,127.523 L122.425,86.834 L118.681,78.097" id="Fill-398"></path>
            <polyline id="Fill-400" points="74.629 2.054 71.015 5.685 74.629 9.786 78.26 5.685 74.629 2.054"></polyline>
            <polygon id="Stroke-402" stroke="#000000" points="74.629 2.054 71.015 5.685 74.629 9.786 78.26 5.685"></polygon>
            <path d="M149.198,111.151 L134.622,105.818 L134.622,103.916 L148.959,109.115 C149.198,110.333 149.198,111.151 149.198,111.151" id="Fill-404" fill="#000000"></path>
            <path d="M149.198,111.151 L134.622,105.818 L134.622,103.916 L148.959,109.115 C149.198,110.333 149.198,111.151 149.198,111.151 Z" id="Stroke-405" stroke="#000000"></path>
            <path d="M126.09,108.662 L128.676,95.22 L136.4,97.997 C136.4,97.997 143.51,99.775 146.354,103.33 C147.953,105.328 148.653,107.552 148.959,109.115 L134.622,103.916 L134.622,103.33 L132.134,103.33 L132.134,109.373 L126.09,108.662" id="Fill-406" fill="#333333"></path>
            <path d="M126.09,108.662 L128.676,95.22 L136.4,97.997 C136.4,97.997 143.51,99.775 146.354,103.33 C147.953,105.328 148.653,107.552 148.959,109.115 L134.622,103.916 L134.622,103.33 L132.134,103.33 L132.134,109.373 L126.09,108.662 Z" id="Stroke-407" stroke="#000000"></path>
            <path d="M116.205,243.144 C116.082,243.174 115.96,243.202 115.84,243.228 C113.117,243.811 102.809,244.589 96.002,245.367 C90.761,245.966 79.745,245.988 74.905,245.967 C70.065,245.988 58.514,245.966 53.274,245.367 C46.466,244.589 36.158,243.811 33.436,243.228 C33.316,243.202 33.193,243.174 33.07,243.144 C32.818,245.808 32.905,248.579 34.613,250.545 C35.612,251.694 37.03,252.38 38.43,252.981 C49.718,257.826 62.539,258.999 74.905,259.164 C87.271,258.999 99.557,257.826 110.846,252.981 C112.245,252.38 113.664,251.694 114.662,250.545 C116.37,248.579 116.457,245.808 116.205,243.144" id="Fill-408" fill="#9AC261"></path>
            <path d="M116.205,243.144 C116.082,243.174 115.96,243.202 115.84,243.228 C113.117,243.811 102.809,244.589 96.002,245.367 C90.761,245.966 79.745,245.988 74.905,245.967 C70.065,245.988 58.514,245.966 53.274,245.367 C46.466,244.589 36.158,243.811 33.436,243.228 C33.316,243.202 33.193,243.174 33.07,243.144 C32.818,245.808 32.905,248.579 34.613,250.545 C35.612,251.694 37.03,252.38 38.43,252.981 C49.718,257.826 62.539,258.999 74.905,259.164 C87.271,258.999 99.557,257.826 110.846,252.981 C112.245,252.38 113.664,251.694 114.662,250.545 C116.37,248.579 116.457,245.808 116.205,243.144 Z" id="Stroke-409" stroke="#000000" stroke-width="0.25" stroke-linejoin="bevel"></path>
        </g>
    </g>
</svg>