<?xml version="1.0" encoding="UTF-8"?>
<svg width="144px" height="293px" viewBox="0 0 144 293" version="1.1" xmlns="http://www.w3.org/2000/svg" xmlns:xlink="http://www.w3.org/1999/xlink">
    <!-- Generator: Sketch 46.2 (44496) - http://www.bohemiancoding.com/sketch -->
    <title>car4</title>
    <desc>Created with Sketch.</desc>
    <defs>
        <path d="M8.89515497,64.1401793 C8.92785776,64.1401794 8.96047379,64.1397881 8.993,64.139 C8.523,45.369 8.09,27.942 8.093,25.468 C8.097,22.163 8.977,18.288 10.304,16.761 C9.297,13.1 8.379,9.723 7.117,3.88 C7.149,4.025 7.146,4.068 7.184,4.212 C5.638,3.152 3.202,1.745 1.655,0.686 L0.469,0.337 L10.304,0.337 L10.304,64.1401793 L8.89515497,64.1401793 L8.89515497,64.1401793 Z M0.469,0.337000001 C0.469000713,0.337142323 0.611000311,28.7010765 0.735,59.176 C2.88896948,61.4603933 6.18906981,64.1401725 8.89515497,64.1401793 L0.469,0.337000001 Z" id="path-1"></path>
        <path d="M0.621565473,1.38027718 C0.621565116,1.24479909 0.629451153,1.04039955 0.637,0.836 C0.65,1.188 0.664,1.54 0.637,1.54 C0.625678374,1.54 0.62156573,1.47810826 0.621565473,1.38027718 L0.621565473,0.836 L1.62156547,0.836 L1.62156547,1.836 L0.621565473,1.836 L0.621565473,1.38027718 L0.621565473,1.38027718 Z" id="path-3"></path>
        <path d="M48.7022681,0.18295661 C48.6744619,0.182956516 48.6467058,0.18297097 48.619,0.183 C41.116,0.19 30.098,1.274 18.766,2.852 C12.305,3.751 6.234,4.94 2.459,6.291 C1.339,6.692 0.682,7.849 0.908,9.016 C1.333,11.202 1.962,14.435 2.043,14.807 C3.323,20.683 5.834,36.563 8.431,45.996 C8.756,47.175 9.976,47.874 11.152,47.541 C13.844,46.779 17.432,46.189 24.246,45.406 C34.287,44.253 39.387,44.089 48.637,44.125 C57.887,44.089 63.518,44.253 73.559,45.406 C80.373,46.189 83.961,46.779 86.653,47.541 C87.829,47.874 89.049,47.175 89.373,45.996 C91.971,36.563 94.481,20.683 95.761,14.807 C95.842,14.435 96.472,11.202 96.896,9.016 C97.123,7.849 96.465,6.692 95.346,6.291 C91.571,4.94 85.5,3.751 79.038,2.852 C67.7471215,1.27972623 56.3371123,0.182982394 48.7022681,0.18295661 L96.940607,0.18295661 L96.940607,47.6240705 L0.863694151,47.6240705 L0.863694151,0.18295661 L48.7022681,0.18295661 L48.7022681,0.18295661 Z" id="path-5"></path>
        <path d="M0.621256078,0.291171841 C0.621256301,0.189586258 0.625499709,0.125 0.637,0.125 C0.664,0.125 0.651,0.481 0.637,0.836 C0.628963114,0.632207528 0.621255776,0.428085508 0.621256078,0.291171841 L0.621256078,0.29117184 L0.621256078,0.291171841 Z" id="path-7"></path>
        <path d="M0.524555556,0.948666653 C0.524554429,0.949555551 0.637,0.95 0.637,0.95 C0.637,0.95 0.89,0.949 0.637,0.947 C0.552667512,0.94766666 0.524556119,0.948222211 0.524555556,0.948666653 L0.524555556,0.947 L1.52455556,0.947 L1.52455556,1.947 L0.524555556,1.947 L0.524555556,0.948666653 L0.524555556,0.948666653 Z" id="path-9"></path>
        <path d="M10.336,0.337 L10.336,64.1401793 L1.90888001,64.1401793 C1.87616584,64.1401794 1.84353815,64.1397881 1.811,64.139 C2.281,45.369 2.714,27.942 2.712,25.468 C2.708,22.163 1.923,18.512 0.595,16.985 C1.602,13.324 2.426,9.723 3.687,3.88 C3.656,4.025 3.659,4.068 3.621,4.212 C5.167,3.152 7.603,1.745 9.149,0.686 L10.336,0.337 Z" id="path-11"></path>
        <path d="M0.617,0.791 C0.583,0.792 0.56,0.793 0.551,0.793 C0.565,0.793 0.596,0.792 0.617,0.791 Z" id="path-13"></path>
        <path d="M0.657,0.791 C0.678,0.792 0.709,0.793 0.723,0.793 C0.714,0.793 0.692,0.792 0.657,0.791 Z" id="path-15"></path>
        <path d="M0.637,0.791 C0.646,0.791 0.65,0.791 0.657,0.791 C0.646,0.791 0.637,0.791 0.637,0.791 Z" id="path-17"></path>
        <path d="M69.6789998,13.903 C69.6784911,13.9028731 68.4265545,13.5906826 66.235,12.029 C64.043,10.467 62.474,6.401 60.594,3.9 C58.714,1.399 56.836,0.776 51.516,0.469 C46.6115595,0.185980596 36.4047413,0.17492158 34.8401022,0.17492075 L34.4430946,0.17492075 C32.9488304,0.17492158 23.1925186,0.185980595 18.289,0.469 C12.969,0.776 11.091,1.399 9.211,3.9 C7.331,6.401 5.761,10.467 3.569,12.029 C1.377,13.591 0.125,13.903 0.125,13.903 L2.248,76.837 C2.248,76.837 3.181,77.737 5.683,78.992 C8.185,80.246 10.009,85.486 11.884,87.678 C13.759,89.87 17.63,91.888 22.323,91.894 C27.016947,91.8989999 34.636828,92.0939956 34.637,92.094 L69.679,92.094 L69.679,13.903 L69.6789998,13.903 Z" id="path-19"></path>
        <path d="M0.801048614,1.18921536 C0.801048672,1.62098182 1.3566246,2.18992673 1.627,2.761 C1.75,3.021 1.824,3.294 1.873,3.576 C4.238,4.603 6.341,6.152 8.325,7.801 C13.044,11.726 17.309,16.433 19.557,22.144 C20.695,25.034 21.287,28.102 21.662,31.192 C22.597,28.765 23.283,26.007 22.953,23.653 C22.77,22.353 22.365,21.285 21.814,20.095 C18.138,12.151 12.056,5.809 4.293,1.765 C3.41823335,1.30907039 2.00960459,0.82268555 1.28999204,0.822684633 L23.0370194,0.822684633 L23.0370194,31.192 L0.801048614,31.192 L0.801048614,1.18921544 L0.801048614,1.18921536 Z M0.801048614,1.18921536 C0.801048604,1.10837218 0.820526051,1.03233823 0.865,0.962 C0.926354244,0.864742161 1.0783832,0.822684363 1.28999204,0.822684633 L0.801048614,1.18921536 Z" id="path-21"></path>
    </defs>
    <g id="Page-1" stroke="none" stroke-width="1" fill="none" fill-rule="evenodd">
        <g id="car4">
            <path d="M124.772,236.771 C125.104,230.754 125.89,217.405 125.885,213.384 C125.881,209.315 125.955,189.443 126.044,167.331 C126.055,167.328 126.066,167.326 126.076,167.324 C126.07,168.783 126.08,172.587 126.104,166.646 C128.404,165.875 130.862,163.418 133.396,164.166 C133.34,185.287 133.297,215.918 133.297,230.254 C130.791,235.051 128.107,236.691 124.772,236.771" id="Fill-411" fill="#EE8800"></path>
            <path d="M131.915,83.044 C131.915,83.394 131.915,83.731 131.916,84.053 C131.981,104.085 133.448,144.353 133.396,164.166 C130.862,163.418 128.625,165.545 126.104,166.536 C126.223,136.698 126.32,90.641 126.332,86.063 C126.249,85.374 126.201,83.922 126.172,82.441 C128.099,82.563 130.316,82.179 131.915,83.044" id="Fill-412" fill="#EE8800"></path>
            <path d="M19.033,236.771 C18.7,230.754 17.915,217.405 17.919,213.384 C17.924,209.315 17.85,189.443 17.761,167.331 C17.75,167.328 17.739,167.326 17.728,167.324 C17.734,168.783 17.725,172.587 17.701,166.646 C15.4,165.875 12.943,163.418 10.409,164.166 C10.465,185.287 10.508,215.918 10.508,230.254 C13.014,235.051 15.697,236.691 19.033,236.771" id="Fill-413" fill="#EE8800"></path>
            <path d="M11.889,83.044 C11.89,83.394 11.889,83.731 11.888,84.053 C11.824,104.085 10.357,144.353 10.409,164.166 C12.943,163.418 15.18,165.545 17.701,166.536 C17.582,136.698 17.484,90.641 17.473,86.063 C17.556,85.374 17.604,83.922 17.633,82.441 C15.706,82.563 13.489,82.179 11.889,83.044" id="Fill-414" fill="#EE8800"></path>
            <path d="M125.182,75.021 C125.102,71.852 124.223,69.14 120.227,66.15 C116.23,63.16 108.848,61.18 100.754,59.684 C90.495,57.787 73.25,57.95 71.744,57.968 C71.776,57.968 71.772,57.967 71.637,57.966 C71.506,57.967 71.498,57.968 71.527,57.968 C70.021,57.95 53.294,57.79 43.051,59.684 C34.957,61.18 27.574,63.16 23.578,66.15 C19.582,69.14 18.702,71.852 18.623,75.021 C18.523,79.013 28.46,120.833 28.46,120.833 C28.46,120.833 36.117,117.935 47.745,116.882 C56.904,116.053 70.663,115.879 71.587,115.868 C71.511,115.869 71.402,115.872 71.637,115.876 C71.881,115.872 71.754,115.869 71.679,115.868 C72.551,115.878 86.87,116.051 96.06,116.882 C107.688,117.935 115.345,120.833 115.345,120.833 C115.345,120.833 125.281,79.013 125.182,75.021" id="Fill-415" fill="#000000"></path>
            <path d="M118.197,120.067 C118.219,118.001 117.333,115.742 116.75,114.985 C116.047,117.537 115.348,120.833 115.348,120.833 C115.348,120.833 107.691,117.935 96.063,116.882 C87.361,116.095 73.763,115.897 71.637,115.869 C71.969,115.875 72.638,115.886 71.637,115.907 C70.636,115.886 71.305,115.875 71.637,115.869 C69.511,115.897 56.444,116.095 47.742,116.882 C36.114,117.935 28.456,120.833 28.456,120.833 C28.456,120.833 27.77,117.497 27.26,114.791 C26.677,115.549 25.691,117.732 25.417,119.614 C25.933,121.64 26.467,124.119 26.467,126.144 C27.32,156.459 29.455,186.561 28.174,216.876 C28.066,217.527 27.736,218.178 27.355,218.857 C27.627,225.408 28.198,233.628 28.898,239.102 C29.257,241.91 29.474,245.398 29.749,248.888 L71.637,248.273 L114.056,248.888 C114.331,245.398 114.547,241.91 114.906,239.102 C115.606,233.628 116.178,225.408 116.45,218.857 C116.068,218.178 115.739,217.527 115.63,216.876 C114.349,186.561 116.484,156.459 117.338,126.144 C117.338,124.119 117.68,122.093 118.197,120.067" id="Fill-416" fill="#EE8800"></path>
            <path d="M71.766,0.212 C71.699,0.211 71.734,0.21 71.766,0.21 C71.798,0.21 71.833,0.211 71.766,0.212 Z M131.91,45.233 C131.035,35.904 130.926,35.522 129.009,29.507 C127.091,23.491 122.248,16.27 111.862,8.645 C100.712,0.459 76.736,0.203 71.766,0.209 C66.795,0.203 43.092,0.459 31.943,8.645 C21.556,16.27 16.714,23.491 14.796,29.507 C12.878,35.522 12.77,35.904 11.894,45.233 C11.298,51.588 11.878,72.867 11.889,83.044 C13.489,82.179 15.706,82.563 17.633,82.441 C17.668,80.589 17.672,78.693 17.672,78.19 C17.677,74.197 19.582,69.14 23.578,66.15 C27.574,63.16 34.957,61.18 43.051,59.684 C51.721,58.081 71.637,57.97 71.637,57.97 C71.637,57.97 92.083,58.081 100.754,59.684 C108.848,61.18 116.23,63.16 120.227,66.15 C124.223,69.14 126.128,74.197 126.132,78.19 C126.133,78.693 126.137,80.589 126.172,82.441 C128.099,82.563 130.316,82.179 131.915,83.044 C131.926,72.867 132.507,51.588 131.91,45.233 L131.91,45.233 Z" id="Fill-417" fill="#EE8800"></path>
            <path d="M23.335,269.571 C21.281,263.705 20.426,255.513 19.843,251.004 C19.4,247.576 19.635,245.696 18.995,236.801 C16.215,236.751 13.246,235.751 10.508,230.681 C10.66,234.257 10.698,237.011 10.66,238.447 C10.498,244.443 10.744,249.116 11.522,257.758 C12.265,265.996 14.083,274.743 17.656,279.401 C17.831,279.63 18.006,279.858 18.194,280.067 C18.605,280.525 19.082,280.98 19.617,281.432 C20.831,277.565 22.114,273.699 23.402,269.833 C23.358,269.694 23.333,269.595 23.335,269.571" id="Fill-418" fill="#EE8800"></path>
            <path d="M35.232,257.315 C47.512,260.624 59.118,260.13 71.637,259.648 L71.637,247.92 L29.791,248.508 C29.926,252.417 31.124,256.2 35.232,257.315" id="Fill-419" fill="#000000"></path>
            <path d="M17.633,82.441 C15.706,82.563 13.489,82.179 11.889,83.044" id="Stroke-420" stroke="#000000" stroke-width="0.5"></path>
            <path d="M11.83,75.958 L11.576,75.975 C11.576,75.975 11.042,76.893 11.042,77.79 C11.042,78.687 11.469,79.711 11.469,79.711 L11.871,79.711 C11.86,78.533 11.846,77.274 11.83,75.958" id="Fill-421" fill="#CE6B00"></path>
            <path d="M71.637,115.869 C71.827,115.867 71.637,115.866 71.637,115.866 C71.637,115.866 71.788,115.867 71.637,115.869 Z" id="Stroke-422" stroke="#BF0411" stroke-width="0.5"></path>
            <path d="M10.508,230.254 C13.088,236.018 16.148,236.516 18.923,236.73" id="Stroke-423" stroke="#000000" stroke-width="0.5"></path>
            <path d="M25.914,169.277 C25.965,169.279 26.018,169.285 26.07,169.288 C26.017,169.264 25.965,169.241 25.913,169.215 C25.913,169.235 25.914,169.256 25.914,169.277 Z" id="Stroke-424" stroke="#BF0411" stroke-width="0.5"></path>
            <path d="M26.085,169.295 C26.624,190.793 27.186,208.644 27.182,211.898 C27.18,213.723 27.242,216.148 27.355,218.857 C27.736,218.178 28.066,217.527 28.174,216.876 C28.839,201.156 28.584,185.493 28.066,169.829 C27.406,169.751 26.745,169.597 26.085,169.295" id="Fill-425" fill="#EE8800"></path>
            <path d="M26.085,169.295 C26.624,190.793 27.186,208.644 27.182,211.898 C27.18,213.723 27.242,216.148 27.355,218.857 C27.736,218.178 28.066,217.527 28.174,216.876 C28.839,201.156 28.584,185.493 28.066,169.829 C27.406,169.751 26.745,169.597 26.085,169.295 Z" id="Stroke-426" stroke="#000000" stroke-width="0.5"></path>
            <path d="M26.467,126.144 C26.467,124.119 25.962,121.7 25.445,119.674 C25.312,120.736 25.122,122.171 25.121,123.468 C25.118,125.764 25.484,151.21 25.913,169.215 C25.965,169.241 26.017,169.264 26.07,169.288 C26.075,169.289 26.08,169.289 26.085,169.289 C26.085,169.291 26.085,169.293 26.085,169.295 C26.745,169.597 27.406,169.751 28.066,169.829 C27.585,155.285 26.878,140.739 26.467,126.144" id="Fill-427" fill="#EE8800"></path>
            <path d="M26.467,126.144 C26.467,124.119 25.962,121.7 25.445,119.674 C25.312,120.736 25.122,122.171 25.121,123.468 C25.118,125.764 25.484,151.21 25.913,169.215 C25.965,169.241 26.017,169.264 26.07,169.288 C26.075,169.289 26.08,169.289 26.085,169.289 C26.085,169.291 26.085,169.293 26.085,169.295 C26.745,169.597 27.406,169.751 28.066,169.829 C27.585,155.285 26.878,140.739 26.467,126.144 Z" id="Stroke-428" stroke="#000000" stroke-width="0.5"></path>
            <path d="M71.637,284.791 L71.637,284.791 C71.745,284.789 71.823,284.786 71.637,284.791 Z" id="Stroke-429" stroke="#BF0411" stroke-width="0.5"></path>
            <path d="M23.402,269.833 C22.114,273.699 20.831,277.565 19.617,281.432 C19.678,281.483 19.743,281.533 19.805,281.584 L23.493,270.09 C23.458,269.997 23.426,269.908 23.402,269.833" id="Fill-430" fill="#000000"></path>
            <path d="M71.637,284.791 L71.637,284.791 C71.279,284.8 71.487,284.795 71.637,284.791 Z M22.788,99.959 C22.73,99.741 22.672,99.522 22.614,99.303 C22.672,99.522 22.73,99.74 22.788,99.959 Z" id="Stroke-431" stroke="#BF0411" stroke-width="0.5"></path>
            <g id="Group-434" transform="translate(17.000000, 98.000000)">
                <mask id="mask-2" fill="white">
                    <use xlink:href="#path-1"></use>
                </mask>
                <g id="Clip-433"></g>
                <path d="M10.304,16.761 C9.297,13.1 8.379,9.723 7.117,3.88 C7.149,4.025 7.146,4.068 7.184,4.212 C5.638,3.152 3.202,1.745 1.655,0.686 L0.469,0.337 C0.469,0.337 0.611,28.701 0.735,59.176 C2.915,61.488 6.269,64.205 8.993,64.139 C8.523,45.369 8.09,27.942 8.093,25.468 C8.097,22.163 8.977,18.288 10.304,16.761" id="Fill-432" mask="url(#mask-2)"></path>
            </g>
            <path d="M17.735,157.176 C17.739,157.991 17.742,166.385 17.745,167.197 C20.509,167.78 23.438,169.174 26.057,169.289 C26.036,168.435 26.015,162.99 25.993,162.139 C23.269,162.205 19.915,159.378 17.735,157.176" id="Fill-435" fill="#000000"></path>
            <path d="M20.916,234.168 C22.837,229.898 24.759,225.842 26.467,221.786 C26.808,221.103 27.101,220.397 27.362,219.677 C27.227,216.638 27.153,213.905 27.155,211.898 C27.159,208.643 26.596,190.79 26.057,169.289 C23.438,169.174 20.509,167.78 17.745,167.197 C17.841,190.793 17.924,209.083 17.919,213.384 C17.913,219.074 18.389,228.574 18.936,236.755 C20.063,236.515 20.563,235.05 20.916,234.168" id="Fill-436"></path>
            <path d="M28.871,239.102 C28.2,233.854 27.647,226.083 27.362,219.677 C27.101,220.397 26.808,221.103 26.467,221.786 C24.759,225.842 22.837,229.898 20.916,234.168 C20.563,235.05 20.063,236.515 18.936,236.755 C19.35,242.929 19.224,247.836 19.543,250.305 C20.285,256.046 20.938,268.511 25.836,273.787 C27.052,275.097 28.105,275.947 28.993,276.829 L32.658,263.415 C30.38,259.644 29.845,246.716 28.871,239.102" id="Fill-438"></path>
            <path d="M26.788,241.761 C26.264,234.931 25.303,231.089 25.239,224.626 C23.862,227.745 22.815,229.541 21.342,232.815 C21.008,233.65 20.043,235.414 19.543,236.413 C19.664,241.259 20.235,248.639 20.335,250.65 C20.762,259.19 23.478,267.97 23.478,267.97 C23.478,267.97 25.265,264.719 26.77,258.066 C28.274,251.413 27.158,246.575 26.788,241.761" id="Fill-440" fill="#EE8800"></path>
            <path d="M32.798,263.613 C32.75,263.553 32.704,263.481 32.658,263.415 L28.993,276.829 C29.434,277.268 29.57,277.164 30.025,277.505 L34.152,265.194 C33.769,264.847 33.097,263.987 32.798,263.613" id="Fill-441" fill="#000000"></path>
            <path d="M22.247,27.144 C24.496,21.433 28.761,16.726 33.48,12.801 C35.463,11.152 37.567,9.603 39.932,8.576 C39.981,8.294 40.055,8.021 40.178,7.761 C40.499,7.083 41.221,6.408 40.94,5.962 C40.669,5.534 38.644,6.175 37.512,6.765 C29.749,10.809 23.667,17.151 19.991,25.095 C19.44,26.285 19.035,27.353 18.852,28.653 C18.521,31.007 19.208,33.765 20.142,36.192 C20.518,33.102 21.109,30.034 22.247,27.144" id="Fill-442"></path>
            <path d="M22.247,27.144 C24.496,21.433 28.761,16.726 33.48,12.801 C35.463,11.152 37.567,9.603 39.932,8.576 C39.981,8.294 40.055,8.021 40.178,7.761 C40.499,7.083 41.221,6.408 40.94,5.962 C40.669,5.534 38.644,6.175 37.512,6.765 C29.749,10.809 23.667,17.151 19.991,25.095 C19.44,26.285 19.035,27.353 18.852,28.653 C18.521,31.007 19.208,33.765 20.142,36.192 C20.518,33.102 21.109,30.034 22.247,27.144 Z" id="Stroke-444" stroke="#000000" stroke-width="0.5"></path>
            <path d="M18.529,279.032 C18.146,278.228 17.88,277.325 17.219,276.728 C16.852,276.398 16.304,276.235 15.824,276.292 C16.366,277.463 16.974,278.511 17.656,279.401 C17.831,279.63 18.006,279.858 18.194,280.067 C19.402,281.412 21.17,282.739 23.348,283.989 C21.412,282.659 19.533,281.138 18.529,279.032" id="Fill-445" fill="#BF0411"></path>
            <path d="M34.883,146.106 C34.883,146.106 37.212,222.995 37.852,231.535 C38.493,240.074 39.347,244.984 38.493,245.838 C37.639,246.692 35.931,245.625 34.864,243.063 C33.796,240.501 31.163,207.482 31.306,192.111 C31.448,176.74 30.025,137.459 30.025,132.762 C30.025,128.066 31.377,122.515 32.017,121.448 C32.658,120.38 34.04,118.986 34.365,120.38 C34.864,122.515 34.294,127.069 34.294,133.189 C34.294,137.032 34.883,146.106 34.883,146.106" id="Fill-446" fill="#000000"></path>
            <path d="M13.574,99.552 L0.056,104.714 C0.09,104.93 0.139,105.15 0.207,105.376 C0.297,105.678 0.618,105.845 0.916,105.746 C5.134,104.342 8.822,103.058 13.071,101.356 C13.258,101.281 13.434,101.173 13.566,101.021 C13.702,100.865 13.768,100.701 13.789,100.531 C13.758,100.527 13.717,100.526 13.657,100.526 C13.717,100.526 13.758,100.527 13.789,100.531 C13.828,100.22 13.712,99.89 13.574,99.552" id="Fill-447" fill="#333333"></path>
            <path d="M17.514,84.45 C15.123,87.795 14.186,88.332 11.096,91.739 C10.266,92.655 9.196,93.643 8.065,94.634 C9.367,94.428 10.728,94.669 11.949,95.402 C12.682,96.03 13.106,96.864 13.374,97.777 C13.705,97.309 14.522,97.254 15.384,97.272 C16.589,97.297 16.616,97.745 17.611,98.427 C19.157,99.486 24.051,102.013 24.051,102.013 C24.051,102.013 22.704,95.676 22.391,94.244 C21.926,92.119 18.739,72.798 18.739,72.798 C18.739,72.798 17.345,75.321 17.514,84.45" id="Fill-448" fill="#333333"></path>
            <path d="M11.949,95.402 C10.728,94.669 9.367,94.428 8.065,94.634 C6.351,96.136 4.497,97.644 3.118,98.913 C1.158,100.716 -0.309,102.421 0.056,104.714 L13.574,99.552 C13.44,99.223 13.286,98.887 13.235,98.553 C13.184,98.213 13.241,97.963 13.374,97.777 C13.106,96.864 12.682,96.03 11.949,95.402" id="Fill-449" fill="#000000"></path>
            <path d="M11.469,147.16 C11.466,146.977 11.58,146.805 11.399,146.835 C10.534,146.98 9.487,148.531 9.307,150.082 C9.148,151.45 9.002,152.608 9.126,153.979 C9.302,155.91 9.873,157.714 11.004,159.273 C11.152,159.478 11.478,159.37 11.481,159.117 C11.497,157.465 11.474,158.073 11.492,156.504 C10.186,155.419 9.639,152.813 10.172,151.201 C10.406,150.494 10.764,149.139 11.5,149.253 L11.469,147.16" id="Fill-451" fill="#D9D9D9"></path>
            <path d="M12.18,209.782 C12.177,209.6 12.291,209.428 12.111,209.458 C11.245,209.602 10.199,211.153 10.019,212.705 C9.859,214.073 9.713,215.23 9.838,216.601 C10.014,218.533 10.585,220.336 11.715,221.896 C11.864,222.101 12.19,221.993 12.193,221.739 C12.209,220.087 12.186,220.696 12.204,219.127 C10.898,218.041 10.35,215.435 10.884,213.823 C11.118,213.116 11.476,211.761 12.212,211.875 L12.18,209.782" id="Fill-452" fill="#D9D9D9"></path>
            <path d="M120.469,269.571 C122.524,263.705 123.379,255.513 123.962,251.004 C124.405,247.576 124.17,245.696 124.81,236.801 C127.589,236.751 130.559,235.751 133.297,230.681 C133.145,234.257 133.106,237.011 133.145,238.447 C133.307,244.443 133.061,249.116 132.282,257.758 C131.54,265.996 129.722,274.743 126.149,279.401 C125.974,279.63 125.798,279.858 125.611,280.067 C125.2,280.525 124.722,280.98 124.188,281.432 C122.973,277.565 121.691,273.699 120.402,269.833 C120.447,269.694 120.471,269.595 120.469,269.571" id="Fill-453" fill="#EE8800"></path>
            <path d="M108.572,257.315 C96.293,260.624 84.156,260.13 71.637,259.648 L71.637,247.92 L114.014,248.508 C113.879,252.417 112.681,256.2 108.572,257.315" id="Fill-454" fill="#000000"></path>
            <path d="M126.172,82.441 C128.099,82.563 130.316,82.179 131.915,83.044 M133.396,164.166 C130.862,163.418 128.625,165.545 126.104,166.536" id="Stroke-455" stroke="#000000" stroke-width="0.5"></path>
            <path d="M131.975,75.958 L132.229,75.975 C132.229,75.975 132.763,76.893 132.763,77.79 C132.763,78.687 132.336,79.711 132.336,79.711 L131.934,79.711 C131.944,78.533 131.958,77.274 131.975,75.958" id="Fill-456" fill="#CE6B00"></path>
            <path d="M71.637,115.869 C71.447,115.867 71.637,115.866 71.637,115.866 C71.637,115.866 71.486,115.867 71.637,115.869 Z" id="Stroke-457" stroke="#BF0411" stroke-width="0.5"></path>
            <path d="M133.297,230.254 C130.717,236.018 127.657,236.516 124.881,236.73" id="Stroke-458" stroke="#000000" stroke-width="0.5"></path>
            <path d="M71.637,248.273 L34.613,248.821 C34.733,252.468 35.794,255.996 39.435,257.037 C50.318,260.123 60.486,262.2 71.58,261.75 C82.674,262.2 93.487,260.123 104.369,257.037 C108.01,255.996 109.072,252.468 109.192,248.821 L71.637,248.273" id="Fill-459" fill="#EE8800"></path>
            <path d="M71.637,248.273 L34.613,248.821 C34.733,252.468 35.794,255.996 39.435,257.037 C50.318,260.123 60.486,262.2 71.58,261.75 C82.674,262.2 93.487,260.123 104.369,257.037 C108.01,255.996 109.072,252.468 109.192,248.821 L71.637,248.273 Z" id="Stroke-460" stroke="#FFFFFF" stroke-width="0.5"></path>
            <path d="M109.469,248.821 C109.349,252.468 108.384,256.184 104.743,257.224 C93.861,260.31 82.731,262.47 71.637,262.021 C60.543,262.47 49.944,260.31 39.062,257.224 C35.421,256.184 34.456,252.468 34.336,248.821 L29.749,248.888 C30.22,254.862 30.862,260.84 32.685,263.415 C32.732,263.481 32.778,263.553 32.825,263.613 C33.124,263.987 33.796,264.847 34.18,265.194 C37.633,268.32 45.666,271.943 53.152,273.449 C59.905,274.808 70.674,274.946 71.637,274.944 C72.6,274.946 83.9,274.808 90.653,273.449 C98.138,271.943 106.172,268.32 109.625,265.194 C110.009,264.847 110.681,263.987 110.979,263.613 C111.027,263.553 111.073,263.481 111.12,263.415 C112.943,260.84 113.585,254.862 114.056,248.888 L109.469,248.821" id="Fill-461" fill="#EE8800"></path>
            <path d="M109.469,248.821 C109.349,252.468 108.384,256.184 104.743,257.224 C93.861,260.31 82.731,262.47 71.637,262.021 C60.543,262.47 49.944,260.31 39.062,257.224 C35.421,256.184 34.456,252.468 34.336,248.821 L29.749,248.888 C30.22,254.862 30.862,260.84 32.685,263.415 C32.732,263.481 32.778,263.553 32.825,263.613 C33.124,263.987 33.796,264.847 34.18,265.194 C37.633,268.32 45.666,271.943 53.152,273.449 C59.905,274.808 70.674,274.946 71.637,274.944 C72.6,274.946 83.9,274.808 90.653,273.449 C98.138,271.943 106.172,268.32 109.625,265.194 C110.009,264.847 110.681,263.987 110.979,263.613 C111.027,263.553 111.073,263.481 111.12,263.415 C112.943,260.84 113.585,254.862 114.056,248.888 L109.469,248.821 Z" id="Stroke-462" stroke="#FFFFFF" stroke-width="0.5"></path>
            <path d="M117.89,169.277 C117.84,169.279 117.786,169.285 117.735,169.288 C117.787,169.264 117.84,169.241 117.892,169.215 C117.891,169.235 117.891,169.256 117.89,169.277 Z" id="Stroke-463" stroke="#BF0411" stroke-width="0.5"></path>
            <path d="M117.72,169.295 C117.181,190.793 116.618,208.644 116.622,211.898 C116.624,213.723 116.563,216.148 116.45,218.857 C116.068,218.178 115.739,217.527 115.63,216.876 C114.966,201.156 115.221,185.493 115.739,169.829 C116.399,169.751 117.059,169.597 117.72,169.295" id="Fill-464" fill="#EE8800"></path>
            <path d="M117.72,169.295 C117.181,190.793 116.618,208.644 116.622,211.898 C116.624,213.723 116.563,216.148 116.45,218.857 C116.068,218.178 115.739,217.527 115.63,216.876 C114.966,201.156 115.221,185.493 115.739,169.829 C116.399,169.751 117.059,169.597 117.72,169.295 Z" id="Stroke-465" stroke="#000000" stroke-width="0.5"></path>
            <path d="M117.338,126.144 C117.338,124.119 117.843,121.7 118.359,119.674 C118.492,120.736 118.683,122.171 118.684,123.468 C118.687,125.764 118.32,151.21 117.892,169.215 C117.84,169.241 117.787,169.264 117.735,169.288 C117.73,169.289 117.725,169.289 117.72,169.289 C117.72,169.291 117.72,169.293 117.72,169.295 C117.059,169.597 116.399,169.751 115.739,169.829 C116.22,155.285 116.927,140.739 117.338,126.144" id="Fill-466" fill="#EE8800"></path>
            <path d="M117.338,126.144 C117.338,124.119 117.843,121.7 118.359,119.674 C118.492,120.736 118.683,122.171 118.684,123.468 C118.687,125.764 118.32,151.21 117.892,169.215 C117.84,169.241 117.787,169.264 117.735,169.288 C117.73,169.289 117.725,169.289 117.72,169.289 C117.72,169.291 117.72,169.293 117.72,169.295 C117.059,169.597 116.399,169.751 115.739,169.829 C116.22,155.285 116.927,140.739 117.338,126.144 Z" id="Stroke-467" stroke="#000000" stroke-width="0.5"></path>
            <path d="M71.637,284.791 L71.637,284.791 C71.529,284.789 71.451,284.786 71.637,284.791 Z" id="Stroke-468" stroke="#BF0411" stroke-width="0.5"></path>
            <path d="M120.402,269.833 C121.691,273.699 122.973,277.565 124.188,281.432 C124.127,281.483 124.062,281.533 124,281.584 L120.312,270.09 C120.347,269.997 120.378,269.908 120.402,269.833" id="Fill-469" fill="#000000"></path>
            <path d="M124.102,281.482 L120.414,269.987 C120.236,270.292 120.138,270.522 120.025,270.727 C119.171,272.275 118.754,272.88 117.943,273.858 C116.803,275.234 115.7,275.947 114.812,276.829 C114.371,277.268 114.235,277.164 113.78,277.505 C112.1,278.767 109.345,279.534 106.735,280.637 C101.081,283.025 91.983,284.043 84.746,284.55 C80.957,284.816 74.146,284.73 71.637,284.791 C71.995,284.8 71.787,284.795 71.637,284.791 C71.487,284.795 71.279,284.8 71.637,284.791 C69.128,284.73 62.848,284.816 59.059,284.55 C51.822,284.043 42.724,283.025 37.07,280.637 C34.459,279.534 31.704,278.767 30.025,277.505 C29.57,277.164 29.434,277.268 28.993,276.829 C28.105,275.947 27.002,275.234 25.862,273.858 C25.051,272.88 24.634,272.275 23.78,270.727 C23.667,270.522 23.569,270.292 23.391,269.987 L19.703,281.482 C25.497,286.261 37.467,290.441 49.203,291.489 C54.52,291.964 64.709,292.258 71.572,292.458 C71.572,292.459 71.589,292.461 71.637,292.462 C71.685,292.461 71.702,292.459 71.702,292.458 C78.568,292.258 89.285,291.964 94.602,291.489 C106.338,290.441 118.308,286.261 124.102,281.482" id="Fill-470" fill="#EE8800"></path>
            <path d="M71.637,284.791 L71.637,284.791 C71.995,284.8 71.787,284.795 71.637,284.791 Z" id="Stroke-471" stroke="#BF0411" stroke-width="0.5"></path>
            <g id="Group-474" transform="translate(71.000000, 112.000000)">
                <mask id="mask-4" fill="white">
                    <use xlink:href="#path-3"></use>
                </mask>
                <g id="Clip-473"></g>
                <path d="M0.637,1.54 C0.664,1.54 0.65,1.188 0.637,0.836 C0.624,1.188 0.61,1.54 0.637,1.54" id="Fill-472" mask="url(#mask-4)"></path>
            </g>
            <g id="Group-477" transform="translate(23.000000, 68.000000)">
                <mask id="mask-6" fill="white">
                    <use xlink:href="#path-5"></use>
                </mask>
                <g id="Clip-476"></g>
                <path d="M95.346,6.291 C91.571,4.94 85.5,3.751 79.038,2.852 C67.706,1.274 56.254,0.175 48.619,0.183 C41.116,0.19 30.098,1.274 18.766,2.852 C12.305,3.751 6.234,4.94 2.459,6.291 C1.339,6.692 0.682,7.849 0.908,9.016 C1.333,11.202 1.962,14.435 2.043,14.807 C3.323,20.683 5.834,36.563 8.431,45.996 C8.756,47.175 9.976,47.874 11.152,47.541 C13.844,46.779 17.432,46.189 24.246,45.406 C34.287,44.253 39.387,44.089 48.637,44.125 C57.887,44.089 63.518,44.253 73.559,45.406 C80.373,46.189 83.961,46.779 86.653,47.541 C87.829,47.874 89.049,47.175 89.373,45.996 C91.971,36.563 94.481,20.683 95.761,14.807 C95.842,14.435 96.472,11.202 96.896,9.016 C97.123,7.849 96.465,6.692 95.346,6.291" id="Fill-475" mask="url(#mask-6)"></path>
            </g>
            <g id="Group-480" transform="translate(71.000000, 112.000000)">
                <mask id="mask-8" fill="white">
                    <use xlink:href="#path-7"></use>
                </mask>
                <g id="Clip-479"></g>
                <path d="M0.637,0.836 C0.651,0.481 0.664,0.125 0.637,0.125 C0.61,0.125 0.623,0.481 0.637,0.836" id="Fill-478" mask="url(#mask-8)"></path>
            </g>
            <g id="Group-483" transform="translate(71.000000, 67.000000)">
                <mask id="mask-10" fill="white">
                    <use xlink:href="#path-9"></use>
                </mask>
                <g id="Clip-482"></g>
                <path d="M0.637,0.947 C0.384,0.949 0.637,0.95 0.637,0.95 C0.637,0.95 0.89,0.949 0.637,0.947" id="Fill-481" mask="url(#mask-10)"></path>
            </g>
            <path d="M121.017,99.959 C121.075,99.741 121.133,99.522 121.191,99.303 C121.133,99.522 121.075,99.74 121.017,99.959 Z" id="Stroke-484" stroke="#BF0411" stroke-width="0.5"></path>
            <g id="Group-487" transform="translate(116.000000, 98.000000)">
                <mask id="mask-12" fill="white">
                    <use xlink:href="#path-11"></use>
                </mask>
                <g id="Clip-486"></g>
                <path d="M0.595,16.985 C1.602,13.324 2.426,9.723 3.687,3.88 C3.656,4.025 3.659,4.068 3.621,4.212 C5.167,3.152 7.603,1.745 9.149,0.686 L10.336,0.337 C10.336,0.337 10.194,28.701 10.069,59.176 C7.889,61.488 4.536,64.205 1.811,64.139 C2.281,45.369 2.714,27.942 2.712,25.468 C2.708,22.163 1.923,18.512 0.595,16.985" id="Fill-485" mask="url(#mask-12)"></path>
            </g>
            <path d="M126.069,157.176 C126.066,157.991 126.063,166.385 126.059,167.197 C123.296,167.78 120.366,169.174 117.747,169.289 C117.769,168.435 117.79,162.99 117.811,162.139 C120.536,162.205 123.889,159.378 126.069,157.176" id="Fill-488" fill="#000000"></path>
            <path d="M122.889,234.168 C120.967,229.898 119.046,225.842 117.338,221.786 C116.997,221.103 116.703,220.397 116.442,219.677 C116.577,216.638 116.652,213.905 116.65,211.898 C116.646,208.643 117.209,190.79 117.747,169.289 C120.366,169.174 123.296,167.78 126.059,167.197 C125.963,190.793 125.88,209.083 125.885,213.384 C125.892,219.074 125.416,228.574 124.868,236.755 C123.741,236.515 123.242,235.05 122.889,234.168" id="Fill-489"></path>
            <path d="M114.934,239.102 C115.605,233.854 116.158,226.083 116.442,219.677 C116.703,220.397 116.997,221.103 117.338,221.786 C119.046,225.842 120.967,229.898 122.889,234.168 C123.242,235.05 123.741,236.515 124.868,236.755 C124.455,242.929 124.581,247.836 124.261,250.305 C123.519,256.046 122.866,268.511 117.968,273.787 C116.753,275.097 115.7,275.947 114.812,276.829 L111.147,263.415 C113.424,259.644 113.96,246.716 114.934,239.102" id="Fill-491"></path>
            <path d="M117.017,241.761 C117.541,234.931 118.501,231.089 118.566,224.626 C119.943,227.745 120.989,229.541 122.462,232.815 C122.796,233.65 123.762,235.414 124.261,236.413 C124.14,241.259 123.57,248.639 123.47,250.65 C123.043,259.19 120.327,267.97 120.327,267.97 C120.327,267.97 118.54,264.719 117.035,258.066 C115.53,251.413 116.647,246.575 117.017,241.761" id="Fill-493" fill="#EE8800"></path>
            <path d="M111.007,263.613 C111.055,263.553 111.1,263.481 111.147,263.415 L114.812,276.829 C114.371,277.268 114.235,277.164 113.78,277.505 L109.653,265.194 C110.036,264.847 110.708,263.987 111.007,263.613" id="Fill-494" fill="#000000"></path>
            <g id="Group-497" transform="translate(71.000000, 284.000000)">
                <path d="M0.637,0.791 C0.637,0.791 0.628,0.791 0.617,0.791 C0.624,0.791 0.628,0.791 0.637,0.791" id="Fill-495"></path>
            </g>
            <g id="Group-500" transform="translate(71.000000, 284.000000)">
                <mask id="mask-14" fill="white">
                    <use xlink:href="#path-13"></use>
                </mask>
                <g id="Clip-499"></g>
                <path d="M0.617,0.791 C0.583,0.792 0.56,0.793 0.551,0.793 C0.565,0.793 0.596,0.792 0.617,0.791" id="Fill-498" mask="url(#mask-14)"></path>
            </g>
            <g id="Group-503" transform="translate(71.000000, 284.000000)">
                <path d="M0.551,0.793 C0.543,0.793 0.541,0.793 0.551,0.793" id="Fill-501"></path>
            </g>
            <g id="Group-506" transform="translate(71.000000, 284.000000)">
                <mask id="mask-16" fill="white">
                    <use xlink:href="#path-15"></use>
                </mask>
                <g id="Clip-505"></g>
                <path d="M0.657,0.791 C0.678,0.792 0.709,0.793 0.723,0.793 C0.714,0.793 0.692,0.792 0.657,0.791" id="Fill-504" mask="url(#mask-16)"></path>
            </g>
            <path d="M109.653,265.194 C106.199,268.32 98.503,271.825 91.017,273.331 C83.884,274.766 71.637,274.841 71.637,274.841 C71.637,274.841 59.921,274.766 52.788,273.331 C45.302,271.825 37.605,268.32 34.152,265.194 L30.025,277.505 C31.704,278.767 34.459,279.534 37.07,280.637 C42.724,283.025 51.822,284.043 59.059,284.55 C64.044,284.9 71.637,284.791 71.637,284.791 C71.637,284.791 79.761,284.9 84.746,284.55 C91.983,284.043 101.081,283.025 106.735,280.637 C109.345,279.534 112.1,278.767 113.78,277.505 L109.653,265.194" id="Fill-507"></path>
            <g id="Group-511" transform="translate(71.000000, 284.000000)">
                <mask id="mask-18" fill="white">
                    <use xlink:href="#path-17"></use>
                </mask>
                <g id="Clip-510"></g>
                <path d="M0.637,0.791 C0.646,0.791 0.65,0.791 0.657,0.791 C0.646,0.791 0.637,0.791 0.637,0.791" id="Fill-509" mask="url(#mask-18)"></path>
            </g>
            <g id="Group-514" transform="translate(71.000000, 284.000000)">
                <path d="M0.723,0.793 C0.733,0.793 0.731,0.793 0.723,0.793" id="Fill-512"></path>
            </g>
            <path d="M105.259,144.113 C102.928,142.452 101.259,138.128 99.26,135.469 C97.26,132.809 95.263,132.146 89.606,131.82 C83.949,131.493 71.637,131.508 71.637,131.508 C71.637,131.508 59.856,131.493 54.199,131.82 C48.542,132.146 46.545,132.809 44.545,135.469 C42.546,138.128 40.877,142.452 38.546,144.113 C36.215,145.774 34.883,146.106 34.883,146.106 L37.141,213.033 C37.141,213.033 38.133,213.99 40.794,215.324 C43.454,216.658 45.394,222.229 47.388,224.561 C49.382,226.893 53.498,229.039 58.489,229.044 C63.48,229.05 71.637,229.258 71.637,229.258 C71.637,229.258 80.324,229.05 85.315,229.044 C90.307,229.039 94.423,226.893 96.417,224.561 C98.41,222.229 100.351,216.658 103.011,215.324 C105.671,213.99 106.664,213.033 106.664,213.033 L108.921,146.106 C108.921,146.106 107.59,145.774 105.259,144.113" id="Fill-515" fill="#000000"></path>
            <g id="Group-518" transform="translate(37.000000, 133.000000)">
                <mask id="mask-20" fill="white">
                    <use xlink:href="#path-19"></use>
                </mask>
                <g id="Clip-517"></g>
                <path d="M66.235,12.029 C64.043,10.467 62.474,6.401 60.594,3.9 C58.714,1.399 56.836,0.776 51.516,0.469 C46.196,0.162 34.637,0.175 34.637,0.175 C34.637,0.175 23.608,0.162 18.289,0.469 C12.969,0.776 11.091,1.399 9.211,3.9 C7.331,6.401 5.761,10.467 3.569,12.029 C1.377,13.591 0.125,13.903 0.125,13.903 L2.248,76.837 C2.248,76.837 3.181,77.737 5.683,78.992 C8.185,80.246 10.009,85.486 11.884,87.678 C13.759,89.87 17.63,91.888 22.323,91.894 C27.017,91.899 34.637,92.094 34.637,92.094 C34.637,92.094 42.788,91.899 47.482,91.894 C52.175,91.888 56.046,89.87 57.921,87.678 C59.795,85.486 61.62,80.246 64.122,78.992 C66.623,77.737 67.557,76.837 67.557,76.837 L69.679,13.903 C69.679,13.903 68.427,13.591 66.235,12.029" id="Fill-516" mask="url(#mask-20)"></path>
            </g>
            <path d="M71.766,0.21 C71.797,0.21 71.833,0.211 71.766,0.212 C71.699,0.211 71.734,0.21 71.766,0.21 Z M71.766,0.209 C70.703,0.208 69.204,0.143 66.688,0.306 C67.112,0.822 67.799,1.296 68.469,1.5 C69.419,1.791 70.807,2.011 71.788,2.172 C72.645,2.106 74.467,1.84 75.336,1.5 C75.989,1.245 76.693,0.822 77.117,0.306 C74.6,0.143 72.828,0.208 71.766,0.209 L71.766,0.209 Z" id="Fill-519"></path>
            <path d="M123.89,38.315 C123.53,34.515 122.956,30.696 121.557,27.144 C119.309,21.433 115.044,16.726 110.325,12.801 C108.316,11.131 106.186,9.563 103.784,8.536 C100.82,7.269 96.03,6.281 92.507,5.694 C85.249,4.485 76.938,3.862 71.722,3.865 C66.596,3.868 58.555,4.485 51.298,5.694 C47.775,6.281 42.984,7.269 40.021,8.536 C37.619,9.563 35.488,11.131 33.48,12.801 C28.761,16.726 24.496,21.433 22.247,27.144 C20.849,30.696 20.275,34.515 19.915,38.315 C19.27,45.118 19.277,51.964 19.285,58.798 C19.288,62.06 19.41,65.626 21.151,68.279 C21.868,67.535 22.678,66.823 23.578,66.15 C27.574,63.16 34.957,61.18 43.051,59.684 C51.721,58.081 71.637,57.97 71.637,57.97 C71.637,57.97 92.083,58.081 100.754,59.684 C108.848,61.18 116.23,63.16 120.227,66.15 C121.127,66.823 121.937,67.535 122.654,68.279 C124.395,65.626 124.516,62.06 124.52,58.798 C124.528,51.964 124.535,45.118 123.89,38.315" id="Fill-521" fill="#EE8800"></path>
            <path d="M123.89,38.315 C123.53,34.515 122.956,30.696 121.557,27.144 C119.309,21.433 115.044,16.726 110.325,12.801 C108.316,11.131 106.186,9.563 103.784,8.536 C100.82,7.269 96.03,6.281 92.507,5.694 C85.249,4.485 76.938,3.862 71.722,3.865 C66.596,3.868 58.555,4.485 51.298,5.694 C47.775,6.281 42.984,7.269 40.021,8.536 C37.619,9.563 35.488,11.131 33.48,12.801 C28.761,16.726 24.496,21.433 22.247,27.144 C20.849,30.696 20.275,34.515 19.915,38.315 C19.27,45.118 19.277,51.964 19.285,58.798 C19.288,62.06 19.41,65.626 21.151,68.279 C21.868,67.535 22.678,66.823 23.578,66.15 C27.574,63.16 34.957,61.18 43.051,59.684 C51.721,58.081 71.637,57.97 71.637,57.97 C71.637,57.97 92.083,58.081 100.754,59.684 C108.848,61.18 116.23,63.16 120.227,66.15 C121.127,66.823 121.937,67.535 122.654,68.279 C124.395,65.626 124.516,62.06 124.52,58.798 C124.528,51.964 124.535,45.118 123.89,38.315 Z" id="Stroke-522" stroke="#FFFFFF" stroke-width="0.5"></path>
            <g id="Group-525" transform="translate(102.000000, 5.000000)">
                <mask id="mask-22" fill="white">
                    <use xlink:href="#path-21"></use>
                </mask>
                <g id="Clip-524"></g>
                <path d="M19.557,22.144 C17.309,16.433 13.044,11.726 8.325,7.801 C6.341,6.152 4.238,4.603 1.873,3.576 C1.824,3.294 1.75,3.021 1.627,2.761 C1.306,2.083 0.583,1.408 0.865,0.962 C1.135,0.534 3.161,1.175 4.293,1.765 C12.056,5.809 18.138,12.151 21.814,20.095 C22.365,21.285 22.77,22.353 22.953,23.653 C23.283,26.007 22.597,28.765 21.662,31.192 C21.287,28.102 20.695,25.034 19.557,22.144" id="Fill-523" mask="url(#mask-22)"></path>
            </g>
            <path d="M121.557,27.144 C119.309,21.433 115.044,16.726 110.325,12.801 C108.341,11.152 106.238,9.603 103.873,8.576 C103.824,8.294 103.75,8.021 103.627,7.761 C103.306,7.083 102.583,6.408 102.865,5.962 C103.135,5.534 105.161,6.175 106.293,6.765 C114.056,10.809 120.138,17.151 123.814,25.095 C124.365,26.285 124.77,27.353 124.953,28.653 C125.283,31.007 124.597,33.765 123.662,36.192 C123.287,33.102 122.695,30.034 121.557,27.144 Z" id="Stroke-526" stroke="#000000" stroke-width="0.5"></path>
            <path d="M125.275,279.032 C125.658,278.228 125.925,277.325 126.586,276.728 C126.953,276.398 127.501,276.235 127.981,276.292 C127.439,277.463 126.831,278.511 126.149,279.401 C125.974,279.63 125.798,279.858 125.611,280.067 C124.403,281.412 122.635,282.739 120.457,283.989 C122.393,282.659 124.272,281.138 125.275,279.032" id="Fill-527" fill="#BF0411"></path>
            <path d="M108.921,146.106 C108.921,146.106 106.593,222.995 105.952,231.535 C105.312,240.074 104.458,244.984 105.312,245.838 C106.166,246.692 107.874,245.625 108.941,243.063 C110.009,240.501 112.642,207.482 112.499,192.111 C112.357,176.74 113.78,137.459 113.78,132.762 C113.78,128.066 112.428,122.515 111.788,121.448 C111.147,120.38 109.765,118.986 109.439,120.38 C108.941,122.515 109.51,127.069 109.51,133.189 C109.51,137.032 108.921,146.106 108.921,146.106" id="Fill-528" fill="#000000"></path>
            <path d="M130.23,99.552 L143.749,104.714 C143.715,104.93 143.665,105.15 143.598,105.376 C143.507,105.678 143.187,105.845 142.888,105.746 C138.671,104.342 134.983,103.058 130.734,101.356 C130.547,101.281 130.37,101.173 130.239,101.021 C130.103,100.865 130.037,100.701 130.015,100.531 C130.046,100.527 130.088,100.526 130.147,100.526 C130.088,100.526 130.046,100.527 130.015,100.531 C129.977,100.22 130.093,99.89 130.23,99.552" id="Fill-529" fill="#333333"></path>
            <path d="M126.291,84.45 C128.682,87.795 129.619,88.332 132.709,91.739 C133.539,92.655 134.609,93.643 135.739,94.634 C134.438,94.428 133.077,94.669 131.855,95.402 C131.123,96.03 130.699,96.864 130.431,97.777 C130.1,97.309 129.283,97.254 128.421,97.272 C127.215,97.297 127.189,97.745 126.194,98.427 C124.648,99.486 119.754,102.013 119.754,102.013 C119.754,102.013 121.101,95.676 121.414,94.244 C121.878,92.119 125.065,72.798 125.065,72.798 C125.065,72.798 126.46,75.321 126.291,84.45" id="Fill-530" fill="#333333"></path>
            <path d="M131.855,95.402 C133.077,94.669 134.438,94.428 135.739,94.634 C137.453,96.136 139.308,97.644 140.687,98.913 C142.647,100.716 144.113,102.421 143.749,104.714 L130.23,99.552 C130.365,99.223 130.519,98.887 130.569,98.553 C130.621,98.213 130.563,97.963 130.431,97.777 C130.699,96.864 131.123,96.03 131.855,95.402" id="Fill-531" fill="#000000"></path>
            <path d="M132.336,147.16 C132.339,146.977 132.225,146.805 132.405,146.835 C133.271,146.98 134.317,148.531 134.498,150.082 C134.657,151.45 134.803,152.608 134.678,153.979 C134.503,155.91 133.932,157.714 132.801,159.273 C132.652,159.478 132.326,159.37 132.324,159.117 C132.308,157.465 132.331,158.073 132.313,156.504 C133.618,155.419 134.166,152.813 133.632,151.201 C133.399,150.494 133.041,149.139 132.305,149.253 L132.336,147.16" id="Fill-532" fill="#D9D9D9"></path>
            <path d="M131.625,209.782 C131.628,209.6 131.513,209.428 131.694,209.458 C132.56,209.602 133.606,211.153 133.786,212.705 C133.945,214.073 134.091,215.23 133.967,216.601 C133.791,218.533 133.22,220.336 132.089,221.896 C131.941,222.101 131.615,221.993 131.612,221.739 C131.596,220.087 131.619,220.696 131.601,219.127 C132.907,218.041 133.454,215.435 132.921,213.823 C132.687,213.116 132.329,211.761 131.593,211.875 L131.625,209.782" id="Fill-533" fill="#D9D9D9"></path>
            <path d="M10.409,164.166 C12.943,163.418 15.369,165.756 17.89,166.748" id="Stroke-534" stroke="#000000" stroke-width="0.5"></path>
        </g>
    </g>
</svg>