<?xml version="1.0" encoding="UTF-8"?>
<svg width="156px" height="296px" viewBox="0 0 156 296" version="1.1" xmlns="http://www.w3.org/2000/svg" xmlns:xlink="http://www.w3.org/1999/xlink">
    <!-- Generator: Sketch 46.2 (44496) - http://www.bohemiancoding.com/sketch -->
    <title>car5</title>
    <desc>Created with Sketch.</desc>
    <defs>
        <path d="M7.503,16.339 C8.312,22.003 9.123,27.411 10.094,32.886 L6.438,48.348 C3.718,38.061 3.667,25.73 2.075,15.381 C1.4,11.272 0.692,7.225 0.004,3.211 L8.67,0.475 C8.656,1.931 8.594,3.387 8.461,4.843 C7.823,8.675 7.184,12.507 7.503,16.339 Z" id="path-1"></path>
        <path d="M3.037,16.339 C3.356,12.507 2.717,8.675 2.079,4.843 C1.946,3.387 1.884,1.931 1.87,0.475 L10.536,3.211 C9.848,7.225 9.14,11.272 8.465,15.381 C6.873,25.73 6.822,38.061 4.102,48.348 L0.446,32.886 C1.417,27.411 2.228,22.003 3.037,16.339 Z" id="path-3"></path>
    </defs>
    <g id="Page-1" stroke="none" stroke-width="1" fill="none" fill-rule="evenodd">
        <g id="car5">
            <path d="M141.729,28.015 C140.8,19.039 133.372,12.849 133.372,12.849 C133.372,12.849 127.182,8.825 116.039,5.111 C106.644,1.979 85.01,1.142 78.457,0.956 C71.904,1.142 49.896,1.979 40.501,5.111 C29.358,8.825 23.168,12.849 23.168,12.849 C23.168,12.849 15.74,19.039 14.811,28.015 C14.704,29.052 14.592,30.264 14.479,31.602 C17.256,28.456 21.149,26.525 25.394,25.818 C43.304,22.962 60.955,23.905 78.457,23.5 C95.958,23.905 113.236,22.962 131.146,25.818 C135.391,26.525 139.284,28.456 142.061,31.602 C141.948,30.264 141.836,29.052 141.729,28.015" id="Fill-37" fill="#808080"></path>
            <path d="M141.729,28.015 C140.8,19.039 133.372,12.849 133.372,12.849 C133.372,12.849 127.182,8.825 116.039,5.111 C106.644,1.979 85.01,1.142 78.457,0.956 C71.904,1.142 49.896,1.979 40.501,5.111 C29.358,8.825 23.168,12.849 23.168,12.849 C23.168,12.849 15.74,19.039 14.811,28.015 C14.704,29.052 14.592,30.264 14.479,31.602 C17.256,28.456 21.149,26.525 25.394,25.818 C43.304,22.962 60.955,23.905 78.457,23.5 C95.958,23.905 113.236,22.962 131.146,25.818 C135.391,26.525 139.284,28.456 142.061,31.602 C141.948,30.264 141.836,29.052 141.729,28.015 Z" id="Stroke-38" stroke="#333333"></path>
            <path d="M20.603,169.295 C20.444,168.553 20.604,169.196 20.604,169.196 C18.05,147.162 19.008,125.448 21.243,103.414 C21.889,98.249 21.518,93.229 21.013,88.255 C18.436,87.694 15.951,86.861 13.652,85.466 C13.6,93.644 13.188,107.834 12.954,120.251 C12.644,136.655 13.573,174.416 13.573,174.416 C13.573,174.416 13.577,174.59 13.585,174.908 C13.689,174.93 13.793,174.944 13.898,174.944 C15.655,175.32 17.412,175.645 19.168,175.903 C19.287,174.208 19.442,172.506 19.646,170.793 C19.646,170.154 20.126,169.878 20.603,169.295" id="Fill-39" fill="#808080"></path>
            <path d="M20.603,169.295 C20.444,168.553 20.604,169.196 20.604,169.196 C18.05,147.162 19.008,125.448 21.243,103.414 C21.889,98.249 21.518,93.229 21.013,88.255 C18.436,87.694 15.951,86.861 13.652,85.466 C13.6,93.644 13.188,107.834 12.954,120.251 C12.644,136.655 13.573,174.416 13.573,174.416 C13.573,174.416 13.577,174.59 13.585,174.908 C13.689,174.93 13.793,174.944 13.898,174.944 C15.655,175.32 17.412,175.645 19.168,175.903 C19.287,174.208 19.442,172.506 19.646,170.793 C19.646,170.154 20.126,169.878 20.603,169.295 Z" id="Stroke-40" stroke="#333333"></path>
            <path d="M18.7,87.658 C19.279,77.677 21.165,45.833 21.882,41.89 C22.679,37.505 22.543,30.321 24.794,25.929 C20.784,26.713 17.124,28.605 14.479,31.602 C13.613,41.843 12.644,59.539 12.644,63.919 C12.644,68.871 13.263,75.062 13.573,79.704 C13.648,80.833 13.668,82.841 13.652,85.466 C15.254,86.438 16.949,87.134 18.7,87.658" id="Fill-41" fill="#808080"></path>
            <path d="M18.7,87.658 C19.279,77.677 21.165,45.833 21.882,41.89 C22.679,37.505 22.543,30.321 24.794,25.929 C20.784,26.713 17.124,28.605 14.479,31.602 C13.613,41.843 12.644,59.539 12.644,63.919 C12.644,68.871 13.263,75.062 13.573,79.704 C13.648,80.833 13.668,82.841 13.652,85.466 C15.254,86.438 16.949,87.134 18.7,87.658 Z" id="Stroke-42" stroke="#333333"></path>
            <path d="M22.84,90.322 C22.665,89.725 22.514,89.125 22.373,88.524 C21.917,88.441 21.463,88.354 21.013,88.255 C21.518,93.229 21.889,98.249 21.243,103.414 C21.145,104.382 21.05,105.348 20.957,106.314 C22.823,107.407 24.962,107.861 26.947,108.673 C25.932,102.531 24.596,96.41 22.84,90.322" id="Fill-43" fill="#1A1A1A"></path>
            <path d="M26.947,108.673 C24.962,107.861 22.823,107.407 20.957,106.314 C18.943,127.235 18.172,147.893 20.564,168.836 C23.125,171.229 26.461,172.893 29.905,173.726 C30.11,152.05 30.51,130.224 26.947,108.673" id="Fill-44"></path>
            <path d="M19.168,175.903 C17.412,175.645 15.655,175.32 13.898,174.944 C13.793,174.944 13.689,174.93 13.585,174.908 C13.669,178.508 14.192,200.893 14.192,206.297 C14.192,210.673 14.021,214.533 13.933,216.223 C14.612,216.742 15.213,217.295 15.814,217.095 C17.879,216.481 19.945,215.89 22.01,215.323 C19.852,202.18 18.23,189.31 19.168,175.903" id="Fill-46" fill="#808080"></path>
            <path d="M19.168,175.903 C17.412,175.645 15.655,175.32 13.898,174.944 C13.793,174.944 13.689,174.93 13.585,174.908 C13.669,178.508 14.192,200.893 14.192,206.297 C14.192,210.673 14.021,214.533 13.933,216.223 C14.612,216.742 15.213,217.295 15.814,217.095 C17.879,216.481 19.945,215.89 22.01,215.323 C19.852,202.18 18.23,189.31 19.168,175.903 Z" id="Stroke-47" stroke="#333333"></path>
            <path d="M37.996,176.491 C35.291,176.514 32.586,176.528 29.88,176.534 C29.84,181.443 29.818,186.343 29.865,191.23 C29.865,198.45 31.064,205.671 31.511,212.891 C34.176,212.261 36.842,211.674 39.511,211.139 C39.196,199.579 38.637,188.035 37.996,176.491" id="Fill-48" fill="#808080"></path>
            <path d="M37.996,176.491 C35.291,176.514 32.586,176.528 29.88,176.534 C29.84,181.443 29.818,186.343 29.865,191.23 C29.865,198.45 31.064,205.671 31.511,212.891 C34.176,212.261 36.842,211.674 39.511,211.139 C39.196,199.579 38.637,188.035 37.996,176.491 Z" id="Stroke-49" stroke="#333333"></path>
            <path d="M22.01,215.323 C25.176,214.452 28.342,213.641 31.511,212.891 C31.064,205.671 29.865,198.45 29.865,191.23 C29.843,188.958 29.837,186.684 29.84,184.408 C25.958,182.89 22.224,180.773 19.042,178.059 C18.409,190.693 19.968,202.886 22.01,215.323" id="Fill-50"></path>
            <path d="M20.564,168.836 C20.578,168.956 20.59,169.076 20.604,169.196 C20.604,169.196 20.603,169.295 20.444,169.56 C19.806,170.518 19.646,170.154 19.646,170.793 C19.442,172.506 19.287,174.208 19.168,175.903 C19.118,176.624 19.078,177.342 19.042,178.059 C22.224,180.773 25.958,182.89 29.84,184.408 C29.843,181.786 29.858,179.161 29.88,176.534 C29.888,175.598 29.897,174.662 29.905,173.726 C26.461,172.893 23.125,171.229 20.564,168.836" id="Fill-52" fill="#000000"></path>
            <path d="M31.461,272.339 C26.671,261.162 26.991,245.835 25.075,233.381 C24.069,227.255 22.985,221.261 22.01,215.323 C19.945,215.89 17.879,216.481 15.814,217.095 C15.213,217.295 14.612,216.742 13.933,216.223 C13.903,216.804 13.882,217.13 13.882,217.13 C13.882,217.13 13.263,235.701 13.263,243.748 C13.263,251.796 13.882,260.462 15.12,265.724 C16.359,270.986 18.867,276.131 21.311,279.343 C22.521,280.932 24.985,283.785 24.985,283.785 L25.587,283.785 C29.722,280.08 33.798,278.182 31.461,272.339" id="Fill-53" fill="#808080"></path>
            <path d="M31.461,272.339 C26.671,261.162 26.991,245.835 25.075,233.381 C24.069,227.255 22.985,221.261 22.01,215.323 C19.945,215.89 17.879,216.481 15.814,217.095 C15.213,217.295 14.612,216.742 13.933,216.223 C13.903,216.804 13.882,217.13 13.882,217.13 C13.882,217.13 13.263,235.701 13.263,243.748 C13.263,251.796 13.882,260.462 15.12,265.724 C16.359,270.986 18.867,276.131 21.311,279.343 C22.521,280.932 24.985,283.785 24.985,283.785 L25.587,283.785 C29.722,280.08 33.798,278.182 31.461,272.339 Z" id="Stroke-54" stroke="#333333"></path>
            <path d="M31.461,222.843 C30.823,226.675 30.184,230.507 30.503,234.339 C31.781,243.28 33.058,251.583 34.974,260.524 C35.218,262.232 36.582,263.565 38.352,264.242 C40.978,255.086 39.555,244.148 39.764,234.978 C39.831,227.019 39.728,219.075 39.511,211.139 C36.842,211.674 34.176,212.261 31.511,212.891 C31.716,216.209 31.763,219.526 31.461,222.843" id="Fill-55" fill="#808080"></path>
            <path d="M31.461,222.843 C30.823,226.675 30.184,230.507 30.503,234.339 C31.781,243.28 33.058,251.583 34.974,260.524 C35.218,262.232 36.582,263.565 38.352,264.242 C40.978,255.086 39.555,244.148 39.764,234.978 C39.831,227.019 39.728,219.075 39.511,211.139 C36.842,211.674 34.176,212.261 31.511,212.891 C31.716,216.209 31.763,219.526 31.461,222.843 Z" id="Stroke-56" stroke="#333333"></path>
            <path d="M31.511,212.891 C28.342,213.641 25.176,214.452 22.01,215.323 C22.331,217.277 22.666,219.242 23.004,221.211 L31.67,218.475 C31.688,216.614 31.626,214.753 31.511,212.891" id="Fill-57" fill="#000000"></path>
            <g id="Group-60" transform="translate(23.000000, 218.000000)">
                <mask id="mask-2" fill="white">
                    <use xlink:href="#path-1"></use>
                </mask>
                <g id="Clip-59"></g>
                <path d="M7.503,16.339 C7.184,12.507 7.823,8.675 8.461,4.843 C8.594,3.387 8.656,1.931 8.67,0.475 L0.004,3.211 C0.692,7.225 1.4,11.272 2.075,15.381 C3.667,25.73 3.718,38.061 6.438,48.348 L10.094,32.886 C9.123,27.411 8.312,22.003 7.503,16.339" id="Fill-58" mask="url(#mask-2)"></path>
            </g>
            <path d="M34.974,260.524 C34.272,257.246 33.656,254.055 33.094,250.886 L29.438,266.348 C29.991,268.44 30.652,270.45 31.461,272.339 C31.846,273.3 32.054,274.152 32.119,274.925 C35.286,271.902 37.205,268.242 38.352,264.242 C36.582,263.565 35.218,262.232 34.974,260.524" id="Fill-61" fill="#000000"></path>
            <path d="M29.88,176.534 C32.586,176.528 35.291,176.514 37.996,176.491 C36.981,158.218 35.763,139.943 34.987,121.595 C32.777,121.639 30.658,121.952 28.791,123.201 C30.425,140.935 30.027,158.791 29.88,176.534" id="Fill-62" fill="#808080"></path>
            <path d="M29.88,176.534 C32.586,176.528 35.291,176.514 37.996,176.491 C36.981,158.218 35.763,139.943 34.987,121.595 C32.777,121.639 30.658,121.952 28.791,123.201 C30.425,140.935 30.027,158.791 29.88,176.534 Z" id="Stroke-63" stroke="#333333"></path>
            <path d="M32.419,107.246 C31.476,101.184 30.477,95.292 29.492,89.427 C28.158,81.485 26.853,73.59 25.754,65.389 C23.982,66.162 22.232,66.869 20.285,66.692 C21.168,74.053 20.699,81.413 22.373,88.524 C22.514,89.125 22.665,89.725 22.84,90.322 C25.977,101.197 27.775,112.176 28.791,123.201 C30.658,121.952 32.777,121.639 34.987,121.595 C34.983,121.495 34.978,121.396 34.974,121.297 C34.655,116.507 33.058,112.036 32.419,107.246" id="Fill-64" fill="#333333"></path>
            <path d="M39.425,5.476 C29.938,8.747 24.292,12.146 23.32,12.752 C23.56,14.148 23.641,15.571 23.553,16.984 C28.973,13.331 34.266,9.49 39.425,5.476" id="Fill-65" fill="#000000"></path>
            <path d="M14.041,151.653 C11.692,154.099 11.479,157.832 11.401,161.222 C11.386,161.882 11.376,162.57 11.66,163.165 C11.843,163.549 12.138,163.87 12.342,164.244 C12.898,165.267 12.7,166.513 12.804,167.673 C12.849,168.18 12.968,168.708 13.311,169.085 C13.654,169.461 14.277,169.619 14.685,169.313 C14.689,167.118 14.693,164.923 14.697,162.728 C13.875,162.86 13.089,162.216 12.772,161.447 C12.455,160.677 12.497,159.814 12.544,158.983 C12.65,157.114 12.952,154.919 14.601,154.033 C14.767,153.944 14.957,153.858 15.034,153.685 C15.113,153.508 15.044,153.302 14.973,153.121 C14.82,152.726 14.661,152.333 14.496,151.942 C14.443,151.816 14.346,151.666 14.213,151.696 C14.08,151.725 14.231,151.985 14.277,151.857" id="Fill-66" fill="#333333"></path>
            <path d="M21.44,92.475 C20.83,91.903 20.18,91.513 19.685,91.216 C19.113,90.873 18.693,90.644 18.693,90.644 C18.858,92.78 17.63,95.119 15.822,96.268 C13.69,97.624 11.259,98.418 8.921,99.377 C6.582,100.336 4.249,101.523 2.612,103.449 C1.16,105.158 0.372,107.571 0.944,109.7 L16.699,105.073 C16.874,104.681 16.971,104.151 16.932,103.414 C17.33,103.264 17.9,103 18.298,102.85 C19.258,104.374 19.456,104.495 21.021,105.449 C21.86,100.298 21.784,97.054 21.44,92.475" id="Fill-67" fill="#333333"></path>
            <path d="M1.225,110.496 C5.505,109.181 8.128,108.401 12.408,107.087 C13.204,106.842 14.545,106.445 15.335,106.182 C15.843,106.013 16.392,105.756 16.699,105.073 L0.944,109.7 C1.016,109.97 1.107,110.237 1.225,110.496" id="Fill-68" fill="#000000"></path>
            <path d="M135.937,169.295 C136.096,168.553 135.936,169.196 135.936,169.196 C138.49,147.162 137.532,125.448 135.297,103.414 C134.651,98.249 135.022,93.229 135.527,88.255 C138.104,87.694 140.589,86.861 142.888,85.466 C142.94,93.644 143.352,107.834 143.586,120.251 C143.896,136.655 142.967,174.416 142.967,174.416 C142.967,174.416 142.963,174.59 142.955,174.908 C142.851,174.93 142.747,174.944 142.642,174.944 C140.885,175.32 139.128,175.645 137.372,175.903 C137.253,174.208 137.098,172.506 136.894,170.793 C136.894,170.154 136.414,169.878 135.937,169.295" id="Fill-69" fill="#808080"></path>
            <path d="M135.937,169.295 C136.096,168.553 135.936,169.196 135.936,169.196 C138.49,147.162 137.532,125.448 135.297,103.414 C134.651,98.249 135.022,93.229 135.527,88.255 C138.104,87.694 140.589,86.861 142.888,85.466 C142.94,93.644 143.352,107.834 143.586,120.251 C143.896,136.655 142.967,174.416 142.967,174.416 C142.967,174.416 142.963,174.59 142.955,174.908 C142.851,174.93 142.747,174.944 142.642,174.944 C140.885,175.32 139.128,175.645 137.372,175.903 C137.253,174.208 137.098,172.506 136.894,170.793 C136.894,170.154 136.414,169.878 135.937,169.295 Z" id="Stroke-70" stroke="#333333"></path>
            <path d="M134.659,41.89 C133.807,37.207 134.02,29.33 131.252,25.073 C128.485,20.815 122.311,14.854 115.286,11.874 C108.261,8.893 99.532,7.616 93.997,7.19 C90.4,6.913 83.116,6.547 78.457,6.324 C73.798,6.547 66.14,6.913 62.543,7.19 C57.008,7.616 48.279,8.893 41.254,11.874 C34.229,14.854 28.055,20.815 25.288,25.073 C22.52,29.33 22.733,37.207 21.882,41.89 C21.03,46.574 18.529,90.641 18.529,90.641 L23.797,94.154 L27.904,94.161 C22.295,79.523 18.175,61.262 31.142,50.406 C44.13,39.273 61.673,37.601 78.457,36.807 C95.24,37.601 112.41,39.273 125.398,50.406 C138.365,61.262 134.245,79.523 128.636,94.161 L132.743,94.154 L138.011,90.641 C138.011,90.641 135.51,46.574 134.659,41.89" id="Fill-71" fill="#666666"></path>
            <path d="M137.84,87.658 C137.261,77.677 135.375,45.833 134.658,41.89 C133.861,37.505 133.997,30.321 131.746,25.929 C135.756,26.713 139.416,28.605 142.061,31.602 C142.927,41.843 143.896,59.539 143.896,63.919 C143.896,68.871 143.277,75.062 142.967,79.704 C142.892,80.833 142.872,82.841 142.888,85.466 C141.286,86.438 139.591,87.134 137.84,87.658" id="Fill-72" fill="#808080"></path>
            <path d="M137.84,87.658 C137.261,77.677 135.375,45.833 134.658,41.89 C133.861,37.505 133.997,30.321 131.746,25.929 C135.756,26.713 139.416,28.605 142.061,31.602 C142.927,41.843 143.896,59.539 143.896,63.919 C143.896,68.871 143.277,75.062 142.967,79.704 C142.892,80.833 142.872,82.841 142.888,85.466 C141.286,86.438 139.591,87.134 137.84,87.658 Z" id="Stroke-73" stroke="#333333"></path>
            <path d="M135.616,52.96 C134.339,38.91 133.618,30.826 127.953,23.902 C125.079,20.389 119.378,17.191 106.877,11.448 C97.69,7.227 84.065,6.674 78.457,6.637 C72.848,6.674 58.85,7.227 49.663,11.448 C37.162,17.191 31.461,20.389 28.587,23.902 C22.922,30.826 22.201,38.91 20.924,52.96 C19.646,67.011 20.285,91.599 20.285,91.599 L23.797,94.154 L21.882,78.187 L21.562,67.011 C21.562,67.011 26.671,35.078 31.461,29.33 C36.251,23.582 46.15,14.96 50.94,13.683 C54.732,12.672 71.705,11.261 78.457,10.716 C85.209,11.261 101.808,12.672 105.6,13.683 C110.39,14.96 120.289,23.582 125.079,29.33 C129.869,35.078 134.978,67.011 134.978,67.011 L134.659,78.187 L132.743,94.154 L136.255,91.599 C136.255,91.599 136.894,67.011 135.616,52.96" id="Fill-74" fill="#000000"></path>
            <path d="M133.701,90.322 C133.875,89.725 134.026,89.125 134.167,88.524 C134.623,88.441 135.077,88.354 135.527,88.255 C135.022,93.229 134.651,98.249 135.297,103.414 C135.395,104.382 135.49,105.348 135.583,106.314 C133.717,107.407 131.578,107.861 129.593,108.673 C130.608,102.531 131.944,96.41 133.701,90.322" id="Fill-75" fill="#1A1A1A"></path>
            <path d="M129.593,108.673 C131.578,107.861 133.717,107.407 135.583,106.314 C137.597,127.235 138.368,147.893 135.976,168.836 C133.415,171.229 130.079,172.893 126.635,173.726 C126.43,152.05 126.03,130.224 129.593,108.673" id="Fill-76"></path>
            <path d="M137.372,175.903 C139.128,175.645 140.885,175.32 142.642,174.944 C142.747,174.944 142.851,174.93 142.955,174.908 C142.871,178.508 142.348,200.893 142.348,206.297 C142.348,210.673 142.519,214.533 142.607,216.223 C141.928,216.742 141.327,217.295 140.726,217.095 C138.661,216.481 136.595,215.89 134.53,215.323 C136.688,202.18 138.31,189.31 137.372,175.903" id="Fill-78" fill="#808080"></path>
            <path d="M137.372,175.903 C139.128,175.645 140.885,175.32 142.642,174.944 C142.747,174.944 142.851,174.93 142.955,174.908 C142.871,178.508 142.348,200.893 142.348,206.297 C142.348,210.673 142.519,214.533 142.607,216.223 C141.928,216.742 141.327,217.295 140.726,217.095 C138.661,216.481 136.595,215.89 134.53,215.323 C136.688,202.18 138.31,189.31 137.372,175.903 Z" id="Stroke-79" stroke="#333333"></path>
            <path d="M118.544,176.491 C121.249,176.514 123.954,176.528 126.66,176.534 C126.7,181.443 126.722,186.343 126.675,191.23 C126.675,198.45 125.476,205.671 125.029,212.891 C122.364,212.261 119.698,211.674 117.029,211.139 C117.344,199.579 117.903,188.035 118.544,176.491" id="Fill-80" fill="#808080"></path>
            <path d="M118.544,176.491 C121.249,176.514 123.954,176.528 126.66,176.534 C126.7,181.443 126.722,186.343 126.675,191.23 C126.675,198.45 125.476,205.671 125.029,212.891 C122.364,212.261 119.698,211.674 117.029,211.139 C117.344,199.579 117.903,188.035 118.544,176.491 Z" id="Stroke-81" stroke="#333333"></path>
            <path d="M134.53,215.323 C131.364,214.452 128.198,213.641 125.029,212.891 C125.476,205.671 126.675,198.45 126.675,191.23 C126.697,188.958 126.703,186.684 126.7,184.408 C130.582,182.89 134.316,180.773 137.498,178.059 C138.131,190.693 136.572,202.886 134.53,215.323" id="Fill-82"></path>
            <path d="M135.976,168.836 C135.962,168.956 135.95,169.076 135.936,169.196 C135.936,169.196 135.937,169.295 136.096,169.56 C136.734,170.518 136.894,170.154 136.894,170.793 C137.098,172.506 137.253,174.208 137.372,175.903 C137.422,176.624 137.462,177.342 137.498,178.059 C134.316,180.773 130.582,182.89 126.7,184.408 C126.697,181.786 126.682,179.161 126.66,176.534 C126.652,175.598 126.643,174.662 126.635,173.726 C130.079,172.893 133.415,171.229 135.976,168.836" id="Fill-84" fill="#000000"></path>
            <path d="M125.079,272.339 C129.869,261.162 129.549,245.835 131.465,233.381 C132.471,227.255 133.555,221.261 134.53,215.323 C136.595,215.89 138.661,216.481 140.726,217.095 C141.327,217.295 141.928,216.742 142.607,216.223 C142.637,216.804 142.658,217.13 142.658,217.13 C142.658,217.13 143.277,235.701 143.277,243.748 C143.277,251.796 142.658,260.462 141.42,265.724 C140.181,270.986 137.673,276.131 135.229,279.343 C134.019,280.932 131.555,283.785 131.555,283.785 L130.953,283.785 C126.818,280.08 122.742,278.182 125.079,272.339" id="Fill-85" fill="#808080"></path>
            <path d="M125.079,272.339 C129.869,261.162 129.549,245.835 131.465,233.381 C132.471,227.255 133.555,221.261 134.53,215.323 C136.595,215.89 138.661,216.481 140.726,217.095 C141.327,217.295 141.928,216.742 142.607,216.223 C142.637,216.804 142.658,217.13 142.658,217.13 C142.658,217.13 143.277,235.701 143.277,243.748 C143.277,251.796 142.658,260.462 141.42,265.724 C140.181,270.986 137.673,276.131 135.229,279.343 C134.019,280.932 131.555,283.785 131.555,283.785 L130.953,283.785 C126.818,280.08 122.742,278.182 125.079,272.339 Z" id="Stroke-86" stroke="#333333"></path>
            <path d="M125.079,222.843 C125.717,226.675 126.356,230.507 126.037,234.339 C124.759,243.28 123.482,251.583 121.566,260.524 C121.322,262.232 119.958,263.565 118.188,264.242 C115.562,255.086 116.985,244.148 116.776,234.978 C116.709,227.019 116.812,219.075 117.029,211.139 C119.698,211.674 122.364,212.261 125.029,212.891 C124.824,216.209 124.777,219.526 125.079,222.843" id="Fill-87" fill="#808080"></path>
            <path d="M125.079,222.843 C125.717,226.675 126.356,230.507 126.037,234.339 C124.759,243.28 123.482,251.583 121.566,260.524 C121.322,262.232 119.958,263.565 118.188,264.242 C115.562,255.086 116.985,244.148 116.776,234.978 C116.709,227.019 116.812,219.075 117.029,211.139 C119.698,211.674 122.364,212.261 125.029,212.891 C124.824,216.209 124.777,219.526 125.079,222.843 Z" id="Stroke-88" stroke="#333333"></path>
            <path d="M125.029,212.891 C128.198,213.641 131.364,214.452 134.53,215.323 C134.209,217.277 133.874,219.242 133.536,221.211 L124.87,218.475 C124.852,216.614 124.914,214.753 125.029,212.891" id="Fill-89" fill="#000000"></path>
            <g id="Group-92" transform="translate(123.000000, 218.000000)">
                <mask id="mask-4" fill="white">
                    <use xlink:href="#path-3"></use>
                </mask>
                <g id="Clip-91"></g>
                <path d="M3.037,16.339 C3.356,12.507 2.717,8.675 2.079,4.843 C1.946,3.387 1.884,1.931 1.87,0.475 L10.536,3.211 C9.848,7.225 9.14,11.272 8.465,15.381 C6.873,25.73 6.822,38.061 4.102,48.348 L0.446,32.886 C1.417,27.411 2.228,22.003 3.037,16.339" id="Fill-90" mask="url(#mask-4)"></path>
            </g>
            <path d="M121.566,260.524 C122.268,257.246 122.884,254.055 123.446,250.886 L127.102,266.348 C126.549,268.44 125.888,270.45 125.079,272.339 C124.694,273.3 124.486,274.152 124.421,274.925 C121.254,271.902 119.335,268.242 118.188,264.242 C119.958,263.565 121.322,262.232 121.566,260.524" id="Fill-93" fill="#000000"></path>
            <path d="M134.978,67.011 C134.978,67.011 129.264,36.615 127.314,31.246 C123.609,21.048 106.877,11.448 106.877,11.448 C106.877,11.448 106.558,12.406 102.726,12.086 C98.894,11.767 84.524,9.851 84.524,9.851 C84.524,9.851 81.969,9.532 81.331,8.574 C80.692,7.616 80.271,7.138 80.271,7.138 L76.269,7.138 C76.269,7.138 75.848,7.616 75.209,8.574 C74.571,9.532 72.016,9.851 72.016,9.851 C72.016,9.851 57.646,11.767 53.814,12.086 C49.982,12.406 49.663,11.448 49.663,11.448 C49.663,11.448 32.931,21.048 29.226,31.246 C27.276,36.615 21.562,67.011 21.562,67.011 L25.185,66.105 L25.075,65.414 C25.075,65.414 27.31,58.07 28.268,56.154 C29.226,54.238 32.739,51.045 35.932,49.767 C39.125,48.49 53.814,43.061 67.226,42.423 C72.265,42.183 76.099,42.078 78.457,42.041 C80.815,42.078 84.275,42.183 89.314,42.423 C102.726,43.061 117.415,48.49 120.608,49.767 C123.801,51.045 127.314,54.238 128.272,56.154 C129.23,58.07 131.465,65.414 131.465,65.414 L131.355,66.105 L134.978,67.011" id="Fill-94" fill="#A6A6A6"></path>
            <path d="M118.186,264.231 C116.64,266.521 113.679,267.67 111.348,268.188 C100.384,271.178 89.42,272.418 78.457,271.756 C67.493,272.418 56.156,271.178 45.192,268.188 C42.861,267.67 39.9,266.521 38.354,264.231 C37.221,268.186 35.334,271.809 32.233,274.814 C40.977,290.945 61.113,290.458 78.457,290.582 C95.8,290.458 115.563,290.945 124.307,274.814 C121.206,271.809 119.32,268.186 118.186,264.231" id="Fill-95"></path>
            <path d="M78.457,119.842 C64.09,119.65 49.349,120.53 34.982,121.469 C35.757,139.86 36.978,158.177 37.996,176.491 C38.637,188.035 39.196,199.579 39.511,211.139 C39.728,219.075 39.831,227.019 39.764,234.978 C39.676,238.864 39.88,243.068 39.944,247.319 C51.703,252.544 65.637,251.904 78.457,252.221 C91.276,251.904 104.837,252.544 116.596,247.319 C116.66,243.068 116.865,238.864 116.776,234.978 C116.709,227.019 116.812,219.075 117.029,211.139 C117.344,199.579 117.903,188.035 118.544,176.491 C119.562,158.177 120.783,139.86 121.558,121.469 C107.191,120.53 92.824,119.65 78.457,119.842" id="Fill-97" fill="#808080"></path>
            <path d="M78.457,119.842 C64.09,119.65 49.349,120.53 34.982,121.469 C35.757,139.86 36.978,158.177 37.996,176.491 C38.637,188.035 39.196,199.579 39.511,211.139 C39.728,219.075 39.831,227.019 39.764,234.978 C39.676,238.864 39.88,243.068 39.944,247.319 C51.703,252.544 65.637,251.904 78.457,252.221 C91.276,251.904 104.837,252.544 116.596,247.319 C116.66,243.068 116.865,238.864 116.776,234.978 C116.709,227.019 116.812,219.075 117.029,211.139 C117.344,199.579 117.903,188.035 118.544,176.491 C119.562,158.177 120.783,139.86 121.558,121.469 C107.191,120.53 92.824,119.65 78.457,119.842 Z" id="Stroke-98" stroke="#333333"></path>
            <path d="M116.596,247.319 C104.837,252.544 91.276,251.745 78.457,252.062 C65.637,251.745 51.703,252.544 39.944,247.319 C40.009,251.583 39.934,255.895 39.282,259.981 C40.723,262.361 42.459,264.56 44.873,265.633 C55.559,269.64 67.064,269.402 78.457,269.777 C89.849,269.402 100.982,269.64 111.667,265.633 C114.081,264.56 115.817,262.361 117.258,259.981 C116.606,255.895 116.531,251.583 116.596,247.319" id="Fill-99" fill="#808080"></path>
            <path d="M116.596,247.319 C104.837,252.544 91.276,251.745 78.457,252.062 C65.637,251.745 51.703,252.544 39.944,247.319 C40.009,251.583 39.934,255.895 39.282,259.981 C40.723,262.361 42.459,264.56 44.873,265.633 C55.559,269.64 67.064,269.402 78.457,269.777 C89.849,269.402 100.982,269.64 111.667,265.633 C114.081,264.56 115.817,262.361 117.258,259.981 C116.606,255.895 116.531,251.583 116.596,247.319 Z" id="Stroke-100" stroke="#333333"></path>
            <path d="M117.258,259.981 C115.817,262.361 114.081,264.56 111.667,265.633 C100.982,269.64 89.849,269.402 78.457,269.777 C67.064,269.402 55.559,269.64 44.873,265.633 C42.459,264.56 40.723,262.361 39.282,259.981 C39.051,261.43 38.749,262.851 38.354,264.231 C39.9,266.521 42.861,267.67 45.192,268.188 C56.156,271.178 67.473,272.231 78.457,272.231 C89.44,272.231 100.384,271.178 111.348,268.188 C113.679,267.67 116.64,266.521 118.186,264.231 C117.791,262.851 117.489,261.43 117.258,259.981" id="Fill-101" fill="#000000"></path>
            <path d="M124.421,274.925 C124.382,274.889 124.346,274.851 124.307,274.814 C115.563,290.945 95.8,290.458 78.457,290.582 C61.113,290.458 40.977,290.945 32.233,274.814 C32.194,274.851 32.158,274.889 32.119,274.925 C32.453,278.853 29.042,280.69 25.587,283.785 L26.281,283.785 L29.913,289.102 C29.913,289.102 34.452,291.307 39.51,292.085 C44.567,292.863 56.888,294.808 62.853,295.068 C66.765,295.238 74.116,295.408 78.457,295.505 C82.798,295.408 89.775,295.238 93.687,295.068 C99.652,294.808 111.973,292.863 117.03,292.085 C122.088,291.307 126.627,289.102 126.627,289.102 L130.259,283.785 L130.953,283.785 C127.498,280.69 124.087,278.853 124.421,274.925" id="Fill-102" fill="#808080"></path>
            <path d="M124.421,274.925 C124.382,274.889 124.346,274.851 124.307,274.814 C115.563,290.945 95.8,290.458 78.457,290.582 C61.113,290.458 40.977,290.945 32.233,274.814 C32.194,274.851 32.158,274.889 32.119,274.925 C32.453,278.853 29.042,280.69 25.587,283.785 L26.281,283.785 L29.913,289.102 C29.913,289.102 34.452,291.307 39.51,292.085 C44.567,292.863 56.888,294.808 62.853,295.068 C66.765,295.238 74.116,295.408 78.457,295.505 C82.798,295.408 89.775,295.238 93.687,295.068 C99.652,294.808 111.973,292.863 117.03,292.085 C122.088,291.307 126.627,289.102 126.627,289.102 L130.259,283.785 L130.953,283.785 C127.498,280.69 124.087,278.853 124.421,274.925 Z" id="Stroke-103" stroke="#333333"></path>
            <path d="M126.66,176.534 C123.954,176.528 121.249,176.514 118.544,176.491 C119.559,158.218 120.777,139.943 121.553,121.595 C123.763,121.639 125.882,121.952 127.749,123.201 C126.115,140.935 126.513,158.791 126.66,176.534" id="Fill-104" fill="#808080"></path>
            <path d="M126.66,176.534 C123.954,176.528 121.249,176.514 118.544,176.491 C119.559,158.218 120.777,139.943 121.553,121.595 C123.763,121.639 125.882,121.952 127.749,123.201 C126.115,140.935 126.513,158.791 126.66,176.534 Z" id="Stroke-105" stroke="#333333"></path>
            <path d="M124.121,107.246 C125.064,101.184 126.063,95.292 127.048,89.427 C128.382,81.485 129.687,73.59 130.786,65.389 C132.558,66.162 134.308,66.869 136.255,66.692 C135.372,74.053 135.841,81.413 134.167,88.524 C134.026,89.125 133.875,89.725 133.701,90.322 C130.563,101.197 128.765,112.176 127.749,123.201 C125.882,121.952 123.763,121.639 121.553,121.595 C121.557,121.495 121.562,121.396 121.566,121.297 C121.885,116.507 123.482,112.036 124.121,107.246" id="Fill-106" fill="#333333"></path>
            <path d="M128.272,56.154 C127.314,54.238 123.801,51.045 120.608,49.767 C117.415,48.49 102.726,43.061 89.314,42.423 C84.275,42.183 80.815,42.078 78.457,42.041 C76.099,42.078 72.265,42.183 67.226,42.423 C53.814,43.061 39.125,48.49 35.932,49.767 C32.739,51.045 29.226,54.238 28.268,56.154 C27.31,58.07 25.075,65.414 25.075,65.414 L34.016,121.616 C34.016,121.616 45.512,120.658 59.882,120.339 C67.912,120.16 74.518,120.181 78.457,120.235 C82.395,120.181 88.628,120.16 96.658,120.339 C111.028,120.658 122.524,121.616 122.524,121.616 L131.465,65.414 C131.465,65.414 129.23,58.07 128.272,56.154" id="Fill-107" fill="#595959"></path>
            <path d="M125.079,63.498 C121.566,60.305 110.07,55.834 99.852,53.918 C92.606,52.56 83.274,52.486 78.457,52.558 C73.64,52.486 63.934,52.56 56.688,53.918 C46.47,55.834 34.974,60.305 31.461,63.498 C27.949,66.692 27.31,68.608 27.629,72.44 C27.949,76.271 34.974,112.675 35.293,114.272 C35.613,115.868 35.293,118.103 40.722,117.465 C46.15,116.826 57.327,115.868 62.436,115.868 C67.545,115.868 72.655,116.187 72.655,116.187 C72.655,116.187 74.251,115.868 74.251,114.272 C74.251,112.963 74.681,106.932 74.835,104.801 C74.866,104.378 75.218,104.053 75.642,104.053 L80.898,104.053 C81.322,104.053 81.674,104.378 81.705,104.801 C81.859,106.932 82.289,112.963 82.289,114.272 C82.289,115.868 83.885,116.187 83.885,116.187 C83.885,116.187 88.995,115.868 94.104,115.868 C99.213,115.868 110.39,116.826 115.818,117.465 C121.247,118.103 120.927,115.868 121.247,114.272 C121.566,112.675 128.591,76.271 128.911,72.44 C129.23,68.608 128.591,66.692 125.079,63.498" id="Fill-108"></path>
            <path d="M117.115,5.476 C126.602,8.747 132.248,12.146 133.22,12.752 C132.98,14.148 132.899,15.571 132.987,16.984 C127.567,13.331 122.274,9.49 117.115,5.476" id="Fill-110" fill="#000000"></path>
            <path d="M142.499,151.653 C144.848,154.099 145.061,157.832 145.139,161.222 C145.154,161.882 145.164,162.57 144.88,163.165 C144.697,163.549 144.402,163.87 144.198,164.244 C143.642,165.267 143.84,166.513 143.736,167.673 C143.691,168.18 143.572,168.708 143.229,169.085 C142.886,169.461 142.263,169.619 141.855,169.313 C141.851,167.118 141.847,164.923 141.843,162.728 C142.665,162.86 143.451,162.216 143.768,161.447 C144.085,160.677 144.043,159.814 143.996,158.983 C143.89,157.114 143.588,154.919 141.939,154.033 C141.773,153.944 141.583,153.858 141.506,153.685 C141.427,153.508 141.496,153.302 141.567,153.121 C141.72,152.726 141.879,152.333 142.044,151.942 C142.097,151.816 142.194,151.666 142.327,151.696 C142.46,151.725 142.309,151.985 142.263,151.857" id="Fill-111" fill="#333333"></path>
            <path d="M135.1,92.475 C135.71,91.903 136.36,91.513 136.855,91.216 C137.427,90.873 137.847,90.644 137.847,90.644 C137.682,92.78 138.91,95.119 140.718,96.268 C142.85,97.624 145.281,98.418 147.619,99.377 C149.958,100.336 152.291,101.523 153.928,103.449 C155.38,105.158 156.168,107.571 155.596,109.7 L139.841,105.073 C139.666,104.681 139.569,104.151 139.608,103.414 C139.21,103.264 138.64,103 138.242,102.85 C137.282,104.374 137.084,104.495 135.519,105.449 C134.68,100.298 134.756,97.054 135.1,92.475" id="Fill-112" fill="#333333"></path>
            <path d="M155.315,110.496 C151.035,109.181 148.412,108.401 144.132,107.087 C143.336,106.842 141.995,106.445 141.205,106.182 C140.697,106.013 140.148,105.756 139.841,105.073 L155.596,109.7 C155.524,109.97 155.433,110.237 155.315,110.496" id="Fill-113" fill="#000000"></path>
            <path d="M81.101,13.727 C81.101,15.425 79.724,16.802 78.026,16.802 C76.328,16.802 74.952,15.425 74.952,13.727 C74.952,12.029 76.328,10.652 78.026,10.652 C79.724,10.652 81.101,12.029 81.101,13.727" id="Fill-114" fill="#000000"></path>
        </g>
    </g>
</svg>