<?xml version="1.0" encoding="UTF-8"?>
<svg width="151px" height="304px" viewBox="0 0 151 304" version="1.1" xmlns="http://www.w3.org/2000/svg" xmlns:xlink="http://www.w3.org/1999/xlink">
    <!-- Generator: Sketch 46.2 (44496) - http://www.bohemiancoding.com/sketch -->
    <title>car6</title>
    <desc>Created with Sketch.</desc>
    <defs>
        <path d="M6.23769989,0.926244898 C6.12434702,0.926244864 6.045,0.958 6.045,0.958 L0.988,1.153 C0.988,1.153 0.016,2.125 2.155,16.906 C2.695,20.636 4.605,29.514 5.61,34.095 C5.6558265,34.3049602 5.82366859,34.4049314 5.99174418,34.4049343 L5.99175912,34.4049343 C6.18310835,34.4049309 6.37475552,34.2753573 6.387,34.031 C6.518,31.435 6.706,27.654 6.823,25.075 C7.017,20.796 7.017,4.459 7.017,2.514 C7.017,1.12471458 6.52108184,0.926244983 6.23769989,0.926244898 L6.23769981,0.926244898 L6.23769989,0.926244898 Z" id="path-1"></path>
        <path d="M1.28325133,34.4049343 C1.45132842,34.4049332 1.6191731,34.304962 1.665,34.095 C2.671,29.514 4.58,20.636 5.12,16.906 C7.26,2.125 6.287,1.153 6.287,1.153 L1.23,0.958 C1.23,0.958 1.15065298,0.926244864 1.03730011,0.926244898 L1.03730011,0.926244898 C0.753918156,0.926244983 0.258,1.12471458 0.258,2.514 C0.258,4.459 0.258,20.796 0.453,25.075 C0.57,27.654 0.758,31.435 0.888,34.031 C0.900244483,34.2753573 1.09189165,34.4049309 1.28324087,34.4049343 L1.28325133,34.4049343 L1.28325133,34.4049343 Z" id="path-3"></path>
    </defs>
    <g id="Page-1" stroke="none" stroke-width="1" fill="none" fill-rule="evenodd">
        <g id="car6" transform="translate(1.000000, 1.000000)">
            <path d="M74.905,302.504 C74.862,302.504 74.819,302.504 74.905,302.504 C74.991,302.504 74.948,302.504 74.905,302.504 Z M140.929,187.568 C140.929,177.625 138.821,126.607 138.401,110.549 C138.082,98.352 137.845,90.183 137.845,90.183 C137.845,90.183 140.384,88.659 140.892,86.119 C141.4,83.58 141.908,74.945 141.908,71.389 C141.908,69.349 141.407,57.944 140.979,48.592 C132.612,31.751 117.408,20.516 105.341,5.514 C104.569,4.485 103.699,3.504 102.806,2.536 C101.673,2.27 100.488,2.023 99.241,1.8 C89.889,0.13 80.364,-0.002 74.905,0.103 C69.446,-0.002 59.386,0.13 50.035,1.8 C48.788,2.023 47.602,2.27 46.469,2.536 C45.576,3.504 44.706,4.485 43.934,5.514 C31.868,20.516 16.663,31.751 8.296,48.592 C7.869,57.944 7.367,69.349 7.367,71.389 C7.367,74.945 7.875,83.58 8.383,86.119 C8.891,88.659 11.431,90.183 11.431,90.183 C11.431,90.183 11.194,98.352 10.874,110.549 C10.454,126.607 8.346,177.625 8.346,187.568 C8.346,194.18 11.431,205.995 11.431,205.995 L7.367,222.757 L7.875,264.409 C7.875,264.409 11.431,274.568 18.034,284.219 C24.637,293.87 35.701,296.651 45.494,299.206 C54.424,301.535 68.25,302.501 74.867,302.505 C74.852,302.505 74.853,302.505 74.905,302.505 C74.957,302.505 74.958,302.505 74.943,302.505 C81.558,302.501 94.851,301.535 103.781,299.206 C113.574,296.651 124.638,293.87 131.241,284.219 C137.845,274.568 141.4,264.409 141.4,264.409 L141.908,222.757 L137.845,205.995 C137.845,205.995 140.929,194.18 140.929,187.568 L140.929,187.568 Z" id="Fill-195" fill="#FEF673"></path>
            <path d="M74.905,302.504 C74.862,302.504 74.819,302.504 74.905,302.504 C74.991,302.504 74.948,302.504 74.905,302.504 Z M140.929,187.568 C140.929,177.625 138.821,126.607 138.401,110.549 C138.082,98.352 137.845,90.183 137.845,90.183 C137.845,90.183 140.384,88.659 140.892,86.119 C141.4,83.58 141.908,74.945 141.908,71.389 C141.908,69.349 141.407,57.944 140.979,48.592 C132.612,31.751 117.408,20.516 105.341,5.514 C104.569,4.485 103.699,3.504 102.806,2.536 C101.673,2.27 100.488,2.023 99.241,1.8 C89.889,0.13 80.364,-0.002 74.905,0.103 C69.446,-0.002 59.386,0.13 50.035,1.8 C48.788,2.023 47.602,2.27 46.469,2.536 C45.576,3.504 44.706,4.485 43.934,5.514 C31.868,20.516 16.663,31.751 8.296,48.592 C7.869,57.944 7.367,69.349 7.367,71.389 C7.367,74.945 7.875,83.58 8.383,86.119 C8.891,88.659 11.431,90.183 11.431,90.183 C11.431,90.183 11.194,98.352 10.874,110.549 C10.454,126.607 8.346,177.625 8.346,187.568 C8.346,194.18 11.431,205.995 11.431,205.995 L7.367,222.757 L7.875,264.409 C7.875,264.409 11.431,274.568 18.034,284.219 C24.637,293.87 35.701,296.651 45.494,299.206 C54.424,301.535 68.25,302.501 74.867,302.505 C74.852,302.505 74.853,302.505 74.905,302.505 C74.957,302.505 74.958,302.505 74.943,302.505 C81.558,302.501 94.851,301.535 103.781,299.206 C113.574,296.651 124.638,293.87 131.241,284.219 C137.845,274.568 141.4,264.409 141.4,264.409 L141.908,222.757 L137.845,205.995 C137.845,205.995 140.929,194.18 140.929,187.568 Z" id="Stroke-196" stroke="#000000" stroke-width="0.25"></path>
            <path d="M74.905,302.504 C74.862,302.504 74.819,302.504 74.905,302.504 C74.991,302.504 74.948,302.504 74.905,302.504 Z M140.929,187.568 C140.929,177.625 138.821,126.607 138.401,110.549 C138.082,98.352 137.845,90.183 137.845,90.183 C137.845,90.183 140.384,88.659 140.892,86.119 C141.4,83.58 141.908,74.945 141.908,71.389 C141.908,69.349 141.407,57.944 140.979,48.592 C132.612,31.751 117.408,20.516 105.341,5.514 C104.569,4.485 103.699,3.504 102.806,2.536 C101.673,2.27 100.488,2.023 99.241,1.8 C89.889,0.13 80.364,-0.002 74.905,0.103 C69.446,-0.002 59.386,0.13 50.035,1.8 C48.788,2.023 47.602,2.27 46.469,2.536 C45.576,3.504 44.706,4.485 43.934,5.514 C31.868,20.516 16.663,31.751 8.296,48.592 C7.869,57.944 7.367,69.349 7.367,71.389 C7.367,74.945 7.875,83.58 8.383,86.119 C8.891,88.659 11.431,90.183 11.431,90.183 C11.431,90.183 11.194,98.352 10.874,110.549 C10.454,126.607 8.346,177.625 8.346,187.568 C8.346,194.18 11.431,205.995 11.431,205.995 L7.367,222.757 L7.875,264.409 C7.875,264.409 11.431,274.568 18.034,284.219 C24.637,293.87 35.701,296.651 45.494,299.206 C54.424,301.535 68.25,302.501 74.867,302.505 C74.852,302.505 74.853,302.505 74.905,302.505 C74.957,302.505 74.958,302.505 74.943,302.505 C81.558,302.501 94.851,301.535 103.781,299.206 C113.574,296.651 124.638,293.87 131.241,284.219 C137.845,274.568 141.4,264.409 141.4,264.409 L141.908,222.757 L137.845,205.995 C137.845,205.995 140.929,194.18 140.929,187.568 L140.929,187.568 Z" id="Fill-197" fill="#FEEE00"></path>
            <path d="M74.905,302.504 C74.862,302.504 74.819,302.504 74.905,302.504 C74.991,302.504 74.948,302.504 74.905,302.504 Z M140.929,187.568 C140.929,177.625 138.821,126.607 138.401,110.549 C138.082,98.352 137.845,90.183 137.845,90.183 C137.845,90.183 140.384,88.659 140.892,86.119 C141.4,83.58 141.908,74.945 141.908,71.389 C141.908,69.349 141.407,57.944 140.979,48.592 C132.612,31.751 117.408,20.516 105.341,5.514 C104.569,4.485 103.699,3.504 102.806,2.536 C101.673,2.27 100.488,2.023 99.241,1.8 C89.889,0.13 80.364,-0.002 74.905,0.103 C69.446,-0.002 59.386,0.13 50.035,1.8 C48.788,2.023 47.602,2.27 46.469,2.536 C45.576,3.504 44.706,4.485 43.934,5.514 C31.868,20.516 16.663,31.751 8.296,48.592 C7.869,57.944 7.367,69.349 7.367,71.389 C7.367,74.945 7.875,83.58 8.383,86.119 C8.891,88.659 11.431,90.183 11.431,90.183 C11.431,90.183 11.194,98.352 10.874,110.549 C10.454,126.607 8.346,177.625 8.346,187.568 C8.346,194.18 11.431,205.995 11.431,205.995 L7.367,222.757 L7.875,264.409 C7.875,264.409 11.431,274.568 18.034,284.219 C24.637,293.87 35.701,296.651 45.494,299.206 C54.424,301.535 68.25,302.501 74.867,302.505 C74.852,302.505 74.853,302.505 74.905,302.505 C74.957,302.505 74.958,302.505 74.943,302.505 C81.558,302.501 94.851,301.535 103.781,299.206 C113.574,296.651 124.638,293.87 131.241,284.219 C137.845,274.568 141.4,264.409 141.4,264.409 L141.908,222.757 L137.845,205.995 C137.845,205.995 140.929,194.18 140.929,187.568 Z M18.849,197.292 C18.849,197.292 18.92,198.285 19.045,199.958 C18.999,199.055 18.963,198.18 18.935,197.347 L18.849,197.292 Z" id="Stroke-198" stroke="#000000" stroke-width="0.25"></path>
            <path d="M18.036,182.227 C18.407,186.659 18.849,189.901 18.849,189.901 L27.99,190.485 C27.99,190.485 28.06,187.542 28.155,183.368 L18.036,182.227" id="Fill-199" fill="#333333"></path>
            <path d="M18.036,182.227 C18.407,186.659 18.849,189.901 18.849,189.901 L27.99,190.485 C27.99,190.485 28.06,187.542 28.155,183.368 L18.036,182.227 Z" id="Stroke-200" stroke="#000000"></path>
            <path d="M11.153,188.724 C10.15,165.968 12.035,143.221 10.559,120.612 C9.868,140.891 8.48,175.842 8.355,186.245" id="Fill-201" fill="#FEF566"></path>
            <path d="M11.153,188.724 C10.15,165.968 12.035,143.221 10.559,120.612 C9.868,140.891 8.48,175.842 8.355,186.245" id="Stroke-202" stroke="#000000" stroke-width="0.25"></path>
            <path d="M18.036,182.227 C17.98,181.568 17.927,180.882 17.876,180.177 C17.487,174.731 17.098,89.933 17.098,89.933 L17.279,85.965 C17.274,85.945 17.269,85.925 17.265,85.905 C16.816,84.026 16.022,81.816 14.132,81.412 C13.077,81.187 12.005,81.63 11.017,82.064 C10.018,82.502 8.986,82.975 8.04,83.547 C8.15,84.634 8.267,85.538 8.383,86.119 C8.891,88.659 11.431,90.183 11.431,90.183 C11.431,90.183 11.194,98.352 10.874,110.549 C10.807,113.114 10.697,116.574 10.559,120.612 C12.035,143.221 10.15,165.968 11.153,188.724 C11.655,188.968 12.182,189.163 12.722,189.286 C14.699,189.74 16.773,189.452 18.712,188.824 C18.552,187.519 18.279,185.133 18.036,182.227" id="Fill-203" fill="#FEF566"></path>
            <path d="M18.036,182.227 C17.98,181.568 17.927,180.882 17.876,180.177 C17.487,174.731 17.098,89.933 17.098,89.933 L17.279,85.965 C17.274,85.945 17.269,85.925 17.265,85.905 C16.816,84.026 16.022,81.816 14.132,81.412 C13.077,81.187 12.005,81.63 11.017,82.064 C10.018,82.502 8.986,82.975 8.04,83.547 C8.15,84.634 8.267,85.538 8.383,86.119 C8.891,88.659 11.431,90.183 11.431,90.183 C11.431,90.183 11.194,98.352 10.874,110.549 C10.807,113.114 10.697,116.574 10.559,120.612 C12.035,143.221 10.15,165.968 11.153,188.724 C11.655,188.968 12.182,189.163 12.722,189.286 C14.699,189.74 16.773,189.452 18.712,188.824 C18.552,187.519 18.279,185.133 18.036,182.227 Z" id="Stroke-204" stroke="#000000" stroke-width="0.25"></path>
            <path d="M46.469,2.536 C34.677,5.301 28.724,10.031 25.145,12.975 C24.094,13.84 23.053,14.844 22.035,15.939 C17.388,22.628 13.835,29.389 14.472,37.347 C14.628,37.503 14.858,37.585 15.126,37.63 C23.573,26.321 34.676,17.025 43.934,5.514 C44.706,4.485 45.576,3.504 46.469,2.536" id="Fill-205"></path>
            <path d="M46.469,2.536 C34.677,5.301 28.724,10.031 25.145,12.975 C24.094,13.84 23.053,14.844 22.035,15.939 C17.388,22.628 13.835,29.389 14.472,37.347 C14.628,37.503 14.858,37.585 15.126,37.63 C23.573,26.321 34.676,17.025 43.934,5.514 C44.706,4.485 45.576,3.504 46.469,2.536 Z" id="Stroke-207" stroke="#000000"></path>
            <path d="M22.035,15.939 C14.882,23.635 8.891,35.833 8.891,35.833 C8.891,35.833 8.614,41.646 8.296,48.592 C10.243,44.673 12.564,41.06 15.126,37.63 C14.858,37.585 14.628,37.503 14.472,37.347 C13.835,29.389 17.388,22.628 22.035,15.939" id="Fill-208" fill="#FEF566"></path>
            <path d="M22.035,15.939 C14.882,23.635 8.891,35.833 8.891,35.833 C8.891,35.833 8.614,41.646 8.296,48.592 C10.243,44.673 12.564,41.06 15.126,37.63 C14.858,37.585 14.628,37.503 14.472,37.347 C13.835,29.389 17.388,22.628 22.035,15.939 Z" id="Stroke-209" stroke="#000000" stroke-width="0.25"></path>
            <path d="M24.1,92.267 C24.1,92.267 22.933,87.404 22.933,84.293 C22.933,81.181 22.738,77.68 22.738,77.68 L21.572,77.291 C21.572,77.291 19.627,75.346 18.849,67.372 C18.213,60.853 19.396,39.39 19.849,31.772 C15.402,36.93 11.383,42.379 8.296,48.592 C7.869,57.944 7.367,69.349 7.367,71.389 C7.367,74.945 7.875,83.58 8.383,86.119 C8.891,88.659 11.431,90.183 11.431,90.183 C11.431,90.183 11.416,90.415 11.39,90.849 C12.067,90.417 12.823,90.016 13.403,89.933 C14.764,89.738 17.098,89.933 17.098,89.933 L17.293,85.654 C17.293,85.654 17.682,83.32 18.46,84.682 C19.238,86.043 20.599,94.795 20.599,94.795 L24.1,92.267" id="Fill-210" fill="#FEF34D"></path>
            <path d="M24.1,92.267 C24.1,92.267 22.933,87.404 22.933,84.293 C22.933,81.181 22.738,77.68 22.738,77.68 L21.572,77.291 C21.572,77.291 19.627,75.346 18.849,67.372 C18.213,60.853 19.396,39.39 19.849,31.772 C15.402,36.93 11.383,42.379 8.296,48.592 C7.869,57.944 7.367,69.349 7.367,71.389 C7.367,74.945 7.875,83.58 8.383,86.119 C8.891,88.659 11.431,90.183 11.431,90.183 C11.431,90.183 11.416,90.415 11.39,90.849 C12.067,90.417 12.823,90.016 13.403,89.933 C14.764,89.738 17.098,89.933 17.098,89.933 L17.293,85.654 C17.293,85.654 17.682,83.32 18.46,84.682 C19.238,86.043 20.599,94.795 20.599,94.795 L24.1,92.267 Z" id="Stroke-211" stroke="#000000" stroke-width="0.25"></path>
            <path d="M30.258,73.049 C25.759,75.579 22.738,77.68 22.738,77.68 C22.738,77.68 22.933,81.181 22.933,84.293 C22.933,87.404 24.1,92.267 24.1,92.267 L24.106,92.3 C24.369,92.244 24.651,92.208 24.97,92.208 C24.673,85.377 27.502,79.066 30.258,73.049" id="Fill-212" fill="#000000"></path>
            <path d="M30.258,73.049 C25.759,75.579 22.738,77.68 22.738,77.68 C22.738,77.68 22.933,81.181 22.933,84.293 C22.933,87.404 24.1,92.267 24.1,92.267 L24.106,92.3 C24.369,92.244 24.651,92.208 24.97,92.208 C24.673,85.377 27.502,79.066 30.258,73.049 Z" id="Stroke-213" stroke="#000000"></path>
            <path d="M28.573,163.84 C28.768,153.532 28.184,140.306 27.601,134.666 C27.017,129.026 20.599,94.795 20.599,94.795 C20.599,94.795 19.238,86.043 18.46,84.682 C17.682,83.32 17.293,85.654 17.293,85.654 L17.098,89.933 C17.098,89.933 17.487,174.731 17.876,180.177 C17.927,180.882 17.98,181.568 18.036,182.227 L28.155,183.368 C28.285,177.704 28.461,169.773 28.573,163.84" id="Fill-214" fill="#000000"></path>
            <path d="M28.573,163.84 C28.768,153.532 28.184,140.306 27.601,134.666 C27.017,129.026 20.599,94.795 20.599,94.795 C20.599,94.795 19.238,86.043 18.46,84.682 C17.682,83.32 17.293,85.654 17.293,85.654 L17.098,89.933 C17.098,89.933 17.487,174.731 17.876,180.177 C17.927,180.882 17.98,181.568 18.036,182.227 L28.155,183.368 C28.285,177.704 28.461,169.773 28.573,163.84 Z" id="Stroke-215" stroke="#000000"></path>
            <path d="M27.051,183.243 C27.115,178.517 27.261,168.447 27.406,163.062 C27.601,155.865 26.434,137.194 26.045,133.11 C25.656,129.026 21.961,107.826 21.961,107.826 L18.654,108.215 L19.216,182.36 L27.051,183.243" id="Fill-216"></path>
            <path d="M27.051,183.243 C27.115,178.517 27.261,168.447 27.406,163.062 C27.601,155.865 26.434,137.194 26.045,133.11 C25.656,129.026 21.961,107.826 21.961,107.826 L18.654,108.215 L19.216,182.36 L27.051,183.243 Z" id="Stroke-218" stroke="#000000"></path>
            <path d="M10.799,208.599 L7.367,222.757 L7.82,259.879 C8.869,262.556 10.38,264.968 12.116,267.29 C11.35,238.798 10.965,220.402 10.799,208.599" id="Fill-219" fill="#FEF673"></path>
            <path d="M10.799,208.599 L7.367,222.757 L7.82,259.879 C8.869,262.556 10.38,264.968 12.116,267.29 C11.35,238.798 10.965,220.402 10.799,208.599 Z" id="Stroke-220" stroke="#000000" stroke-width="0.25"></path>
            <path d="M7.82,259.879 L7.875,264.409 C7.875,264.409 9.402,268.77 12.312,274.493 C12.244,272.02 12.179,269.625 12.116,267.29 C10.38,264.968 8.869,262.556 7.82,259.879" id="Fill-221" fill="#FEF673"></path>
            <path d="M7.82,259.879 L7.875,264.409 C7.875,264.409 9.402,268.77 12.312,274.493 C12.244,272.02 12.179,269.625 12.116,267.29 C10.38,264.968 8.869,262.556 7.82,259.879 Z" id="Stroke-222" stroke="#000000" stroke-width="0.25"></path>
            <path d="M10.872,188.408 L11.153,188.724 C11.153,188.724 11.001,187.355 10.872,188.408" id="Fill-223" fill="#FEF566"></path>
            <path d="M10.872,188.408 L11.153,188.724 C11.153,188.724 11.001,187.355 10.872,188.408 Z" id="Stroke-224" stroke="#000000" stroke-width="0.25"></path>
            <path d="M8.346,187.568 C8.346,192.144 9.823,199.21 10.733,203.129 C10.633,193.058 10.741,189.479 10.872,188.408 L8.364,185.592 C8.353,186.361 8.346,187.028 8.346,187.568" id="Fill-225" fill="#FEF566"></path>
            <path d="M8.346,187.568 C8.346,192.144 9.823,199.21 10.733,203.129 C10.633,193.058 10.741,189.479 10.872,188.408 L8.364,185.592 C8.353,186.361 8.346,187.028 8.346,187.568 Z" id="Stroke-226" stroke="#000000" stroke-width="0.25"></path>
            <path d="M18.849,189.901 C18.849,189.901 18.654,200.209 19.821,208.767 C20.988,217.325 27.017,240.664 27.017,240.664 L27.99,190.485 L18.849,189.901" id="Fill-227" fill="#000000"></path>
            <path d="M18.849,189.901 C18.849,189.901 18.654,200.209 19.821,208.767 C20.988,217.325 27.017,240.664 27.017,240.664 L27.99,190.485 L18.849,189.901 Z" id="Stroke-228" stroke="#000000"></path>
            <path d="M18.935,197.347 L18.849,197.292 C18.849,197.292 18.92,198.285 19.045,199.958 C18.999,199.055 18.963,198.18 18.935,197.347 Z" id="Stroke-229" stroke="#000000" stroke-width="0.25"></path>
            <g id="Group-232" transform="translate(20.000000, 194.000000)">
                <mask id="mask-2" fill="white">
                    <use xlink:href="#path-1"></use>
                </mask>
                <g id="Clip-231"></g>
                <path d="M0.988,1.153 L6.045,0.958 C6.045,0.958 7.017,0.569 7.017,2.514 C7.017,4.459 7.017,20.796 6.823,25.075 C6.706,27.654 6.518,31.435 6.387,34.031 C6.364,34.49 5.708,34.544 5.61,34.095 C4.605,29.514 2.695,20.636 2.155,16.906 C0.016,2.125 0.988,1.153 0.988,1.153" id="Fill-230" mask="url(#mask-2)"></path>
            </g>
            <path d="M20.988,195.153 L26.045,194.958 C26.045,194.958 27.017,194.569 27.017,196.514 C27.017,198.459 27.017,214.796 26.823,219.075 C26.706,221.654 26.518,225.435 26.387,228.031 C26.364,228.49 25.708,228.544 25.61,228.095 C24.605,223.514 22.695,214.636 22.155,210.906 C20.016,196.125 20.988,195.153 20.988,195.153 Z" id="Stroke-233" stroke="#000000"></path>
            <path d="M14.641,263.056 C14.641,263.056 16.335,260.854 17.181,261.362 C18.028,261.87 19.044,264.58 21.414,268.305 C23.785,272.03 36.315,289.301 36.315,289.301 C36.315,289.301 27.341,286.592 23.108,283.036 C18.874,279.48 16.165,273.554 15.657,269.49 C15.149,265.426 14.641,263.056 14.641,263.056" id="Fill-234" fill="#BF0411"></path>
            <path d="M14.641,263.056 C14.641,263.056 16.335,260.854 17.181,261.362 C18.028,261.87 19.044,264.58 21.414,268.305 C23.785,272.03 36.315,289.301 36.315,289.301 C36.315,289.301 27.341,286.592 23.108,283.036 C18.874,279.48 16.165,273.554 15.657,269.49 C15.149,265.426 14.641,263.056 14.641,263.056 Z" id="Stroke-235" stroke="#000000"></path>
            <path d="M124.305,92.208 C124.602,85.377 121.773,79.066 119.017,73.049 C114.603,70.566 108.765,67.67 102.954,65.94 C91.221,62.445 74.905,63.194 74.905,63.194 C74.905,63.194 58.054,62.445 46.321,65.94 C40.51,67.67 34.673,70.566 30.258,73.049 C27.502,79.066 24.673,85.377 24.97,92.208 C24.651,92.208 24.369,92.244 24.106,92.3 L31.343,131.842 C31.343,131.842 47.07,129.595 57.305,129.346 C67.54,129.096 74.905,129.346 74.905,129.346 C74.905,129.346 81.736,129.096 91.97,129.346 C102.205,129.595 117.932,131.842 117.932,131.842 L125.169,92.3 C124.907,92.244 124.624,92.208 124.305,92.208" id="Fill-236" fill="#333333"></path>
            <path d="M124.305,92.208 C124.602,85.377 121.773,79.066 119.017,73.049 C114.603,70.566 108.765,67.67 102.954,65.94 C91.221,62.445 74.905,63.194 74.905,63.194 C74.905,63.194 58.054,62.445 46.321,65.94 C40.51,67.67 34.673,70.566 30.258,73.049 C27.502,79.066 24.673,85.377 24.97,92.208 C24.651,92.208 24.369,92.244 24.106,92.3 L31.343,131.842 C31.343,131.842 47.07,129.595 57.305,129.346 C67.54,129.096 74.905,129.346 74.905,129.346 C74.905,129.346 81.736,129.096 91.97,129.346 C102.205,129.595 117.932,131.842 117.932,131.842 L125.169,92.3 C124.907,92.244 124.624,92.208 124.305,92.208 Z" id="Stroke-237" stroke="#000000"></path>
            <path d="M37.669,290.994 L36.315,289.301 C36.315,289.301 37.977,287.75 39.024,287.1 C40.013,286.486 40.23,286.378 40.23,286.378 M27.341,276.658 L34.791,276.545" id="Stroke-238" stroke="#000000" stroke-width="0.25"></path>
            <path d="M0.078,110.726 L14.653,105.394 L14.653,103.491 L0.316,108.691 C0.078,109.909 0.078,110.726 0.078,110.726" id="Fill-239" fill="#000000"></path>
            <path d="M0.078,110.726 L14.653,105.394 L14.653,103.491 L0.316,108.691 C0.078,109.909 0.078,110.726 0.078,110.726 Z" id="Stroke-240" stroke="#000000"></path>
            <path d="M23.185,108.238 L20.599,94.795 L12.876,97.573 C12.876,97.573 5.766,99.35 2.922,102.905 C1.323,104.904 0.623,107.127 0.316,108.691 L14.653,103.491 L14.653,102.905 L17.142,102.905 L17.142,108.949 L23.185,108.238" id="Fill-241" fill="#333333"></path>
            <path d="M23.185,108.238 L20.599,94.795 L12.876,97.573 C12.876,97.573 5.766,99.35 2.922,102.905 C1.323,104.904 0.623,107.127 0.316,108.691 L14.653,103.491 L14.653,102.905 L17.142,102.905 L17.142,108.949 L23.185,108.238 Z" id="Stroke-242" stroke="#000000"></path>
            <path d="M130.427,197.292 C130.427,197.292 130.355,198.285 130.231,199.958 C130.276,199.055 130.312,198.18 130.341,197.347 L130.427,197.292 Z" id="Stroke-243" stroke="#000000" stroke-width="0.25"></path>
            <path d="M131.24,182.227 C130.869,186.659 130.427,189.901 130.427,189.901 L121.286,190.485 C121.286,190.485 121.216,187.542 121.12,183.368 L131.24,182.227" id="Fill-244" fill="#333333"></path>
            <path d="M131.24,182.227 C130.869,186.659 130.427,189.901 130.427,189.901 L121.286,190.485 C121.286,190.485 121.216,187.542 121.12,183.368 L131.24,182.227 Z" id="Stroke-245" stroke="#000000"></path>
            <path d="M138.122,188.724 C139.125,165.968 137.24,143.221 138.716,120.612 C139.408,140.891 140.795,175.842 140.92,186.245" id="Fill-246" fill="#FEF566"></path>
            <path d="M138.122,188.724 C139.125,165.968 137.24,143.221 138.716,120.612 C139.408,140.891 140.795,175.842 140.92,186.245" id="Stroke-247" stroke="#000000" stroke-width="0.25"></path>
            <path d="M131.24,182.227 C131.295,181.568 131.349,180.882 131.399,180.177 C131.788,174.731 132.177,89.933 132.177,89.933 L131.997,85.965 C132.001,85.945 132.006,85.925 132.011,85.905 C132.459,84.026 133.253,81.816 135.143,81.412 C136.199,81.187 137.27,81.63 138.259,82.064 C139.257,82.502 140.289,82.975 141.235,83.547 C141.125,84.634 141.009,85.538 140.892,86.119 C140.384,88.659 137.845,90.183 137.845,90.183 C137.845,90.183 138.082,98.352 138.401,110.549 C138.468,113.114 138.578,116.574 138.716,120.612 C137.24,143.221 139.125,165.968 138.122,188.724 C137.62,188.968 137.093,189.163 136.553,189.286 C134.577,189.74 132.502,189.452 130.564,188.824 C130.724,187.519 130.997,185.133 131.24,182.227" id="Fill-248" fill="#FEF566"></path>
            <path d="M131.24,182.227 C131.295,181.568 131.349,180.882 131.399,180.177 C131.788,174.731 132.177,89.933 132.177,89.933 L131.997,85.965 C132.001,85.945 132.006,85.925 132.011,85.905 C132.459,84.026 133.253,81.816 135.143,81.412 C136.199,81.187 137.27,81.63 138.259,82.064 C139.257,82.502 140.289,82.975 141.235,83.547 C141.125,84.634 141.009,85.538 140.892,86.119 C140.384,88.659 137.845,90.183 137.845,90.183 C137.845,90.183 138.082,98.352 138.401,110.549 C138.468,113.114 138.578,116.574 138.716,120.612 C137.24,143.221 139.125,165.968 138.122,188.724 C137.62,188.968 137.093,189.163 136.553,189.286 C134.577,189.74 132.502,189.452 130.564,188.824 C130.724,187.519 130.997,185.133 131.24,182.227 Z" id="Stroke-249" stroke="#000000" stroke-width="0.25"></path>
            <path d="M102.806,2.536 C114.598,5.301 120.552,10.031 124.13,12.975 C125.181,13.84 126.223,14.844 127.241,15.939 C131.888,22.628 135.44,29.389 134.803,37.347 C134.647,37.503 134.417,37.585 134.15,37.63 C125.703,26.321 114.6,17.025 105.341,5.514 C104.569,4.485 103.699,3.504 102.806,2.536" id="Fill-250"></path>
            <path d="M102.806,2.536 C114.598,5.301 120.552,10.031 124.13,12.975 C125.181,13.84 126.223,14.844 127.241,15.939 C131.888,22.628 135.44,29.389 134.803,37.347 C134.647,37.503 134.417,37.585 134.15,37.63 C125.703,26.321 114.6,17.025 105.341,5.514 C104.569,4.485 103.699,3.504 102.806,2.536 Z" id="Stroke-252" stroke="#000000"></path>
            <path d="M127.241,15.939 C134.393,23.635 140.384,35.833 140.384,35.833 C140.384,35.833 140.661,41.646 140.979,48.592 C139.032,44.673 136.711,41.06 134.15,37.63 C134.417,37.585 134.647,37.503 134.803,37.347 C135.44,29.389 131.888,22.628 127.241,15.939" id="Fill-253" fill="#FEF566"></path>
            <path d="M127.241,15.939 C134.393,23.635 140.384,35.833 140.384,35.833 C140.384,35.833 140.661,41.646 140.979,48.592 C139.032,44.673 136.711,41.06 134.15,37.63 C134.417,37.585 134.647,37.503 134.803,37.347 C135.44,29.389 131.888,22.628 127.241,15.939 Z" id="Stroke-254" stroke="#000000" stroke-width="0.25"></path>
            <path d="M125.175,92.267 C125.175,92.267 126.342,87.404 126.342,84.293 C126.342,81.181 126.537,77.68 126.537,77.68 L127.704,77.291 C127.704,77.291 129.649,75.346 130.427,67.372 C131.063,60.853 129.879,39.39 129.426,31.772 C133.873,36.93 137.892,42.379 140.979,48.592 C141.407,57.944 141.908,69.349 141.908,71.389 C141.908,74.945 141.4,83.58 140.892,86.119 C140.384,88.659 137.845,90.183 137.845,90.183 C137.845,90.183 137.859,90.415 137.885,90.849 C137.208,90.417 136.452,90.016 135.872,89.933 C134.511,89.738 132.177,89.933 132.177,89.933 L131.983,85.654 C131.983,85.654 131.594,83.32 130.816,84.682 C130.038,86.043 128.676,94.795 128.676,94.795 L125.175,92.267" id="Fill-255" fill="#FEF34D"></path>
            <path d="M125.175,92.267 C125.175,92.267 126.342,87.404 126.342,84.293 C126.342,81.181 126.537,77.68 126.537,77.68 L127.704,77.291 C127.704,77.291 129.649,75.346 130.427,67.372 C131.063,60.853 129.879,39.39 129.426,31.772 C133.873,36.93 137.892,42.379 140.979,48.592 C141.407,57.944 141.908,69.349 141.908,71.389 C141.908,74.945 141.4,83.58 140.892,86.119 C140.384,88.659 137.845,90.183 137.845,90.183 C137.845,90.183 137.859,90.415 137.885,90.849 C137.208,90.417 136.452,90.016 135.872,89.933 C134.511,89.738 132.177,89.933 132.177,89.933 L131.983,85.654 C131.983,85.654 131.594,83.32 130.816,84.682 C130.038,86.043 128.676,94.795 128.676,94.795 L125.175,92.267 Z" id="Stroke-256" stroke="#000000" stroke-width="0.25"></path>
            <path d="M119.017,73.049 C123.516,75.579 126.537,77.68 126.537,77.68 C126.537,77.68 126.342,81.181 126.342,84.293 C126.342,87.404 125.175,92.267 125.175,92.267 L125.169,92.3 C124.907,92.244 124.624,92.208 124.305,92.208 C124.602,85.377 121.773,79.066 119.017,73.049" id="Fill-257" fill="#000000"></path>
            <path d="M119.017,73.049 C123.516,75.579 126.537,77.68 126.537,77.68 C126.537,77.68 126.342,81.181 126.342,84.293 C126.342,87.404 125.175,92.267 125.175,92.267 L125.169,92.3 C124.907,92.244 124.624,92.208 124.305,92.208 C124.602,85.377 121.773,79.066 119.017,73.049 Z" id="Stroke-258" stroke="#000000"></path>
            <path d="M120.702,163.84 C120.508,153.532 121.091,140.306 121.674,134.666 C122.258,129.026 128.676,94.795 128.676,94.795 C128.676,94.795 130.038,86.043 130.816,84.682 C131.594,83.32 131.983,85.654 131.983,85.654 L132.177,89.933 C132.177,89.933 131.788,174.731 131.399,180.177 C131.349,180.882 131.295,181.568 131.24,182.227 L121.12,183.368 C120.99,177.704 120.814,169.773 120.702,163.84" id="Fill-259" fill="#000000"></path>
            <path d="M120.702,163.84 C120.508,153.532 121.091,140.306 121.674,134.666 C122.258,129.026 128.676,94.795 128.676,94.795 C128.676,94.795 130.038,86.043 130.816,84.682 C131.594,83.32 131.983,85.654 131.983,85.654 L132.177,89.933 C132.177,89.933 131.788,174.731 131.399,180.177 C131.349,180.882 131.295,181.568 131.24,182.227 L121.12,183.368 C120.99,177.704 120.814,169.773 120.702,163.84 Z" id="Stroke-260" stroke="#000000"></path>
            <path d="M122.224,183.243 C122.16,178.517 122.015,168.447 121.869,163.062 C121.674,155.865 122.841,137.194 123.23,133.11 C123.619,129.026 127.315,107.826 127.315,107.826 L130.621,108.215 L130.059,182.36 L122.224,183.243" id="Fill-261"></path>
            <path d="M122.224,183.243 C122.16,178.517 122.015,168.447 121.869,163.062 C121.674,155.865 122.841,137.194 123.23,133.11 C123.619,129.026 127.315,107.826 127.315,107.826 L130.621,108.215 L130.059,182.36 L122.224,183.243 Z" id="Stroke-263" stroke="#000000"></path>
            <path d="M138.476,208.599 L141.908,222.757 L141.456,259.879 C140.406,262.556 138.896,264.968 137.159,267.29 C137.925,238.798 138.31,220.402 138.476,208.599" id="Fill-264" fill="#FEF673"></path>
            <path d="M138.476,208.599 L141.908,222.757 L141.456,259.879 C140.406,262.556 138.896,264.968 137.159,267.29 C137.925,238.798 138.31,220.402 138.476,208.599 Z" id="Stroke-265" stroke="#000000" stroke-width="0.25"></path>
            <path d="M141.456,259.879 L141.4,264.409 C141.4,264.409 139.874,268.77 136.964,274.493 C137.032,272.02 137.097,269.625 137.159,267.29 C138.896,264.968 140.406,262.556 141.456,259.879" id="Fill-266" fill="#FEF673"></path>
            <path d="M141.456,259.879 L141.4,264.409 C141.4,264.409 139.874,268.77 136.964,274.493 C137.032,272.02 137.097,269.625 137.159,267.29 C138.896,264.968 140.406,262.556 141.456,259.879 Z" id="Stroke-267" stroke="#000000" stroke-width="0.25"></path>
            <path d="M138.403,188.408 L138.122,188.724 C138.122,188.724 138.274,187.355 138.403,188.408" id="Fill-268" fill="#FEF566"></path>
            <path d="M138.403,188.408 L138.122,188.724 C138.122,188.724 138.274,187.355 138.403,188.408 Z" id="Stroke-269" stroke="#000000" stroke-width="0.25"></path>
            <path d="M140.929,187.568 C140.929,192.144 139.452,199.21 138.542,203.129 C138.642,193.058 138.535,189.479 138.403,188.408 L140.911,185.592 C140.923,186.361 140.929,187.028 140.929,187.568" id="Fill-270" fill="#FEF566"></path>
            <path d="M140.929,187.568 C140.929,192.144 139.452,199.21 138.542,203.129 C138.642,193.058 138.535,189.479 138.403,188.408 L140.911,185.592 C140.923,186.361 140.929,187.028 140.929,187.568 Z" id="Stroke-271" stroke="#000000" stroke-width="0.25"></path>
            <path d="M130.427,189.901 C130.427,189.901 130.621,200.209 129.454,208.767 C128.287,217.325 122.258,240.664 122.258,240.664 L121.286,190.485 L130.427,189.901" id="Fill-272" fill="#000000"></path>
            <path d="M130.427,189.901 C130.427,189.901 130.621,200.209 129.454,208.767 C128.287,217.325 122.258,240.664 122.258,240.664 L121.286,190.485 L130.427,189.901 Z" id="Stroke-273" stroke="#000000"></path>
            <path d="M130.341,197.347 L130.427,197.292 C130.427,197.292 130.355,198.285 130.231,199.958 C130.276,199.055 130.312,198.18 130.341,197.347 Z" id="Stroke-274" stroke="#000000" stroke-width="0.25"></path>
            <g id="Group-277" transform="translate(122.000000, 194.000000)">
                <mask id="mask-4" fill="white">
                    <use xlink:href="#path-3"></use>
                </mask>
                <g id="Clip-276"></g>
                <path d="M6.287,1.153 L1.23,0.958 C1.23,0.958 0.258,0.569 0.258,2.514 C0.258,4.459 0.258,20.796 0.453,25.075 C0.57,27.654 0.758,31.435 0.888,34.031 C0.911,34.49 1.567,34.544 1.665,34.095 C2.671,29.514 4.58,20.636 5.12,16.906 C7.26,2.125 6.287,1.153 6.287,1.153" id="Fill-275" mask="url(#mask-4)"></path>
            </g>
            <path d="M128.287,195.153 L123.23,194.958 C123.23,194.958 122.258,194.569 122.258,196.514 C122.258,198.459 122.258,214.796 122.453,219.075 C122.57,221.654 122.758,225.435 122.888,228.031 C122.911,228.49 123.567,228.544 123.665,228.095 C124.671,223.514 126.58,214.636 127.12,210.906 C129.26,196.125 128.287,195.153 128.287,195.153 Z" id="Stroke-278" stroke="#000000"></path>
            <path d="M129.454,208.767 C128.287,217.325 122.258,240.664 122.258,240.664 C122.258,240.664 118.563,242.22 115.84,242.803 C113.117,243.386 102.809,244.164 96.002,244.943 C90.761,245.541 79.745,245.564 74.905,245.543 C70.065,245.564 58.514,245.541 53.274,244.943 C46.466,244.164 36.158,243.386 33.436,242.803 C30.713,242.22 27.017,240.664 27.017,240.664 C27.017,240.664 20.988,217.325 19.821,208.767 C19.716,207.997 19.623,207.213 19.539,206.424 C20.228,215.25 21.305,228.2 22.155,234.634 C23.516,244.943 25.656,265.559 30.713,274.311 C35.769,283.063 44.91,293.76 59.886,294.732 C67.223,295.209 72.186,295.405 74.905,295.481 C77.624,295.405 82.052,295.209 89.389,294.732 C104.365,293.76 113.506,283.063 118.563,274.311 C123.62,265.559 125.759,244.943 127.12,234.634 C127.97,228.2 129.047,215.25 129.737,206.424 C129.653,207.213 129.559,207.997 129.454,208.767" id="Fill-279" fill="#FEEE00"></path>
            <path d="M129.454,208.767 C128.287,217.325 122.258,240.664 122.258,240.664 C122.258,240.664 118.563,242.22 115.84,242.803 C113.117,243.386 102.809,244.164 96.002,244.943 C90.761,245.541 79.745,245.564 74.905,245.543 C70.065,245.564 58.514,245.541 53.274,244.943 C46.466,244.164 36.158,243.386 33.436,242.803 C30.713,242.22 27.017,240.664 27.017,240.664 C27.017,240.664 20.988,217.325 19.821,208.767 C19.716,207.997 19.623,207.213 19.539,206.424 C20.228,215.25 21.305,228.2 22.155,234.634 C23.516,244.943 25.656,265.559 30.713,274.311 C35.769,283.063 44.91,293.76 59.886,294.732 C67.223,295.209 72.186,295.405 74.905,295.481 C77.624,295.405 82.052,295.209 89.389,294.732 C104.365,293.76 113.506,283.063 118.563,274.311 C123.62,265.559 125.759,244.943 127.12,234.634 C127.97,228.2 129.047,215.25 129.737,206.424 C129.653,207.213 129.559,207.997 129.454,208.767 Z" id="Stroke-280" stroke="#000000" stroke-width="0.25" stroke-linejoin="bevel"></path>
            <path d="M104.365,265.559 C94.592,268.034 82.134,268.327 74.905,268.251 C67.676,268.327 54.683,268.034 44.91,265.559 C30.324,261.863 27.99,251.555 27.99,251.555 C27.99,252.333 31.102,271.004 34.991,277.034 C38.881,283.063 45.299,292.593 58.719,293.565 C67.089,294.172 72.41,294.476 74.905,294.618 C77.4,294.476 82.186,294.172 90.556,293.565 C103.976,292.593 110.394,283.063 114.284,277.034 C118.174,271.004 121.286,252.333 121.286,251.555 C121.286,251.555 118.952,261.863 104.365,265.559" id="Fill-281"></path>
            <path d="M104.365,265.559 C94.592,268.034 82.134,268.327 74.905,268.251 C67.676,268.327 54.683,268.034 44.91,265.559 C30.324,261.863 27.99,251.555 27.99,251.555 C27.99,252.333 31.102,271.004 34.991,277.034 C38.881,283.063 45.299,292.593 58.719,293.565 C67.089,294.172 72.41,294.476 74.905,294.618 C77.4,294.476 82.186,294.172 90.556,293.565 C103.976,292.593 110.394,283.063 114.284,277.034 C118.174,271.004 121.286,252.333 121.286,251.555 C121.286,251.555 118.952,261.863 104.365,265.559 Z" id="Stroke-283" stroke="#000000"></path>
            <path d="M134.634,263.056 C134.634,263.056 132.941,260.854 132.094,261.362 C131.247,261.87 130.232,264.58 127.861,268.305 C125.49,272.03 112.96,289.301 112.96,289.301 C112.96,289.301 121.935,286.592 126.168,283.036 C130.401,279.48 133.11,273.554 133.618,269.49 C134.126,265.426 134.634,263.056 134.634,263.056" id="Fill-284" fill="#BF0411"></path>
            <path d="M134.634,263.056 C134.634,263.056 132.941,260.854 132.094,261.362 C131.247,261.87 130.232,264.58 127.861,268.305 C125.49,272.03 112.96,289.301 112.96,289.301 C112.96,289.301 121.935,286.592 126.168,283.036 C130.401,279.48 133.11,273.554 133.618,269.49 C134.126,265.426 134.634,263.056 134.634,263.056 Z" id="Stroke-285" stroke="#000000"></path>
            <path d="M74.905,302.504 C74.862,302.504 74.819,302.504 74.905,302.504 C74.991,302.504 74.948,302.504 74.905,302.504 Z M133.787,272.369 C133.787,272.369 132.602,277.279 129.554,281.004 C126.506,284.729 121.596,287.1 118.209,288.793 C114.823,290.486 111.606,290.994 111.606,290.994 C111.606,290.994 99.414,297.259 93.996,297.598 C89.907,297.853 79.694,298.398 74.905,298.65 C70.116,298.398 59.368,297.853 55.279,297.598 C49.861,297.259 37.669,290.994 37.669,290.994 C37.669,290.994 34.452,290.486 31.066,288.793 C27.679,287.1 22.769,284.729 19.721,281.004 C16.673,277.279 15.488,272.369 15.488,272.369 L12.134,267.317 L12.267,274.403 C13.806,277.437 15.734,280.858 18.034,284.219 C24.637,293.87 35.701,296.651 45.494,299.206 C54.424,301.535 68.25,302.501 74.867,302.505 C74.852,302.505 74.853,302.505 74.905,302.505 C74.957,302.505 74.958,302.505 74.943,302.505 C81.558,302.501 94.851,301.535 103.781,299.206 C113.574,296.651 124.638,293.87 131.241,284.219 C133.541,280.858 135.47,277.437 137.009,274.403 L137.142,267.317 L133.787,272.369 L133.787,272.369 Z" id="Fill-286" fill="#FEF01A"></path>
            <path d="M74.905,302.504 C74.862,302.504 74.819,302.504 74.905,302.504 C74.991,302.504 74.948,302.504 74.905,302.504 Z M133.787,272.369 C133.787,272.369 132.602,277.279 129.554,281.004 C126.506,284.729 121.596,287.1 118.209,288.793 C114.823,290.486 111.606,290.994 111.606,290.994 C111.606,290.994 99.414,297.259 93.996,297.598 C89.907,297.853 79.694,298.398 74.905,298.65 C70.116,298.398 59.368,297.853 55.279,297.598 C49.861,297.259 37.669,290.994 37.669,290.994 C37.669,290.994 34.452,290.486 31.066,288.793 C27.679,287.1 22.769,284.729 19.721,281.004 C16.673,277.279 15.488,272.369 15.488,272.369 L12.134,267.317 L12.267,274.403 C13.806,277.437 15.734,280.858 18.034,284.219 C24.637,293.87 35.701,296.651 45.494,299.206 C54.424,301.535 68.25,302.501 74.867,302.505 C74.852,302.505 74.853,302.505 74.905,302.505 C74.957,302.505 74.958,302.505 74.943,302.505 C81.558,302.501 94.851,301.535 103.781,299.206 C113.574,296.651 124.638,293.87 131.241,284.219 C133.541,280.858 135.47,277.437 137.009,274.403 L137.142,267.317 L133.787,272.369 Z M111.606,290.994 L112.96,289.301 C112.96,289.301 111.299,287.75 110.251,287.1 C109.262,286.486 109.045,286.378 109.045,286.378 L111.606,290.994 Z M121.935,276.658 L114.484,276.545 L121.935,276.658 Z" id="Stroke-287" stroke="#000000" stroke-width="0.25"></path>
            <path d="M118.681,77.672 C118.681,77.672 107.947,74.427 99.709,73.428 C91.604,72.446 75.439,71.705 74.918,71.682 C74.914,71.678 74.91,71.677 74.905,71.681 C74.9,71.677 74.896,71.678 74.892,71.682 C74.36,71.705 57.672,72.446 49.566,73.428 C41.329,74.427 30.595,77.672 30.595,77.672 L26.85,86.409 L32.841,127.099 C32.841,127.099 48.318,123.854 56.057,123.604 C63.795,123.355 74.905,123.355 74.905,123.355 C74.905,123.355 85.48,123.355 93.219,123.604 C100.957,123.854 116.434,127.099 116.434,127.099 L122.425,86.409 L118.681,77.672" id="Fill-288"></path>
            <polyline id="Fill-290" points="74.629 1.63 71.015 5.261 74.629 9.361 78.26 5.261 74.629 1.63"></polyline>
            <polygon id="Stroke-292" stroke="#000000" points="74.629 1.63 71.015 5.261 74.629 9.361 78.26 5.261"></polygon>
            <path d="M149.198,110.726 L134.622,105.394 L134.622,103.491 L148.959,108.691 C149.198,109.909 149.198,110.726 149.198,110.726" id="Fill-293" fill="#000000"></path>
            <path d="M149.198,110.726 L134.622,105.394 L134.622,103.491 L148.959,108.691 C149.198,109.909 149.198,110.726 149.198,110.726 Z" id="Stroke-294" stroke="#000000"></path>
            <path d="M126.09,108.238 L128.676,94.795 L136.4,97.573 C136.4,97.573 143.51,99.35 146.354,102.905 C147.953,104.904 148.653,107.127 148.959,108.691 L134.622,103.491 L134.622,102.905 L132.134,102.905 L132.134,108.949 L126.09,108.238" id="Fill-295" fill="#333333"></path>
            <path d="M126.09,108.238 L128.676,94.795 L136.4,97.573 C136.4,97.573 143.51,99.35 146.354,102.905 C147.953,104.904 148.653,107.127 148.959,108.691 L134.622,103.491 L134.622,102.905 L132.134,102.905 L132.134,108.949 L126.09,108.238 Z" id="Stroke-296" stroke="#000000"></path>
            <path d="M116.205,242.72 C116.082,242.749 115.96,242.777 115.84,242.803 C113.117,243.386 102.809,244.164 96.002,244.943 C90.761,245.541 79.745,245.564 74.905,245.543 C70.065,245.564 58.514,245.541 53.274,244.943 C46.466,244.164 36.158,243.386 33.436,242.803 C33.316,242.777 33.193,242.749 33.07,242.72 C32.818,245.383 32.905,248.155 34.613,250.12 C35.612,251.27 37.03,251.956 38.43,252.556 C49.718,257.401 62.539,258.575 74.905,258.739 C87.271,258.575 99.557,257.401 110.846,252.556 C112.245,251.956 113.664,251.27 114.662,250.12 C116.37,248.155 116.457,245.383 116.205,242.72" id="Fill-297" fill="#FEF34D"></path>
            <path d="M116.205,242.72 C116.082,242.749 115.96,242.777 115.84,242.803 C113.117,243.386 102.809,244.164 96.002,244.943 C90.761,245.541 79.745,245.564 74.905,245.543 C70.065,245.564 58.514,245.541 53.274,244.943 C46.466,244.164 36.158,243.386 33.436,242.803 C33.316,242.777 33.193,242.749 33.07,242.72 C32.818,245.383 32.905,248.155 34.613,250.12 C35.612,251.27 37.03,251.956 38.43,252.556 C49.718,257.401 62.539,258.575 74.905,258.739 C87.271,258.575 99.557,257.401 110.846,252.556 C112.245,251.956 113.664,251.27 114.662,250.12 C116.37,248.155 116.457,245.383 116.205,242.72 Z" id="Stroke-298" stroke="#000000" stroke-width="0.25" stroke-linejoin="bevel"></path>
        </g>
    </g>
</svg>